<?xml version="1.0" encoding="UTF-8"?>
<svg id="Layer_2" data-name="Layer 2" xmlns="http://www.w3.org/2000/svg" viewBox="0 0 3280.24 3411.33">
  <defs>
    <style>
      .cls-1 {
        fill: #fff;
        stroke: #fff;
        stroke-miterlimit: 10;
        stroke-width: 3px;
      }
    </style>
  </defs>
  <g id="Layer_1-2" data-name="Layer 1">
    <g>
      <ellipse class="cls-1" cx="402.8" cy="572.96" rx="4.72" ry="5.22"/>
      <ellipse class="cls-1" cx="483.55" cy="393.72" rx="5.6" ry="6.19"/>
      <ellipse class="cls-1" cx="152.37" cy="1673.16" rx="4.72" ry="5.22"/>
      <ellipse class="cls-1" cx="569.22" cy="693.58" rx="4.72" ry="5.22"/>
      <ellipse class="cls-1" cx="162.69" cy="1406.89" rx="5.6" ry="6.19"/>
      <ellipse class="cls-1" cx="42.89" cy="1267.57" rx="5.6" ry="6.19"/>
      <ellipse class="cls-1" cx="349.74" cy="934.75" rx="5.6" ry="6.19"/>
      <ellipse class="cls-1" cx="964.14" cy="1516.02" rx="5.6" ry="6.19"/>
      <ellipse class="cls-1" cx="341.34" cy="1159.21" rx="5.6" ry="6.19"/>
      <ellipse class="cls-1" cx="495.46" cy="898.37" rx="5.6" ry="6.19"/>
      <ellipse class="cls-1" cx="997.77" cy="355.79" rx="5.6" ry="6.19"/>
      <ellipse class="cls-1" cx="746.96" cy="1522.22" rx="5.6" ry="6.19"/>
      <ellipse class="cls-1" cx="456.93" cy="1502.86" rx="5.6" ry="6.19"/>
      <ellipse class="cls-1" cx="662.9" cy="1363.54" rx="5.6" ry="6.19"/>
      <ellipse class="cls-1" cx="1032.29" cy="68.19" rx="4.72" ry="5.22"/>
      <ellipse class="cls-1" cx="760.97" cy="187.83" rx="5.6" ry="6.19"/>
      <ellipse class="cls-1" cx="1042.6" cy="431.64" rx="5.6" ry="6.19"/>
      <ellipse class="cls-1" cx="752.57" cy="412.29" rx="5.6" ry="6.19"/>
      <ellipse class="cls-1" cx="958.53" cy="272.97" rx="5.6" ry="6.19"/>
      <ellipse class="cls-1" cx="1158.2" cy="775.3" rx="5.6" ry="6.19"/>
      <ellipse class="cls-1" cx="816.32" cy="634.43" rx="5.6" ry="6.19"/>
      <ellipse class="cls-1" cx="1022.29" cy="495.11" rx="5.6" ry="6.19"/>
      <ellipse class="cls-1" cx="1349.45" cy="1024.53" rx="5.6" ry="6.19"/>
      <ellipse class="cls-1" cx="1516.89" cy="1489.71" rx="5.6" ry="6.19"/>
      <ellipse class="cls-1" cx="1432.82" cy="1331.04" rx="5.6" ry="6.19"/>
      <ellipse class="cls-1" cx="1812.52" cy="399.14" rx="5.6" ry="6.19"/>
      <ellipse class="cls-1" cx="1522.49" cy="379.79" rx="5.6" ry="6.19"/>
      <ellipse class="cls-1" cx="1586.24" cy="601.93" rx="5.6" ry="6.19"/>
      <ellipse class="cls-1" cx="1792.21" cy="462.6" rx="5.6" ry="6.19"/>
      <ellipse class="cls-1" cx="662.9" cy="1791.57" rx="5.6" ry="6.19"/>
      <ellipse class="cls-1" cx="830.33" cy="2256.74" rx="5.6" ry="6.19"/>
      <ellipse class="cls-1" cx="746.26" cy="2098.07" rx="5.6" ry="6.19"/>
      <ellipse class="cls-1" cx="1125.97" cy="1166.17" rx="5.6" ry="6.19"/>
      <ellipse class="cls-1" cx="835.93" cy="1146.82" rx="5.6" ry="6.19"/>
      <ellipse class="cls-1" cx="899.69" cy="1368.96" rx="5.6" ry="6.19"/>
      <ellipse class="cls-1" cx="1505.68" cy="2266.03" rx="5.6" ry="6.19"/>
      <ellipse class="cls-1" cx="1288.5" cy="2272.22" rx="5.6" ry="6.19"/>
      <ellipse class="cls-1" cx="1204.43" cy="2113.55" rx="5.6" ry="6.19"/>
      <ellipse class="cls-1" cx="1204.43" cy="2541.58" rx="5.6" ry="6.19"/>
      <ellipse class="cls-1" cx="1441.22" cy="2118.97" rx="5.6" ry="6.19"/>
      <ellipse class="cls-1" cx="1105.65" cy="1229.64" rx="5.6" ry="6.19"/>
      <ellipse class="cls-1" cx="2009.38" cy="1982.75" rx="5.6" ry="6.19"/>
      <ellipse class="cls-1" cx="1792.21" cy="1988.94" rx="5.6" ry="6.19"/>
      <ellipse class="cls-1" cx="2203.44" cy="1242.03" rx="5.6" ry="6.19"/>
      <ellipse class="cls-1" cx="2171.21" cy="1632.9" rx="5.6" ry="6.19"/>
      <ellipse class="cls-1" cx="1881.18" cy="1613.55" rx="5.6" ry="6.19"/>
      <ellipse class="cls-1" cx="1944.93" cy="1835.69" rx="5.6" ry="6.19"/>
      <ellipse class="cls-1" cx="2150.9" cy="1696.37" rx="5.6" ry="6.19"/>
      <ellipse class="cls-1" cx="178.1" cy="1069.42" rx="5.6" ry="6.19"/>
      <ellipse class="cls-1" cx="166.89" cy="775.3" rx="5.6" ry="6.19"/>
      <ellipse class="cls-1" cx="3158.3" cy="804.16" rx="4.57" ry="5.05" transform="translate(722.71 2969.67) rotate(-55.93)"/>
      <ellipse class="cls-1" cx="3258.28" cy="966.21" rx="5.43" ry="6" transform="translate(632.45 3123.75) rotate(-55.93)"/>
      <ellipse class="cls-1" cx="2411.55" cy="6.23" rx="4.57" ry="5.05" transform="translate(1055.28 2000.25) rotate(-55.93)"/>
      <ellipse class="cls-1" cx="2971.22" cy="872.22" rx="4.57" ry="5.05" transform="translate(584.07 2844.64) rotate(-55.93)"/>
      <ellipse class="cls-1" cx="2619.57" cy="159.01" rx="5.43" ry="6" transform="translate(1020.2 2239.74) rotate(-55.93)"/>
      <ellipse class="cls-1" cx="2796.35" cy="138.5" rx="5.43" ry="6" transform="translate(1114.92 2377.15) rotate(-55.93)"/>
      <ellipse class="cls-1" cx="2896.85" cy="565.27" rx="5.43" ry="6" transform="translate(805.61 2648.06) rotate(-55.93)"/>
      <ellipse class="cls-1" cx="2097.11" cy="742.75" rx="5.43" ry="6" transform="translate(306.94 2063.68) rotate(-55.93)"/>
      <ellipse class="cls-1" cx="2721.33" cy="436.73" rx="5.43" ry="6" transform="translate(834.91 2446.15) rotate(-55.93)"/>
      <ellipse class="cls-1" cx="2846.96" cy="701.92" rx="5.43" ry="6" transform="translate(670.49 2666.82) rotate(-55.93)"/>
      <ellipse class="cls-1" cx="3009.67" cy="1399.32" rx="5.43" ry="6" transform="translate(164.37 3108.27) rotate(-55.93)"/>
      <ellipse class="cls-1" cx="2210" cy="565.16" rx="5.43" ry="6" transform="translate(503.68 2079.08) rotate(-55.93)"/>
      <ellipse class="cls-1" cx="2382.9" cy="342.98" rx="5.43" ry="6" transform="translate(763.75 2124.61) rotate(-55.93)"/>
      <ellipse class="cls-1" cx="2382.91" cy="583.82" rx="5.43" ry="6" transform="translate(564.26 2230.52) rotate(-55.93)"/>
      <ellipse class="cls-1" cx="3221.67" cy="1583.09" rx="4.57" ry="5.05" transform="translate(105.38 3364.68) rotate(-55.93)"/>
      <ellipse class="cls-1" cx="3272.91" cy="1300.5" rx="5.43" ry="6" transform="translate(361.99 3282.86) rotate(-55.93)"/>
      <ellipse class="cls-1" cx="2924.49" cy="1394.13" rx="5.43" ry="6" transform="translate(131.21 3035.43) rotate(-55.93)"/>
      <ellipse class="cls-1" cx="3097.4" cy="1171.95" rx="5.43" ry="6" transform="translate(391.28 3080.95) rotate(-55.93)"/>
      <ellipse class="cls-1" cx="3097.4" cy="1412.79" rx="5.43" ry="6" transform="translate(191.8 3186.86) rotate(-55.93)"/>
      <ellipse class="cls-1" cx="2586.06" cy="1300.39" rx="5.43" ry="6" transform="translate(60.05 2713.88) rotate(-55.93)"/>
      <ellipse class="cls-1" cx="2884.59" cy="1102.55" rx="5.43" ry="6" transform="translate(355.19 2874.17) rotate(-55.93)"/>
      <ellipse class="cls-1" cx="2884.59" cy="1343.39" rx="5.43" ry="6" transform="translate(155.7 2980.08) rotate(-55.93)"/>
      <ellipse class="cls-1" cx="2282.33" cy="1318.58" rx="5.43" ry="6" transform="translate(-88.58 2470.3) rotate(-55.93)"/>
      <ellipse class="cls-1" cx="1818.28" cy="1200.48" rx="5.43" ry="6" transform="translate(-194.81 2033.99) rotate(-55.93)"/>
      <ellipse class="cls-1" cx="1991.19" cy="1219.14" rx="5.43" ry="6" transform="translate(-134.23 2185.42) rotate(-55.93)"/>
      <ellipse class="cls-1" cx="2532.77" cy="2029.45" rx="5.43" ry="6" transform="translate(-567.28 2990.34) rotate(-55.93)"/>
      <ellipse class="cls-1" cx="2705.68" cy="1807.27" rx="5.43" ry="6" transform="translate(-307.21 3035.86) rotate(-55.93)"/>
      <ellipse class="cls-1" cx="2492.87" cy="1737.87" rx="5.43" ry="6" transform="translate(-343.3 2829.07) rotate(-55.93)"/>
      <ellipse class="cls-1" cx="2492.88" cy="1978.71" rx="5.43" ry="6" transform="translate(-542.79 2934.98) rotate(-55.93)"/>
      <ellipse class="cls-1" cx="2039.52" cy="351.55" rx="5.43" ry="6" transform="translate(605.65 1843.95) rotate(-55.93)"/>
      <ellipse class="cls-1" cx="1575.47" cy="233.45" rx="5.43" ry="6" transform="translate(499.41 1407.64) rotate(-55.93)"/>
      <ellipse class="cls-1" cx="1748.39" cy="252.11" rx="5.43" ry="6" transform="translate(559.99 1559.07) rotate(-55.93)"/>
      <ellipse class="cls-1" cx="2289.97" cy="1062.43" rx="5.43" ry="6" transform="translate(126.95 2363.99) rotate(-55.93)"/>
      <ellipse class="cls-1" cx="2462.88" cy="840.24" rx="5.43" ry="6" transform="translate(387.02 2409.51) rotate(-55.93)"/>
      <ellipse class="cls-1" cx="2250.07" cy="770.85" rx="5.43" ry="6" transform="translate(350.93 2202.72) rotate(-55.93)"/>
      <ellipse class="cls-1" cx="1201.55" cy="770.22" rx="5.43" ry="6" transform="translate(-109.62 1333.95) rotate(-55.93)"/>
      <ellipse class="cls-1" cx="1314.43" cy="592.63" rx="5.43" ry="6" transform="translate(87.12 1349.36) rotate(-55.93)"/>
      <ellipse class="cls-1" cx="1487.35" cy="611.28" rx="5.43" ry="6" transform="translate(147.7 1500.79) rotate(-55.93)"/>
      <ellipse class="cls-1" cx="1143.96" cy="379.02" rx="5.43" ry="6" transform="translate(189.09 1114.22) rotate(-55.93)"/>
      <ellipse class="cls-1" cx="1354.5" cy="798.31" rx="5.43" ry="6" transform="translate(-65.63 1472.99) rotate(-55.93)"/>
      <ellipse class="cls-1" cx="2250.07" cy="1011.69" rx="5.43" ry="6" transform="translate(151.44 2308.63) rotate(-55.93)"/>
      <ellipse class="cls-1" cx="1155.48" cy="1328.04" rx="5.43" ry="6" transform="translate(-591.93 1541.08) rotate(-55.93)"/>
      <ellipse class="cls-1" cx="1268.36" cy="1150.45" rx="5.43" ry="6" transform="translate(-395.19 1556.49) rotate(-55.93)"/>
      <ellipse class="cls-1" cx="1644.43" cy="1885.68" rx="5.43" ry="6" transform="translate(-838.82 2191.29) rotate(-55.93)"/>
      <ellipse class="cls-1" cx="1348.34" cy="1647.72" rx="5.43" ry="6" transform="translate(-771.92 1841.4) rotate(-55.93)"/>
      <ellipse class="cls-1" cx="1521.25" cy="1425.53" rx="5.43" ry="6" transform="translate(-511.85 1886.92) rotate(-55.93)"/>
      <ellipse class="cls-1" cx="1308.44" cy="1356.14" rx="5.43" ry="6" transform="translate(-547.94 1680.13) rotate(-55.93)"/>
      <ellipse class="cls-1" cx="1308.44" cy="1596.98" rx="5.43" ry="6" transform="translate(-747.43 1786.04) rotate(-55.93)"/>
      <ellipse class="cls-1" cx="2881.94" cy="354.49" rx="5.43" ry="6" transform="translate(973.65 2543.03) rotate(-55.93)"/>
      <ellipse class="cls-1" cx="3123.98" cy="505.11" rx="5.43" ry="6" transform="translate(955.33 2809.74) rotate(-55.93)"/>
      <ellipse class="cls-1" cx="367.01" cy="2838.37" rx="4.72" ry="5.22"/>
      <ellipse class="cls-1" cx="447.76" cy="3017.61" rx="5.6" ry="6.19"/>
      <ellipse class="cls-1" cx="116.58" cy="1738.17" rx="4.72" ry="5.22"/>
      <ellipse class="cls-1" cx="533.43" cy="2717.75" rx="4.72" ry="5.22"/>
      <ellipse class="cls-1" cx="126.9" cy="2004.44" rx="5.6" ry="6.19"/>
      <ellipse class="cls-1" cx="7.1" cy="2143.76" rx="5.6" ry="6.19"/>
      <ellipse class="cls-1" cx="313.95" cy="2476.58" rx="5.6" ry="6.19"/>
      <ellipse class="cls-1" cx="928.35" cy="1895.31" rx="5.6" ry="6.19"/>
      <ellipse class="cls-1" cx="305.55" cy="2252.12" rx="5.6" ry="6.19"/>
      <ellipse class="cls-1" cx="459.67" cy="2512.96" rx="5.6" ry="6.19"/>
      <ellipse class="cls-1" cx="961.98" cy="3055.54" rx="5.6" ry="6.19"/>
      <ellipse class="cls-1" cx="711.17" cy="1889.12" rx="5.6" ry="6.19"/>
      <ellipse class="cls-1" cx="421.14" cy="1908.47" rx="5.6" ry="6.19"/>
      <ellipse class="cls-1" cx="627.11" cy="2047.79" rx="5.6" ry="6.19"/>
      <ellipse class="cls-1" cx="996.5" cy="3343.14" rx="4.72" ry="5.22"/>
      <ellipse class="cls-1" cx="725.18" cy="3223.5" rx="5.6" ry="6.19"/>
      <ellipse class="cls-1" cx="1006.81" cy="2979.69" rx="5.6" ry="6.19"/>
      <ellipse class="cls-1" cx="716.78" cy="2999.04" rx="5.6" ry="6.19"/>
      <ellipse class="cls-1" cx="922.74" cy="3138.36" rx="5.6" ry="6.19"/>
      <ellipse class="cls-1" cx="1122.41" cy="2636.03" rx="5.6" ry="6.19"/>
      <ellipse class="cls-1" cx="780.53" cy="2776.9" rx="5.6" ry="6.19"/>
      <ellipse class="cls-1" cx="986.5" cy="2916.22" rx="5.6" ry="6.19"/>
      <ellipse class="cls-1" cx="1313.66" cy="2386.8" rx="5.6" ry="6.19"/>
      <ellipse class="cls-1" cx="1481.1" cy="1921.62" rx="5.6" ry="6.19"/>
      <ellipse class="cls-1" cx="1397.03" cy="2080.29" rx="5.6" ry="6.19"/>
      <ellipse class="cls-1" cx="1776.73" cy="3012.19" rx="5.6" ry="6.19"/>
      <ellipse class="cls-1" cx="1486.7" cy="3031.54" rx="5.6" ry="6.19"/>
      <ellipse class="cls-1" cx="1550.45" cy="2809.41" rx="5.6" ry="6.19"/>
      <ellipse class="cls-1" cx="1756.42" cy="2948.73" rx="5.6" ry="6.19"/>
      <ellipse class="cls-1" cx="627.11" cy="1619.76" rx="5.6" ry="6.19"/>
      <ellipse class="cls-1" cx="794.54" cy="1154.59" rx="5.6" ry="6.19"/>
      <ellipse class="cls-1" cx="710.47" cy="1313.26" rx="5.6" ry="6.19"/>
      <ellipse class="cls-1" cx="1090.18" cy="2245.16" rx="5.6" ry="6.19"/>
      <ellipse class="cls-1" cx="800.15" cy="2264.51" rx="5.6" ry="6.19"/>
      <ellipse class="cls-1" cx="863.9" cy="2042.37" rx="5.6" ry="6.19"/>
      <ellipse class="cls-1" cx="1469.89" cy="1145.3" rx="5.6" ry="6.19"/>
      <ellipse class="cls-1" cx="1252.71" cy="1139.11" rx="5.6" ry="6.19"/>
      <ellipse class="cls-1" cx="1168.64" cy="1297.78" rx="5.6" ry="6.19"/>
      <ellipse class="cls-1" cx="1168.64" cy="869.75" rx="5.6" ry="6.19"/>
      <ellipse class="cls-1" cx="1405.43" cy="1292.36" rx="5.6" ry="6.19"/>
      <ellipse class="cls-1" cx="1069.86" cy="2181.69" rx="5.6" ry="6.19"/>
      <ellipse class="cls-1" cx="1973.59" cy="1428.58" rx="5.6" ry="6.19"/>
      <ellipse class="cls-1" cx="1756.42" cy="1422.39" rx="5.6" ry="6.19"/>
      <ellipse class="cls-1" cx="2167.65" cy="2169.3" rx="5.6" ry="6.19"/>
      <ellipse class="cls-1" cx="2135.42" cy="1778.43" rx="5.6" ry="6.19"/>
      <ellipse class="cls-1" cx="1845.39" cy="1797.78" rx="5.6" ry="6.19"/>
      <ellipse class="cls-1" cx="1909.14" cy="1575.64" rx="5.6" ry="6.19"/>
      <ellipse class="cls-1" cx="2115.11" cy="1714.96" rx="5.6" ry="6.19"/>
      <ellipse class="cls-1" cx="142.31" cy="2341.91" rx="5.6" ry="6.19"/>
      <ellipse class="cls-1" cx="131.1" cy="2636.03" rx="5.6" ry="6.19"/>
      <ellipse class="cls-1" cx="3122.51" cy="2607.17" rx="5.05" ry="4.57" transform="translate(-924.61 2197.06) rotate(-34.07)"/>
      <ellipse class="cls-1" cx="3222.49" cy="2445.12" rx="6" ry="5.43" transform="translate(-816.66 2225.26) rotate(-34.07)"/>
      <ellipse class="cls-1" cx="2375.76" cy="3405.1" rx="5.05" ry="4.57" transform="translate(-1499.88 1915.68) rotate(-34.07)"/>
      <ellipse class="cls-1" cx="2935.44" cy="2539.11" rx="5.05" ry="4.57" transform="translate(-918.6 2080.57) rotate(-34.07)"/>
      <ellipse class="cls-1" cx="2583.78" cy="3252.32" rx="6" ry="5.43" transform="translate(-1378.57 2006) rotate(-34.07)"/>
      <ellipse class="cls-1" cx="2760.56" cy="3272.83" rx="6" ry="5.43" transform="translate(-1359.71 2108.56) rotate(-34.07)"/>
      <ellipse class="cls-1" cx="2861.06" cy="2846.06" rx="6" ry="5.43" transform="translate(-1103.34 2091.59) rotate(-34.07)"/>
      <ellipse class="cls-1" cx="2061.32" cy="2668.58" rx="6" ry="5.43" transform="translate(-1141.21 1613.06) rotate(-34.07)"/>
      <ellipse class="cls-1" cx="2685.54" cy="2974.6" rx="6" ry="5.43" transform="translate(-1205.5 2015.33) rotate(-34.07)"/>
      <ellipse class="cls-1" cx="2811.17" cy="2709.41" rx="6" ry="5.43" transform="translate(-1035.35 2040.18) rotate(-34.07)"/>
      <ellipse class="cls-1" cx="2973.88" cy="2012.01" rx="6" ry="5.43" transform="translate(-616.68 2011.61) rotate(-34.07)"/>
      <ellipse class="cls-1" cx="2174.21" cy="2846.17" rx="6" ry="5.43" transform="translate(-1221.33 1706.79) rotate(-34.07)"/>
      <ellipse class="cls-1" cx="2347.12" cy="3068.35" rx="6" ry="5.43" transform="translate(-1316.13 1841.81) rotate(-34.07)"/>
      <ellipse class="cls-1" cx="2347.12" cy="2827.51" rx="6" ry="5.43" transform="translate(-1181.19 1800.47) rotate(-34.07)"/>
      <ellipse class="cls-1" cx="3185.88" cy="1828.24" rx="5.05" ry="4.57" transform="translate(-477.32 2098.83) rotate(-34.07)"/>
      <ellipse class="cls-1" cx="3237.12" cy="2110.83" rx="6" ry="5.43" transform="translate(-626.86 2176.06) rotate(-34.07)"/>
      <ellipse class="cls-1" cx="2888.7" cy="2017.2" rx="6" ry="5.43" transform="translate(-634.21 1964.77) rotate(-34.07)"/>
      <ellipse class="cls-1" cx="3061.61" cy="2239.38" rx="6" ry="5.43" transform="translate(-729.01 2099.8) rotate(-34.07)"/>
      <ellipse class="cls-1" cx="3061.61" cy="1998.54" rx="6" ry="5.43" transform="translate(-594.07 2058.45) rotate(-34.07)"/>
      <ellipse class="cls-1" cx="2550.27" cy="2110.95" rx="6" ry="5.43" transform="translate(-744.84 1791.26) rotate(-34.07)"/>
      <ellipse class="cls-1" cx="2848.8" cy="2308.78" rx="6" ry="5.43" transform="translate(-804.43 1992.48) rotate(-34.07)"/>
      <ellipse class="cls-1" cx="2848.8" cy="2067.94" rx="6" ry="5.43" transform="translate(-669.49 1951.13) rotate(-34.07)"/>
      <ellipse class="cls-1" cx="2246.54" cy="2092.75" rx="6" ry="5.43" transform="translate(-786.8 1617.97) rotate(-34.07)"/>
      <ellipse class="cls-1" cx="1782.49" cy="2210.85" rx="6" ry="5.43" transform="translate(-932.64 1378.25) rotate(-34.07)"/>
      <ellipse class="cls-1" cx="1955.4" cy="2192.19" rx="6" ry="5.43" transform="translate(-892.5 1471.92) rotate(-34.07)"/>
      <ellipse class="cls-1" cx="2496.98" cy="1381.88" rx="6" ry="5.43" transform="translate(-345.52 1636.23) rotate(-34.07)"/>
      <ellipse class="cls-1" cx="2669.89" cy="1604.06" rx="6" ry="5.43" transform="translate(-440.31 1771.25) rotate(-34.07)"/>
      <ellipse class="cls-1" cx="2457.09" cy="1673.46" rx="6" ry="5.43" transform="translate(-515.73 1663.94) rotate(-34.07)"/>
      <ellipse class="cls-1" cx="2457.09" cy="1432.62" rx="6" ry="5.43" transform="translate(-380.8 1622.59) rotate(-34.07)"/>
      <ellipse class="cls-1" cx="2003.73" cy="3059.78" rx="6" ry="5.43" transform="translate(-1370.28 1647.96) rotate(-34.07)"/>
      <ellipse class="cls-1" cx="1539.68" cy="3177.88" rx="6" ry="5.43" transform="translate(-1516.12 1408.24) rotate(-34.07)"/>
      <ellipse class="cls-1" cx="1712.6" cy="3159.22" rx="6" ry="5.43" transform="translate(-1475.97 1501.92) rotate(-34.07)"/>
      <ellipse class="cls-1" cx="2254.18" cy="2348.9" rx="6" ry="5.43" transform="translate(-929 1666.22) rotate(-34.07)"/>
      <ellipse class="cls-1" cx="2427.09" cy="2571.09" rx="6" ry="5.43" transform="translate(-1023.79 1801.24) rotate(-34.07)"/>
      <ellipse class="cls-1" cx="2214.28" cy="2640.48" rx="6" ry="5.43" transform="translate(-1099.21 1693.93) rotate(-34.07)"/>
      <ellipse class="cls-1" cx="1165.76" cy="2641.11" rx="6" ry="5.43" transform="translate(-1279.58 1106.59) rotate(-34.07)"/>
      <ellipse class="cls-1" cx="1278.64" cy="2818.71" rx="6" ry="5.43" transform="translate(-1359.7 1200.32) rotate(-34.07)"/>
      <ellipse class="cls-1" cx="1451.56" cy="2800.05" rx="6" ry="5.43" transform="translate(-1319.56 1294) rotate(-34.07)"/>
      <ellipse class="cls-1" cx="1108.17" cy="3032.31" rx="6" ry="5.43" transform="translate(-1508.65 1141.49) rotate(-34.07)"/>
      <ellipse class="cls-1" cx="1318.72" cy="2613.02" rx="6" ry="5.43" transform="translate(-1237.58 1187.46) rotate(-34.07)"/>
      <ellipse class="cls-1" cx="2214.28" cy="2399.64" rx="6" ry="5.43" transform="translate(-964.28 1652.58) rotate(-34.07)"/>
      <ellipse class="cls-1" cx="1119.69" cy="2083.29" rx="6" ry="5.43" transform="translate(-974.96 985) rotate(-34.07)"/>
      <ellipse class="cls-1" cx="1232.58" cy="2260.88" rx="6" ry="5.43" transform="translate(-1055.08 1078.74) rotate(-34.07)"/>
      <ellipse class="cls-1" cx="1608.64" cy="1525.66" rx="6" ry="5.43" transform="translate(-578.59 1163.21) rotate(-34.07)"/>
      <ellipse class="cls-1" cx="1312.55" cy="1763.61" rx="6" ry="5.43" transform="translate(-762.75 1038.17) rotate(-34.07)"/>
      <ellipse class="cls-1" cx="1485.46" cy="1985.8" rx="6" ry="5.43" transform="translate(-857.54 1173.19) rotate(-34.07)"/>
      <ellipse class="cls-1" cx="1272.65" cy="2055.19" rx="6" ry="5.43" transform="translate(-932.96 1065.88) rotate(-34.07)"/>
      <ellipse class="cls-1" cx="1272.65" cy="1814.35" rx="6" ry="5.43" transform="translate(-798.02 1024.53) rotate(-34.07)"/>
      <ellipse class="cls-1" cx="2846.15" cy="3056.84" rx="6" ry="5.43" transform="translate(-1224 2119.43) rotate(-34.07)"/>
      <ellipse class="cls-1" cx="3088.19" cy="2906.22" rx="6" ry="5.43" transform="translate(-1098.06 2229.18) rotate(-34.07)"/>
    </g>
  </g>
</svg>