<?xml version="1.0" encoding="UTF-8"?>
<svg id="Layer_2" data-name="Layer 2" xmlns="http://www.w3.org/2000/svg" viewBox="0 0 3277.24 3408.33">
  <defs>
    <style>
      .cls-1, .cls-2 {
        fill: #fff;
      }

      .cls-2 {
        opacity: .6;
      }
    </style>
  </defs>
  <g id="Layer_1-2" data-name="Layer 1">
    <g>
      <g>
        <ellipse class="cls-1" cx="401.3" cy="571.46" rx="4.72" ry="5.22"/>
        <ellipse class="cls-1" cx="482.05" cy="392.22" rx="5.6" ry="6.19"/>
        <ellipse class="cls-2" cx="150.87" cy="1671.66" rx="4.72" ry="5.22"/>
        <ellipse class="cls-1" cx="567.72" cy="692.08" rx="4.72" ry="5.22"/>
        <ellipse class="cls-2" cx="161.19" cy="1405.39" rx="5.6" ry="6.19"/>
        <ellipse class="cls-2" cx="41.39" cy="1266.07" rx="5.6" ry="6.19"/>
        <ellipse class="cls-1" cx="348.24" cy="933.25" rx="5.6" ry="6.19"/>
        <ellipse class="cls-1" cx="962.64" cy="1514.52" rx="5.6" ry="6.19"/>
        <ellipse class="cls-1" cx="339.84" cy="1157.71" rx="5.6" ry="6.19"/>
        <ellipse class="cls-1" cx="493.96" cy="896.87" rx="5.6" ry="6.19"/>
        <ellipse class="cls-2" cx="996.27" cy="354.29" rx="5.6" ry="6.19"/>
        <ellipse class="cls-1" cx="745.46" cy="1520.72" rx="5.6" ry="6.19"/>
        <ellipse class="cls-2" cx="455.43" cy="1501.36" rx="5.6" ry="6.19"/>
        <ellipse class="cls-2" cx="661.4" cy="1362.04" rx="5.6" ry="6.19"/>
        <ellipse class="cls-1" cx="1030.79" cy="66.69" rx="4.72" ry="5.22"/>
        <ellipse class="cls-1" cx="759.47" cy="186.33" rx="5.6" ry="6.19"/>
        <ellipse class="cls-1" cx="1041.1" cy="430.14" rx="5.6" ry="6.19"/>
        <ellipse class="cls-1" cx="751.07" cy="410.79" rx="5.6" ry="6.19"/>
        <ellipse class="cls-1" cx="957.03" cy="271.47" rx="5.6" ry="6.19"/>
        <ellipse class="cls-1" cx="1156.7" cy="773.8" rx="5.6" ry="6.19"/>
        <ellipse class="cls-2" cx="814.82" cy="632.93" rx="5.6" ry="6.19"/>
        <ellipse class="cls-2" cx="1020.79" cy="493.61" rx="5.6" ry="6.19"/>
        <ellipse class="cls-1" cx="1347.95" cy="1023.03" rx="5.6" ry="6.19"/>
        <ellipse class="cls-1" cx="1515.39" cy="1488.21" rx="5.6" ry="6.19"/>
        <ellipse class="cls-2" cx="1431.32" cy="1329.54" rx="5.6" ry="6.19"/>
        <ellipse class="cls-1" cx="1811.02" cy="397.64" rx="5.6" ry="6.19"/>
        <ellipse class="cls-1" cx="1520.99" cy="378.29" rx="5.6" ry="6.19"/>
        <ellipse class="cls-2" cx="1584.74" cy="600.43" rx="5.6" ry="6.19"/>
        <ellipse class="cls-2" cx="1790.71" cy="461.1" rx="5.6" ry="6.19"/>
        <ellipse class="cls-1" cx="661.4" cy="1790.07" rx="5.6" ry="6.19"/>
        <ellipse class="cls-1" cx="828.83" cy="2255.24" rx="5.6" ry="6.19"/>
        <ellipse class="cls-2" cx="744.76" cy="2096.57" rx="5.6" ry="6.19"/>
        <ellipse class="cls-1" cx="1124.47" cy="1164.67" rx="5.6" ry="6.19"/>
        <ellipse class="cls-1" cx="834.43" cy="1145.32" rx="5.6" ry="6.19"/>
        <ellipse class="cls-2" cx="898.19" cy="1367.46" rx="5.6" ry="6.19"/>
        <ellipse class="cls-1" cx="1504.18" cy="2264.53" rx="5.6" ry="6.19"/>
        <ellipse class="cls-1" cx="1287" cy="2270.72" rx="5.6" ry="6.19"/>
        <ellipse class="cls-2" cx="1202.93" cy="2112.05" rx="5.6" ry="6.19"/>
        <ellipse class="cls-1" cx="1202.93" cy="2540.08" rx="5.6" ry="6.19"/>
        <ellipse class="cls-2" cx="1439.72" cy="2117.47" rx="5.6" ry="6.19"/>
        <ellipse class="cls-2" cx="1104.15" cy="1228.14" rx="5.6" ry="6.19"/>
        <ellipse class="cls-1" cx="2007.88" cy="1981.25" rx="5.6" ry="6.19"/>
        <ellipse class="cls-1" cx="1790.71" cy="1987.44" rx="5.6" ry="6.19"/>
        <ellipse class="cls-1" cx="2201.94" cy="1240.53" rx="5.6" ry="6.19"/>
        <ellipse class="cls-1" cx="2169.71" cy="1631.4" rx="5.6" ry="6.19"/>
        <ellipse class="cls-1" cx="1879.68" cy="1612.05" rx="5.6" ry="6.19"/>
        <ellipse class="cls-2" cx="1943.43" cy="1834.19" rx="5.6" ry="6.19"/>
        <ellipse class="cls-2" cx="2149.4" cy="1694.87" rx="5.6" ry="6.19"/>
        <ellipse class="cls-1" cx="176.6" cy="1067.92" rx="5.6" ry="6.19"/>
        <ellipse class="cls-1" cx="165.39" cy="773.8" rx="5.6" ry="6.19"/>
      </g>
      <g>
        <ellipse class="cls-1" cx="3156.8" cy="802.66" rx="4.57" ry="5.05" transform="translate(723.29 2967.77) rotate(-55.93)"/>
        <ellipse class="cls-1" cx="3256.78" cy="964.71" rx="5.43" ry="6" transform="translate(633.03 3121.84) rotate(-55.93)"/>
        <ellipse class="cls-2" cx="2410.05" cy="4.73" rx="4.57" ry="5.05" transform="translate(1055.86 1998.35) rotate(-55.93)"/>
        <ellipse class="cls-1" cx="2969.72" cy="870.72" rx="4.57" ry="5.05" transform="translate(584.66 2842.74) rotate(-55.93)"/>
        <ellipse class="cls-2" cx="2618.07" cy="157.51" rx="5.43" ry="6" transform="translate(1020.79 2237.84) rotate(-55.93)"/>
        <ellipse class="cls-2" cx="2794.85" cy="137" rx="5.43" ry="6" transform="translate(1115.51 2375.25) rotate(-55.93)"/>
        <ellipse class="cls-1" cx="2895.35" cy="563.77" rx="5.43" ry="6" transform="translate(806.2 2646.16) rotate(-55.93)"/>
        <ellipse class="cls-1" cx="2095.61" cy="741.25" rx="5.43" ry="6" transform="translate(307.52 2061.77) rotate(-55.93)"/>
        <ellipse class="cls-1" cx="2719.83" cy="435.23" rx="5.43" ry="6" transform="translate(835.49 2444.25) rotate(-55.93)"/>
        <ellipse class="cls-1" cx="2845.46" cy="700.42" rx="5.43" ry="6" transform="translate(671.07 2664.92) rotate(-55.93)"/>
        <ellipse class="cls-2" cx="3008.17" cy="1397.82" rx="5.43" ry="6" transform="translate(164.96 3106.37) rotate(-55.93)"/>
        <ellipse class="cls-1" cx="2208.5" cy="563.66" rx="5.43" ry="6" transform="translate(504.26 2077.18) rotate(-55.93)"/>
        <ellipse class="cls-2" cx="2381.4" cy="341.48" rx="5.43" ry="6" transform="translate(764.33 2122.7) rotate(-55.93)"/>
        <ellipse class="cls-2" cx="2381.41" cy="582.32" rx="5.43" ry="6" transform="translate(564.84 2228.61) rotate(-55.93)"/>
        <ellipse class="cls-1" cx="3220.17" cy="1581.59" rx="4.57" ry="5.05" transform="translate(105.96 3362.78) rotate(-55.93)"/>
        <ellipse class="cls-1" cx="3271.41" cy="1299" rx="5.43" ry="6" transform="translate(362.57 3280.96) rotate(-55.93)"/>
        <ellipse class="cls-1" cx="2922.99" cy="1392.63" rx="5.43" ry="6" transform="translate(131.8 3033.53) rotate(-55.93)"/>
        <ellipse class="cls-1" cx="3095.9" cy="1170.45" rx="5.43" ry="6" transform="translate(391.87 3079.05) rotate(-55.93)"/>
        <ellipse class="cls-1" cx="3095.9" cy="1411.29" rx="5.43" ry="6" transform="translate(192.38 3184.96) rotate(-55.93)"/>
        <ellipse class="cls-1" cx="2584.56" cy="1298.89" rx="5.43" ry="6" transform="translate(60.63 2711.98) rotate(-55.93)"/>
        <ellipse class="cls-2" cx="2883.09" cy="1101.05" rx="5.43" ry="6" transform="translate(355.77 2872.27) rotate(-55.93)"/>
        <ellipse class="cls-2" cx="2883.09" cy="1341.89" rx="5.43" ry="6" transform="translate(156.28 2978.17) rotate(-55.93)"/>
        <ellipse class="cls-1" cx="2280.83" cy="1317.08" rx="5.43" ry="6" transform="translate(-88 2468.4) rotate(-55.93)"/>
        <ellipse class="cls-1" cx="1816.78" cy="1198.98" rx="5.43" ry="6" transform="translate(-194.23 2032.09) rotate(-55.93)"/>
        <ellipse class="cls-2" cx="1989.69" cy="1217.64" rx="5.43" ry="6" transform="translate(-133.65 2183.52) rotate(-55.93)"/>
        <ellipse class="cls-1" cx="2531.27" cy="2027.95" rx="5.43" ry="6" transform="translate(-566.69 2988.44) rotate(-55.93)"/>
        <ellipse class="cls-1" cx="2704.18" cy="1805.77" rx="5.43" ry="6" transform="translate(-306.62 3033.96) rotate(-55.93)"/>
        <ellipse class="cls-2" cx="2491.37" cy="1736.37" rx="5.43" ry="6" transform="translate(-342.72 2827.17) rotate(-55.93)"/>
        <ellipse class="cls-2" cx="2491.38" cy="1977.21" rx="5.43" ry="6" transform="translate(-542.21 2933.08) rotate(-55.93)"/>
        <ellipse class="cls-1" cx="2038.02" cy="350.05" rx="5.43" ry="6" transform="translate(606.23 1842.05) rotate(-55.93)"/>
        <ellipse class="cls-1" cx="1573.97" cy="231.95" rx="5.43" ry="6" transform="translate(500 1405.74) rotate(-55.93)"/>
        <ellipse class="cls-2" cx="1746.89" cy="250.61" rx="5.43" ry="6" transform="translate(560.58 1557.17) rotate(-55.93)"/>
        <ellipse class="cls-1" cx="2288.47" cy="1060.93" rx="5.43" ry="6" transform="translate(127.53 2362.09) rotate(-55.93)"/>
        <ellipse class="cls-1" cx="2461.38" cy="838.74" rx="5.43" ry="6" transform="translate(387.6 2407.61) rotate(-55.93)"/>
        <ellipse class="cls-2" cx="2248.57" cy="769.35" rx="5.43" ry="6" transform="translate(351.51 2200.82) rotate(-55.93)"/>
        <ellipse class="cls-1" cx="1200.05" cy="768.72" rx="5.43" ry="6" transform="translate(-109.04 1332.04) rotate(-55.93)"/>
        <ellipse class="cls-1" cx="1312.93" cy="591.13" rx="5.43" ry="6" transform="translate(87.7 1347.45) rotate(-55.93)"/>
        <ellipse class="cls-2" cx="1485.85" cy="609.78" rx="5.43" ry="6" transform="translate(148.28 1498.88) rotate(-55.93)"/>
        <ellipse class="cls-1" cx="1142.46" cy="377.52" rx="5.43" ry="6" transform="translate(189.67 1112.32) rotate(-55.93)"/>
        <ellipse class="cls-2" cx="1353" cy="796.81" rx="5.43" ry="6" transform="translate(-65.05 1471.09) rotate(-55.93)"/>
        <ellipse class="cls-2" cx="2248.57" cy="1010.19" rx="5.43" ry="6" transform="translate(152.02 2306.73) rotate(-55.93)"/>
        <ellipse class="cls-1" cx="1153.98" cy="1326.54" rx="5.43" ry="6" transform="translate(-591.35 1539.18) rotate(-55.93)"/>
        <ellipse class="cls-1" cx="1266.86" cy="1148.95" rx="5.43" ry="6" transform="translate(-394.61 1554.59) rotate(-55.93)"/>
        <ellipse class="cls-1" cx="1642.93" cy="1884.18" rx="5.43" ry="6" transform="translate(-838.24 2189.39) rotate(-55.93)"/>
        <ellipse class="cls-1" cx="1346.84" cy="1646.22" rx="5.43" ry="6" transform="translate(-771.33 1839.49) rotate(-55.93)"/>
        <ellipse class="cls-1" cx="1519.75" cy="1424.03" rx="5.43" ry="6" transform="translate(-511.26 1885.02) rotate(-55.93)"/>
        <ellipse class="cls-2" cx="1306.94" cy="1354.64" rx="5.43" ry="6" transform="translate(-547.36 1678.23) rotate(-55.93)"/>
        <ellipse class="cls-2" cx="1306.94" cy="1595.48" rx="5.43" ry="6" transform="translate(-746.85 1784.14) rotate(-55.93)"/>
        <ellipse class="cls-1" cx="2880.44" cy="352.99" rx="5.43" ry="6" transform="translate(974.23 2541.13) rotate(-55.93)"/>
        <ellipse class="cls-1" cx="3122.48" cy="503.61" rx="5.43" ry="6" transform="translate(955.91 2807.84) rotate(-55.93)"/>
      </g>
      <g>
        <ellipse class="cls-1" cx="365.51" cy="2836.87" rx="4.72" ry="5.22"/>
        <ellipse class="cls-1" cx="446.26" cy="3016.11" rx="5.6" ry="6.19"/>
        <ellipse class="cls-2" cx="115.08" cy="1736.67" rx="4.72" ry="5.22"/>
        <ellipse class="cls-1" cx="531.93" cy="2716.25" rx="4.72" ry="5.22"/>
        <ellipse class="cls-2" cx="125.4" cy="2002.94" rx="5.6" ry="6.19"/>
        <ellipse class="cls-2" cx="5.6" cy="2142.26" rx="5.6" ry="6.19"/>
        <ellipse class="cls-1" cx="312.45" cy="2475.08" rx="5.6" ry="6.19"/>
        <ellipse class="cls-1" cx="926.85" cy="1893.81" rx="5.6" ry="6.19"/>
        <ellipse class="cls-1" cx="304.05" cy="2250.62" rx="5.6" ry="6.19"/>
        <ellipse class="cls-1" cx="458.17" cy="2511.46" rx="5.6" ry="6.19"/>
        <ellipse class="cls-2" cx="960.48" cy="3054.04" rx="5.6" ry="6.19"/>
        <ellipse class="cls-1" cx="709.67" cy="1887.62" rx="5.6" ry="6.19"/>
        <ellipse class="cls-2" cx="419.64" cy="1906.97" rx="5.6" ry="6.19"/>
        <ellipse class="cls-2" cx="625.61" cy="2046.29" rx="5.6" ry="6.19"/>
        <ellipse class="cls-1" cx="995" cy="3341.64" rx="4.72" ry="5.22"/>
        <ellipse class="cls-1" cx="723.68" cy="3222" rx="5.6" ry="6.19"/>
        <ellipse class="cls-1" cx="1005.31" cy="2978.19" rx="5.6" ry="6.19"/>
        <ellipse class="cls-1" cx="715.28" cy="2997.54" rx="5.6" ry="6.19"/>
        <ellipse class="cls-1" cx="921.24" cy="3136.86" rx="5.6" ry="6.19"/>
        <ellipse class="cls-1" cx="1120.91" cy="2634.53" rx="5.6" ry="6.19"/>
        <ellipse class="cls-2" cx="779.03" cy="2775.4" rx="5.6" ry="6.19"/>
        <ellipse class="cls-2" cx="985" cy="2914.72" rx="5.6" ry="6.19"/>
        <ellipse class="cls-1" cx="1312.16" cy="2385.3" rx="5.6" ry="6.19"/>
        <ellipse class="cls-1" cx="1479.6" cy="1920.12" rx="5.6" ry="6.19"/>
        <ellipse class="cls-2" cx="1395.53" cy="2078.79" rx="5.6" ry="6.19"/>
        <ellipse class="cls-1" cx="1775.23" cy="3010.69" rx="5.6" ry="6.19"/>
        <ellipse class="cls-1" cx="1485.2" cy="3030.04" rx="5.6" ry="6.19"/>
        <ellipse class="cls-2" cx="1548.95" cy="2807.91" rx="5.6" ry="6.19"/>
        <ellipse class="cls-2" cx="1754.92" cy="2947.23" rx="5.6" ry="6.19"/>
        <ellipse class="cls-1" cx="625.61" cy="1618.26" rx="5.6" ry="6.19"/>
        <ellipse class="cls-1" cx="793.04" cy="1153.09" rx="5.6" ry="6.19"/>
        <ellipse class="cls-2" cx="708.97" cy="1311.76" rx="5.6" ry="6.19"/>
        <ellipse class="cls-1" cx="1088.68" cy="2243.66" rx="5.6" ry="6.19"/>
        <ellipse class="cls-1" cx="798.65" cy="2263.01" rx="5.6" ry="6.19"/>
        <ellipse class="cls-2" cx="862.4" cy="2040.87" rx="5.6" ry="6.19"/>
        <ellipse class="cls-1" cx="1468.39" cy="1143.8" rx="5.6" ry="6.19"/>
        <ellipse class="cls-1" cx="1251.21" cy="1137.61" rx="5.6" ry="6.19"/>
        <ellipse class="cls-2" cx="1167.14" cy="1296.28" rx="5.6" ry="6.19"/>
        <ellipse class="cls-1" cx="1167.14" cy="868.25" rx="5.6" ry="6.19"/>
        <ellipse class="cls-2" cx="1403.93" cy="1290.86" rx="5.6" ry="6.19"/>
        <ellipse class="cls-2" cx="1068.36" cy="2180.19" rx="5.6" ry="6.19"/>
        <ellipse class="cls-1" cx="1972.09" cy="1427.08" rx="5.6" ry="6.19"/>
        <ellipse class="cls-1" cx="1754.92" cy="1420.89" rx="5.6" ry="6.19"/>
        <ellipse class="cls-1" cx="2166.15" cy="2167.8" rx="5.6" ry="6.19"/>
        <ellipse class="cls-1" cx="2133.92" cy="1776.93" rx="5.6" ry="6.19"/>
        <ellipse class="cls-1" cx="1843.89" cy="1796.28" rx="5.6" ry="6.19"/>
        <ellipse class="cls-2" cx="1907.64" cy="1574.14" rx="5.6" ry="6.19"/>
        <ellipse class="cls-2" cx="2113.61" cy="1713.46" rx="5.6" ry="6.19"/>
        <ellipse class="cls-1" cx="140.81" cy="2340.41" rx="5.6" ry="6.19"/>
        <ellipse class="cls-1" cx="129.6" cy="2634.53" rx="5.6" ry="6.19"/>
      </g>
      <g>
        <ellipse class="cls-1" cx="3121.01" cy="2605.67" rx="5.05" ry="4.57" transform="translate(-924.03 2195.96) rotate(-34.07)"/>
        <ellipse class="cls-1" cx="3220.99" cy="2443.62" rx="6" ry="5.43" transform="translate(-816.07 2224.16) rotate(-34.07)"/>
        <ellipse class="cls-2" cx="2374.26" cy="3403.6" rx="5.05" ry="4.57" transform="translate(-1499.3 1914.58) rotate(-34.07)"/>
        <ellipse class="cls-1" cx="2933.94" cy="2537.61" rx="5.05" ry="4.57" transform="translate(-918.02 2079.47) rotate(-34.07)"/>
        <ellipse class="cls-2" cx="2582.28" cy="3250.82" rx="6" ry="5.43" transform="translate(-1377.98 2004.9) rotate(-34.07)"/>
        <ellipse class="cls-2" cx="2759.06" cy="3271.33" rx="6" ry="5.43" transform="translate(-1359.12 2107.46) rotate(-34.07)"/>
        <ellipse class="cls-1" cx="2859.56" cy="2844.56" rx="6" ry="5.43" transform="translate(-1102.76 2090.5) rotate(-34.07)"/>
        <ellipse class="cls-1" cx="2059.82" cy="2667.08" rx="6" ry="5.43" transform="translate(-1140.63 1611.96) rotate(-34.07)"/>
        <ellipse class="cls-1" cx="2684.04" cy="2973.1" rx="6" ry="5.43" transform="translate(-1204.91 2014.23) rotate(-34.07)"/>
        <ellipse class="cls-1" cx="2809.67" cy="2707.91" rx="6" ry="5.43" transform="translate(-1034.77 2039.08) rotate(-34.07)"/>
        <ellipse class="cls-2" cx="2972.38" cy="2010.51" rx="6" ry="5.43" transform="translate(-616.1 2010.51) rotate(-34.07)"/>
        <ellipse class="cls-1" cx="2172.71" cy="2844.67" rx="6" ry="5.43" transform="translate(-1220.75 1705.69) rotate(-34.07)"/>
        <ellipse class="cls-2" cx="2345.62" cy="3066.85" rx="6" ry="5.43" transform="translate(-1315.54 1840.72) rotate(-34.07)"/>
        <ellipse class="cls-2" cx="2345.62" cy="2826.01" rx="6" ry="5.43" transform="translate(-1180.61 1799.37) rotate(-34.07)"/>
        <ellipse class="cls-1" cx="3184.38" cy="1826.74" rx="5.05" ry="4.57" transform="translate(-476.74 2097.73) rotate(-34.07)"/>
        <ellipse class="cls-1" cx="3235.62" cy="2109.33" rx="6" ry="5.43" transform="translate(-626.27 2174.96) rotate(-34.07)"/>
        <ellipse class="cls-1" cx="2887.2" cy="2015.7" rx="6" ry="5.43" transform="translate(-633.63 1963.68) rotate(-34.07)"/>
        <ellipse class="cls-1" cx="3060.11" cy="2237.88" rx="6" ry="5.43" transform="translate(-728.43 2098.7) rotate(-34.07)"/>
        <ellipse class="cls-1" cx="3060.11" cy="1997.04" rx="6" ry="5.43" transform="translate(-593.49 2057.35) rotate(-34.07)"/>
        <ellipse class="cls-1" cx="2548.77" cy="2109.45" rx="6" ry="5.43" transform="translate(-744.26 1790.16) rotate(-34.07)"/>
        <ellipse class="cls-2" cx="2847.3" cy="2307.28" rx="6" ry="5.43" transform="translate(-803.84 1991.38) rotate(-34.07)"/>
        <ellipse class="cls-2" cx="2847.3" cy="2066.44" rx="6" ry="5.43" transform="translate(-668.91 1950.04) rotate(-34.07)"/>
        <ellipse class="cls-1" cx="2245.04" cy="2091.25" rx="6" ry="5.43" transform="translate(-786.21 1616.87) rotate(-34.07)"/>
        <ellipse class="cls-1" cx="1780.99" cy="2209.35" rx="6" ry="5.43" transform="translate(-932.05 1377.15) rotate(-34.07)"/>
        <ellipse class="cls-2" cx="1953.9" cy="2190.69" rx="6" ry="5.43" transform="translate(-891.91 1470.83) rotate(-34.07)"/>
        <ellipse class="cls-1" cx="2495.48" cy="1380.38" rx="6" ry="5.43" transform="translate(-344.94 1635.13) rotate(-34.07)"/>
        <ellipse class="cls-1" cx="2668.39" cy="1602.56" rx="6" ry="5.43" transform="translate(-439.73 1770.16) rotate(-34.07)"/>
        <ellipse class="cls-2" cx="2455.59" cy="1671.96" rx="6" ry="5.43" transform="translate(-515.15 1662.84) rotate(-34.07)"/>
        <ellipse class="cls-2" cx="2455.59" cy="1431.12" rx="6" ry="5.43" transform="translate(-380.21 1621.49) rotate(-34.07)"/>
        <ellipse class="cls-1" cx="2002.23" cy="3058.28" rx="6" ry="5.43" transform="translate(-1369.69 1646.86) rotate(-34.07)"/>
        <ellipse class="cls-1" cx="1538.18" cy="3176.38" rx="6" ry="5.43" transform="translate(-1515.53 1407.14) rotate(-34.07)"/>
        <ellipse class="cls-2" cx="1711.1" cy="3157.72" rx="6" ry="5.43" transform="translate(-1475.39 1500.82) rotate(-34.07)"/>
        <ellipse class="cls-1" cx="2252.68" cy="2347.4" rx="6" ry="5.43" transform="translate(-928.42 1665.12) rotate(-34.07)"/>
        <ellipse class="cls-1" cx="2425.59" cy="2569.59" rx="6" ry="5.43" transform="translate(-1023.21 1800.15) rotate(-34.07)"/>
        <ellipse class="cls-2" cx="2212.78" cy="2638.98" rx="6" ry="5.43" transform="translate(-1098.63 1692.83) rotate(-34.07)"/>
        <ellipse class="cls-1" cx="1164.26" cy="2639.61" rx="6" ry="5.43" transform="translate(-1279 1105.49) rotate(-34.07)"/>
        <ellipse class="cls-1" cx="1277.14" cy="2817.21" rx="6" ry="5.43" transform="translate(-1359.12 1199.22) rotate(-34.07)"/>
        <ellipse class="cls-2" cx="1450.06" cy="2798.55" rx="6" ry="5.43" transform="translate(-1318.98 1292.9) rotate(-34.07)"/>
        <ellipse class="cls-1" cx="1106.67" cy="3030.81" rx="6" ry="5.43" transform="translate(-1508.06 1140.39) rotate(-34.07)"/>
        <ellipse class="cls-2" cx="1317.22" cy="2611.52" rx="6" ry="5.43" transform="translate(-1237 1186.36) rotate(-34.07)"/>
        <ellipse class="cls-2" cx="2212.78" cy="2398.14" rx="6" ry="5.43" transform="translate(-963.69 1651.48) rotate(-34.07)"/>
        <ellipse class="cls-1" cx="1118.19" cy="2081.79" rx="6" ry="5.43" transform="translate(-974.38 983.91) rotate(-34.07)"/>
        <ellipse class="cls-1" cx="1231.08" cy="2259.38" rx="6" ry="5.43" transform="translate(-1054.5 1077.64) rotate(-34.07)"/>
        <ellipse class="cls-1" cx="1607.14" cy="1524.16" rx="6" ry="5.43" transform="translate(-578.01 1162.11) rotate(-34.07)"/>
        <ellipse class="cls-1" cx="1311.05" cy="1762.11" rx="6" ry="5.43" transform="translate(-762.16 1037.07) rotate(-34.07)"/>
        <ellipse class="cls-1" cx="1483.96" cy="1984.3" rx="6" ry="5.43" transform="translate(-856.96 1172.09) rotate(-34.07)"/>
        <ellipse class="cls-2" cx="1271.15" cy="2053.69" rx="6" ry="5.43" transform="translate(-932.38 1064.78) rotate(-34.07)"/>
        <ellipse class="cls-2" cx="1271.15" cy="1812.85" rx="6" ry="5.43" transform="translate(-797.44 1023.43) rotate(-34.07)"/>
        <ellipse class="cls-1" cx="2844.65" cy="3055.34" rx="6" ry="5.43" transform="translate(-1223.41 2118.33) rotate(-34.07)"/>
        <ellipse class="cls-1" cx="3086.69" cy="2904.72" rx="6" ry="5.43" transform="translate(-1097.47 2228.08) rotate(-34.07)"/>
      </g>
    </g>
  </g>
</svg>