<?xml version="1.0" encoding="utf-8"?>
<!-- Generator: Adobe Illustrator 26.4.1, SVG Export Plug-In . SVG Version: 6.00 Build 0)  -->
<svg version="1.1" id="Layer_1" xmlns="http://www.w3.org/2000/svg" xmlns:xlink="http://www.w3.org/1999/xlink" x="0px" y="0px"
	 viewBox="0 0 528.4 700.5" style="enable-background:new 0 0 528.4 700.5;" xml:space="preserve">
<style type="text/css">
	.st0{opacity:0.2;fill:#FFFBB4;enable-background:new    ;}
	.st1{fill:#FFFFFF;stroke:#6BC7ED;stroke-width:0.6;stroke-miterlimit:10;}
	.st2{fill:#F7941D;stroke:#231F20;stroke-width:0.75;stroke-miterlimit:10;}
	.st3{fill:#F15A29;stroke:#231F20;stroke-miterlimit:10;}
	.st4{fill:#F19C7A;stroke:#231F20;stroke-width:0.25;stroke-miterlimit:10;}
	.st5{fill:#3C2415;stroke:#231F20;stroke-miterlimit:10;}
	.st6{fill:none;stroke:#231F20;stroke-miterlimit:10;}
	.st7{fill:#FFF0F0;stroke:#231F20;stroke-width:0.1;stroke-miterlimit:10;}
	.st8{fill:#FFFFFF;stroke:#231F20;stroke-miterlimit:10;}
	.st9{fill:#F5CAB1;stroke:#231F20;stroke-width:0.25;stroke-miterlimit:10;}
	.st10{fill:#F5CAB1;stroke:#231F20;stroke-width:0.15;stroke-miterlimit:10;}
	.st11{fill:#E1B9A2;stroke:#231F20;stroke-width:0.15;stroke-miterlimit:10;}
	.st12{fill:#FFBA00;stroke:#231F20;stroke-width:0.25;stroke-miterlimit:10;}
	.st13{fill:#E6E7E8;stroke:#231F20;stroke-miterlimit:10;}
	.st14{fill:#F15A29;stroke:#231F20;stroke-width:0.25;stroke-miterlimit:10;}
	.st15{fill:#F5BF9F;}
	.st16{fill:#F4A87B;}
</style>
<g id="Dust">
	<g id="Smokes">
		<path id="fbvireb" d="M216.9,464.9c-7.1-15.1-1.4-32.7,11.6-39.8c10.7-5.9,24.8-4,34.7,5.1
			c-10.9-13.2-12.4-32-3.8-46.6c8.3-14.1,24.5-21.8,40.9-19.4c-20.1-16.8-25.8-45.4-13.8-68.2c12.3-23.5,40.2-35.1,65.8-27.1
			c-3.4-21,3.5-41.7,18.3-51.9c23.6-16.4,62.6,10.6,76.8,23.4c66.2,59.6,23.8,212.1,19.1,225.8C384.9,469.2,298.6,461.8,216.9,464.9
			z"/>
		<path id="shsym" d="M158.2,475.5c-6.1-10.7-1.2-23.2,9.9-28.2c9.1-4.2,21.2-2.8,29.6,3.6c-9.3-9.4-10.6-22.7-3.2-33
			c7.1-10,21-15.4,34.9-13.7c-17.1-11.9-22-32.2-11.8-48.4c10.5-16.7,34.3-24.9,56.3-19.2c-2.9-14.9,3-29.6,15.6-36.8
			c20.2-11.6,53.5,7.5,65.6,16.6c56.5,42.3,20.3,150.5,16.3,160.1C301.7,478.5,228,473.3,158.2,475.5z"/>
		<path id="fgjsns" d="M244.7,459.2c-6.1-15.8-1.2-34.2,9.9-41.7c9.1-6.2,21.2-4.1,29.6,5.4
			c-9.3-13.9-10.6-33.4-3.2-48.7c7.1-14.7,21-22.8,34.9-20.3c-17.1-17.5-22-47.5-11.8-71.4c10.5-24.6,34.3-36.7,56.3-28.3
			c-2.9-22,3-43.7,15.6-54.4c20.2-17.1,53.5,11.1,65.6,24.5c56.5,62.3,20.3,222,16.3,236.2C388.3,463.7,314.5,456,244.7,459.2z"/>
		<path id="ugu" d="M0,467.9c82.6-25.2,148.2-36.9,154.7-44.3c5.4-6.2,12.5-4.1,17.4,5.4c-5.5-13.9-6.2-33.4-1.9-48.7
			c4.2-14.7,12.3-22.8,20.5-20.3c-10.1-17.5-12.9-47.5-6.9-71.4c6.2-24.6,20.2-36.7,33.1-28.3c-1.7-22,1.8-43.7,9.2-54.4
			c11.9-17.1,31.4,11.1,38.6,24.5c33.2,62.3,12,222,9.6,236.2C233.2,469.7,33.6,473.5,0,467.9z"/>
	</g>
	<g id="Thunder3">
		<g>
			<g>
				<g>
					<path d="M326.4,444.4c-5-0.3-9.5,0.3-13.4,1.3s-7.3,2.1-10.3,3.4c-5.9,2.5-10,5-12.9,7c-5.9,4-7.3,5.7-7.7,5.1
						c-0.4-0.6-1.1-1.4,2.7-4.6c1.9-1.6,4.9-3.8,10-6.4c5-2.6,12.1-5.8,22.3-7.3c0.6-0.1,1.3-0.2,1.9-0.2l1-0.1h1
						c1.3,0,2.7-0.1,4.1-0.1c1.4,0.1,2.7,0.2,4.1,0.3c1.4,0.2,2.8,0.4,4.1,0.6c5.5,1,11.1,2.5,16.6,4.4c5.5,1.8,10.9,4,16.2,6.3
						c2.6,1.1,5.2,2.3,7.7,3.5c1.2,0.6,2.5,1.2,3.7,1.8c0.6,0.3,1.2,0.6,1.8,0.9c0.5,0.3,1.1,0.6,1.6,0.9c10-3.6,19-6.9,25.5-9.2
						c6.4-2.3,10.4-3.7,10.4-3.7s-3.9,1.5-10.3,4c-6.5,2.5-15.5,6.1-25.7,10c-1.1-0.5-2.2-1.1-3.3-1.6c-1-0.5-2.1-1-3.1-1.5
						c-2.1-1-4.3-1.9-6.5-2.9c-4.4-1.9-9-3.7-13.6-5.3c-1.2-0.4-2.3-0.8-3.5-1.2c-1.2-0.4-2.3-0.8-3.5-1.1c-1.2-0.3-2.3-0.7-3.5-1
						s-2.4-0.6-3.5-0.9C335.5,445.5,330.9,444.6,326.4,444.4z"/>
				</g>
			</g>
		</g>
		<g>
			<g>
				<g>
					<path d="M352.3,434.1c-1.1,0.6-2.2,1.3-3.3,1.9c-7.9-3.3-14.9-6.2-21.2-8.7c-3.1-1.2-6-2.4-8.8-3.5
						c-1.4-0.5-2.7-1-4-1.5c-1.1-0.4-2.2-0.8-3.2-1.2c-1.1,2.5-2.2,4.9-3.1,7c-1,2.2-1.9,4.3-2.7,6.2c-1.6,3.6-2.8,6.5-3.7,8.6
						c-1.8,4.3-2.5,5.7-3,5.5c-0.5-0.3-1.2-0.5-0.1-4.2c0.6-1.8,1.6-4.5,3.2-8.5c0.8-2,1.9-4.3,3.1-7c0.6-1.4,1.3-2.8,2-4.3
						c0.4-0.8,0.7-1.6,1.1-2.4c0.6-1.3,1.3-2.7,2-4.2c4.2,1.7,8.8,3.6,14.1,5.7c4.7,1.9,9.8,4.1,15.6,6.5c2.7,1.2,5.5,2.3,8.4,3.6
						c4.2-2.3,8.5-4.8,12.9-7.3c4.8-2.6,9.6-5.3,14.6-8.1c4.9-2.7,9.9-5.5,14.9-8.2c4.9-2.6,9.7-5.3,14.5-7.9l0.1-0.3l0.1-0.4
						c0.1-0.3,0.3-0.7,0.4-1c0.3-0.7,0.6-1.3,1-1.9c0.7-1.3,1.5-2.5,2.4-3.6s1.9-2.1,3-3s2.3-1.6,3.6-2.2c2.6-1.1,5.4-1.5,8-1.3
						c2.7,0.2,5.2,0.9,7.6,1.8c4.7,1.9,8.8,4.6,12.3,7.4c1.8,1.4,3.5,2.8,5,4.2c1.6,1.4,3,2.8,4.4,4.2c5.4,5.6,8.9,10.9,10.9,14.7
						c1,1.9,1.6,3.5,2.1,4.6c0.4,1.1,0.6,1.6,0.6,1.6s-0.2-0.6-0.6-1.6c-0.4-1.1-1.1-2.6-2.1-4.5c-2-3.8-5.6-9-11.1-14.5
						c-1.4-1.4-2.8-2.7-4.4-4.1s-3.3-2.7-5-4.1c-3.6-2.7-7.6-5.3-12.2-7.1c-2.3-0.8-4.8-1.5-7.3-1.6s-5.1,0.3-7.5,1.4
						c-1.2,0.6-2.3,1.3-3.3,2.1c-1,0.8-2,1.8-2.8,2.9s-1.6,2.2-2.2,3.4c-0.3,0.6-0.6,1.2-0.9,1.9c-0.1,0.3-0.3,0.6-0.4,1
						c-0.1,0.3-0.3,0.7-0.4,1.1c-9.2,5.2-18.6,10.5-27.9,15.7C369.9,424.1,360.8,429.3,352.3,434.1z"/>
				</g>
			</g>
		</g>
		<g>
			<g>
				<g>
					<path d="M385.9,456c-2.3-3.8-4.5-7.4-6.5-10.7c-1-1.6-2-3.2-3-4.7c-0.9-1.5-1.8-2.8-2.7-4.2c-2.9,2.2-5.6,4.2-8,6
						s-4.6,3.5-6.6,5c-3.9,3-6.8,5.4-9,7.1c-4.3,3.5-5.8,4.7-6.1,4.2c-0.4-0.5-0.9-1.2,2.4-4.4c1.7-1.6,4.4-3.9,8.5-7.1
						c2.1-1.6,4.5-3.5,7.4-5.6c1.5-1.1,3-2.2,4.7-3.4c0.8-0.6,1.7-1.2,2.6-1.9c1.5-1.1,3.1-2.2,4.6-3.3c2.2,3.7,4.7,7.7,7.4,12.1
						c1.9,3.2,3.9,6.5,5.9,9.9c1,1.7,2,3.5,3.1,5.2c0.5,0.9,1,1.8,1.6,2.7c0.4,0.6,0.3,0.5,0.4,0.6l0.2,0.3l0.4-0.2
						c0.6-0.4,1.2-0.8,1.8-1.2c1.3-0.9,2.7-1.7,4-2.6c2.7-1.7,5.4-3.5,8.2-5.3c5.4-3.5,11-7,16.4-10.5c10.8-6.9,21.3-13.5,30.1-19
						c9.5-0.7,17.7-2.7,23.1-5.1c2.7-1.2,4.8-2.4,6.1-3.4c0.7-0.5,1.1-0.9,1.5-1.2c0.3-0.3,0.5-0.4,0.5-0.4s-0.2,0.2-0.5,0.4
						c-0.3,0.3-0.8,0.7-1.5,1.2c-1.3,1-3.3,2.3-6,3.5s-6.1,2.4-10,3.4c-1.9,0.5-4,0.9-6.2,1.3c-1.1,0.2-2.2,0.4-3.4,0.5
						c-0.6,0.1-1.2,0.1-1.8,0.2c-0.6,0.1-1.3,0.1-1.6,0.2c-8.8,5.8-19,12.5-29.6,19.4c-10.7,7.1-21.9,14.5-32.2,21.5
						C390.1,463,388,459.4,385.9,456z"/>
				</g>
			</g>
		</g>
	</g>
	<g id="Thunder2">
		<g>
			<g>
				<g>
					<path d="M180.9,452.6c-2.5-2.3-4.9-4.6-7.3-6.6c-1.2-1-2.4-2-3.6-2.8c-1.2-0.8-2.5-1.6-3.8-2
						c-1.4-0.5-2.7,0.3-3.8,0.8c-1.2,0.6-2.3,1.3-3.3,2c-2.1,1.4-4,2.8-5.8,4.1c-7.1,5.4-12,9.9-15.7,13.2c-7.3,6.7-9.4,9-9.8,8.4
						c-0.5-0.6-1.2-1.2,3.6-6.1c2.4-2.4,6.1-5.9,12.1-10.9c3-2.5,6.5-5.3,10.9-8.4c1.1-0.8,2.2-1.6,3.5-2.3c1.2-0.8,2.5-1.6,4.1-2.3
						l0.6-0.3l0.7-0.2c0.2-0.1,0.4-0.2,0.7-0.2c0.3-0.1,0.5-0.1,0.9-0.2c0.7-0.1,1.4,0,1.9,0.2c0.5,0.1,1,0.3,1.5,0.5
						c1.8,0.8,3.2,1.9,4.6,3c2.8,2.2,5.4,4.7,8.1,7.2c2.7,2.5,5.4,5.1,8.3,7.3c0.7,0.5,1.5,1,2.2,1.4c0.3,0.2,0.7,0.3,1,0.4
						c0.1,0,0.2,0.1,0.3,0c0.1,0,0.2-0.1,0.3-0.2l0.1-0.1l0.2-0.7c0.3-0.9,0.7-1.8,1-2.8c1.3-3.8,2.8-7.6,4.3-11.4
						c1.6-3.8,3.2-7.5,5.1-11.2c1.8-3.7,3.9-7.2,6.2-10.5s4.9-6.4,8.1-8.9c3.3-2.4,7.2-3.3,10.8-3.7c3.7-0.4,7.3-0.3,10.7-0.1
						c3.4,0.2,6.7,0.5,9.8,0.8c6.2,0.6,11.8,1,16.6,0.1c1.2-0.2,2.3-0.5,3.4-1c1-0.4,1.9-0.8,2.7-1.1c1.7-0.7,3.1-1.3,4.3-1.8
						c2.4-1,3.7-1.5,3.7-1.5s-1.1,0.5-3.1,1.4c-1,0.4-2.3,1-3.7,1.6c-0.7,0.3-1.5,0.7-2.3,1c-0.4,0.2-0.8,0.4-1.3,0.6
						s-1,0.4-1.5,0.6c-4.2,1.3-9.3,1.3-14.8,1c-5.5-0.3-11.6-1-18.1-1c-3.2,0-6.6,0.2-9.9,1c-1.6,0.4-3.3,1-4.8,1.8
						c-0.7,0.4-1.5,0.9-2.2,1.4s-1.3,1.2-2,1.8c-2.5,2.5-4.7,5.5-6.7,8.6c-1.9,3.1-3.7,6.5-5.3,9.8c-3.2,6.8-5.9,13.9-8.3,20.9
						c-0.3,0.9-0.6,1.7-0.9,2.6c-0.3,0.8-0.5,1.8-1.2,2.4c-0.8,0.6-1.8,0.4-2.6,0.1s-1.6-0.8-2.4-1.3
						C186.1,457.3,183.5,454.9,180.9,452.6z"/>
				</g>
			</g>
		</g>
		<g>
			<g>
				<g>
					<path d="M221.3,442.2c-23.8,13.3-27.5,18.9-28.2,17.6s-2-3.1,21.7-16.4c1.2-0.7,2.5-1.4,3.8-2.1
						c1.5-0.8,3-1.6,4.5-2.4c0.7,0,1.4,0,2.1,0c0.5,0,1,0,1.6,0c1.1,0,2.1,0.1,3.2,0.1c2.1,0.1,4.3,0.2,6.5,0.2
						c2.2,0.1,4.4,0.2,6.6,0.3c1.1,0.1,2.2,0.1,3.3,0.2l1.6,0.1l1.1,0.1l0.5-0.7l0.8-1.2c0.5-0.8,1-1.6,1.6-2.4c1-1.5,2-3.1,3-4.6
						c1-1.5,1.9-2.9,2.9-4.3c0.5-0.7,0.9-1.4,1.4-2c0.2-0.3,0.4-0.6,0.6-0.9l0.3-0.4l0.1-0.2c0.1,0,0.1-0.2,0.2-0.1
						c0.9,0.7,1.5,1.1,2.6,1.7c0.9,0.5,1.9,1,2.8,1.4c1.8,0.8,3.4,1.3,4.9,1.6c1.4,0.3,2.5,0.5,3.3,0.5c0.4,0,0.7,0.1,0.9,0.1
						c0.2,0,0.3,0,0.3,0s-0.1,0-0.3,0c-0.2,0-0.5,0-0.9,0c-0.8,0-1.9-0.1-3.4-0.4c-1.4-0.3-3.1-0.7-4.9-1.5c-1.8-0.7-4.2-1.9-5-2.6
						c-0.1-0.1-0.1,0-0.1,0.1l-0.1,0.1l-0.2,0.3c-0.1,0.2-0.3,0.4-0.4,0.6c-0.4,0.7-0.8,1.3-1.2,2c-0.9,1.4-1.8,2.9-2.7,4.4
						c-1.9,3.1-3.9,6.4-5.9,9.7c-4.4-0.1-8.9-0.2-13.3-0.3c-4.4-0.1-8.7-0.1-12.9-0.1C222.9,441.4,222.1,441.8,221.3,442.2z"/>
				</g>
			</g>
		</g>
		<g>
			<g>
				<g>
					<path d="M240.5,413.5c-3,2.3-5.7,4.3-8,6.2c-1.1,0.9-2.2,1.8-3.3,2.7c-1,0.9-2.1,1.7-3,2.5
						c-0.4-0.1-0.9-0.2-1.3-0.3c-0.4-0.1-0.7-0.1-1.1-0.2c-0.7-0.1-1.4-0.2-2-0.4c-1.2-0.2-2.4-0.4-3.4-0.6
						c-2.1-0.3-3.6-0.5-4.8-0.7c-2.4-0.3-3.2-0.5-3-1c0.2-0.6,0.3-1.3,2.4-1.4c1-0.1,2.5,0,4.7,0.3c1.1,0.2,2.4,0.4,3.9,0.7
						c0.8,0.2,1.6,0.3,2.4,0.5c0.4,0.1,0.9,0.2,1.3,0.3c0.3,0.1,0.3,0.1,0.3,0.1h0.1c0.1-0.1,0.1-0.1,0.2-0.2c0.3-0.3,0.7-0.5,1-0.8
						c0.7-0.6,1.4-1.1,2.2-1.7c1.6-1.2,3.3-2.5,5.1-3.9c3.6-2.7,7.7-5.7,12-8.7c2.1-1.5,4.3-3,6.5-4.5c2.3-1.6,4.6-3.2,7-4.8
						c1.6,0.1,2.2,0.2,3.1,0.3l2.7,0.3c1.8,0.2,3.5,0.3,5.2,0.5c3.4,0.3,6.7,0.7,9.9,1c6.2,0.7,11.7,1.3,15.7,1.7
						c0.3-0.2,0.6-0.3,0.9-0.5c0.2-0.1,0.4-0.2,0.6-0.3c0.4-0.2,0.8-0.4,1.1-0.5c0.7-0.3,1.3-0.6,1.8-0.9c1-0.5,1.5-0.7,1.5-0.7
						s-2.2,1.2-5.9,3.1c-4-0.3-9.5-0.7-15.8-1.2c-3.1-0.2-6.5-0.4-9.9-0.7c-3.4-0.2-7-0.5-10.6-0.7c-3.4,2.4-6.7,4.9-10,7.3
						C246.8,408.8,243.5,411.2,240.5,413.5z"/>
				</g>
			</g>
		</g>
	</g>
	<g id="Thunder1">
		<g>
			<g>
				<g>
					<path d="M62.5,467.4c-6-0.1-11.3-1.8-15.9-3.9c-4.5-2.2-8.3-4.8-11.6-7.4c-3.2-2.6-6-5.2-8.3-7.6
						c-0.6-0.6-1.1-1.2-1.7-1.8c-0.5-0.6-1-1.1-1.5-1.6c-0.7-0.8-1.2-1.4-1.6-1.9c0,0,0-0.1-0.1-0.1v0.1l-0.1,0.2l-0.1,0.4
						c-0.1,0.3-0.1,0.5-0.2,0.7c-0.1,0.4-0.2,0.8-0.3,1.2c-0.4,1.4-0.8,2.7-1.1,3.8c-0.7,2.3-1.2,4.1-1.5,5.4
						c-0.8,2.7-1.2,3.6-1.6,3.5c-0.5-0.2-1.1-0.3-0.8-2.6c0.1-1.1,0.4-2.8,1-5.3c0.3-1.3,0.7-2.7,1.2-4.4c0.1-0.5,0.3-0.9,0.4-1.4
						c0.2-0.7,0.5-1.5,0.7-2.2c0.3-0.8,0.5-1.6,0.8-2.5c0.1-0.4,0.3-0.9,0.4-1.3L21,438c0.1-0.2,0.1-0.5,0.2-0.6
						c1,1.4,2.1,3.1,3.3,4.6c0.3,0.4,0.6,0.7,0.9,1.1l0.4,0.6l0.3,0.4c0.4,0.5,0.8,0.9,1.2,1.4c1.6,1.9,3.5,3.8,5.7,5.9
						c2.2,2,4.7,4.2,7.6,6.2c2.9,2,6.2,4,10.1,5.4c2.4,0.9,4.8,1.6,7.5,2c2.6,0.4,5.3,0.5,8,0.2c2.7-0.3,5.5-0.8,8-2
						c2.4-1.1,4.5-2.9,5.6-5.2c0.5-1.2,0.9-2.5,1-3.9s0.1-2.8-0.1-4.3c-0.4-2.9-1.2-5.8-2.4-8.7c-1.1-2.8-2.5-5.6-4-8.3
						c-0.7-1.3-1.5-2.7-2.3-4l-0.6-1l-0.4-0.6l-0.5-0.7c-0.6-0.9-1.3-1.8-1.9-2.6v-0.1c0,0,0.1,0,0.1-0.1l0.3-0.1l0.6-0.2l1.2-0.4
						c0.8-0.2,1.7-0.4,2.5-0.6c1.2-0.3,2.5-0.5,3.7-0.7c2.5-0.4,4.9-0.7,7.3-0.9c4.8-0.4,9.6-0.2,14,0.7c4.4,0.9,8.5,2.6,11.6,5
						c1.6,1.2,2.9,2.6,4.1,4c1.1,1.5,2.1,3,2.7,4.5c1.3,3,2.8,6.4,5.8,7.9c0.7,0.4,1.6,0.6,2.3,0.6c0.8,0,1.5-0.1,2.2-0.3
						c1.3-0.4,2.4-1,3.3-1.6c1.8-1.2,2.9-2.4,3.7-3.1c0.8-0.8,1.1-1.2,1.1-1.2s-0.4,0.4-1.1,1.2c-0.8,0.8-1.8,2-3.6,3.2
						c-0.9,0.6-1.9,1.3-3.3,1.7c-0.7,0.2-1.4,0.3-2.3,0.3c-0.8,0-1.7-0.2-2.4-0.6c-3.2-1.5-4.7-4.9-6.1-7.9
						c-0.7-1.5-1.7-2.9-2.8-4.4c-1.2-1.3-2.5-2.7-4.1-3.8c-3.1-2.3-7.1-3.8-11.4-4.7c-4.3-0.8-9-0.9-13.7-0.5
						c-2.4,0.2-4.8,0.5-7.2,1c-1.2,0.2-2.4,0.5-3.6,0.8l-1.6,0.4l-0.8,0.2l-0.4,0.1l-0.2,0.1h-0.1l0.1,0.1c0.6,0.9,1.2,1.7,1.9,2.7
						c0.7,1,1.4,2.1,2,3.2c1.3,2.2,2.5,4.4,3.6,6.7c2.2,4.6,4,9.4,4.3,14.5c0.1,2.5-0.2,5.1-1.3,7.3c-1.1,2.2-2.9,4-5,5.3
						s-4.5,1.9-6.8,2.4C67.1,467.2,64.8,467.4,62.5,467.4z"/>
				</g>
			</g>
		</g>
		<g>
			<g>
				<g>
					<path d="M65,458.6c-3.7-2-7.2-3.9-10.5-5.7c-3.2-1.7-6.2-3.3-9.1-4.8c-1.6,1.1-3.1,2.1-4.5,3.1s-2.8,2-4.1,2.9
						c-2.6,1.8-4.9,3.5-7,5c-4.1,3-7.2,5.3-9.5,7c-4.6,3.5-6.1,4.7-6.4,4.2c-0.4-0.6-0.9-1.2,2.7-4.4c1.8-1.6,4.7-3.8,9.1-7
						c2.2-1.6,4.8-3.4,7.9-5.5c1.6-1.1,3.2-2.2,5-3.4c2.1-1.4,4.4-2.9,6.8-4.5c3.2,1.8,6.8,3.7,10.6,5.8c6.4,3.5,13.4,7.5,20.7,11.6
						c3.6,2.1,7.3,4.2,11,6.3c1.8,1.1,3.7,2.1,5.6,3.2l2.6,1.5l1.2,0.8c1.6-10.9,3.3-21.9,4.8-32.1c0.8-5.3,1.6-10.4,2.3-15.2
						c0.4-2.4,0.7-4.6,1.1-6.8c0.2-0.9,0.3-1.9,0.4-2.7c0.1-0.7,0.2-1.4,0.4-2.1c0.7,0.8,1.5,1.5,2.1,2.2c0.9,0.9,1.7,1.7,2.5,2.5
						c1.7,1.7,3.1,3.1,4.3,4.3c2.4,2.4,3.7,3.7,3.7,3.7s-1.3-1.3-3.8-3.6c-1.2-1.2-2.7-2.6-4.4-4.2c-0.8-0.8-1.6-1.6-2.5-2.4
						c-0.5-0.5-1.1-1.1-1.7-1.6c-0.1,0.5-0.2,1.1-0.2,1.6c0,0.3-0.1,0.6-0.1,0.9c-0.1,0.5-0.1,1-0.2,1.5c-0.3,2.2-0.6,4.5-0.9,6.8
						c-0.6,4.8-1.3,9.9-2,15.2c-1.4,10.8-2.9,22.6-4.5,34.4c-5.7-3.2-11.5-6.4-17.1-9.5C75.6,464.5,70.2,461.5,65,458.6z"/>
				</g>
			</g>
		</g>
		<g>
			<g>
				<g>
					<path d="M68.8,476.1c-3.7-1.8-7-3.3-10.1-4.7c-1.5-0.7-3-1.3-4.4-1.9c-0.7-0.3-1.4-0.6-2-0.9s-1.2-0.5-1.8-0.8
						c-1.8,0.9-3.5,1.8-5.1,2.6c-1.5,0.8-2.9,1.5-4.2,2.2c-2.5,1.3-4.4,2.4-5.8,3.2c-2.8,1.6-3.8,2.1-4,1.6
						c-0.2-0.6-0.6-1.3,1.6-2.9c1.1-0.8,2.8-1.9,5.5-3.4c1.3-0.7,2.9-1.5,4.8-2.5c1-0.5,2-0.9,3-1.5c0.5-0.3,1.1-0.5,1.7-0.8
						c0.9-0.4,1.7-0.8,2.7-1.2c1.9,0.9,3.9,1.8,6,2.8c1.9,0.9,3.9,1.8,6,2.9c1.3,0.7,2.7,1.3,4.1,2c0.7,0.3,1.4,0.7,2.1,1.1
						c0.3,0.1,0.6,0.3,0.9,0.4l0.2,0.1c3.1-2.1,6.4-4.4,9.8-6.7c3.9-2.6,7.8-5.2,11.8-7.9l1.7,0.5l1.1,0.4l2.1,0.7
						c1.4,0.5,2.8,1,4.2,1.5c2.8,1,5.5,1.9,8.2,2.9c5.3,1.9,10.4,3.7,15,5.3c5-3.4,9.3-6.3,12.3-8.3s4.7-3.1,4.7-3.1
						s-6.9,5-16.9,12.1c-4.7-1.5-9.9-3.2-15.4-5c-5.4-1.7-11.1-3.5-16.8-5.3c-7.3,5.1-15,10.5-21.7,15.3
						C69.7,476.6,69.2,476.4,68.8,476.1z"/>
				</g>
			</g>
		</g>
	</g>
</g>
<g id="Zenitsu">
	<ellipse cx="127.8" cy="317.2" rx="31.4" ry="32.7"/>
	<g id="Layer_28">
		<path d="M201.1,333.8c0,0-36.7,28.8-54.1,10.8c-1.1-1.1-1.9-2.1-2.5-3.2c0.5-0.3,1.2-0.8,2.1-1.4
			c3.9-2.5,6.1-1.9,8.8-1.3c1.2,0.3,2,1,2.5,1.8c0.4,0.6,1.3,0.3,1.3-0.4c0-0.2,0.1-0.5,0.1-0.7c0.1-1.5,2.3-2.1,4.4-3.1
			s1.5-1.7,2.2-3.1s4.7-2.7,7.8-4.6c2.1-1.3,0.2-5.2-2.2-8.9c0.4-0.1,0.6-0.1,0.6-0.1l5.3-1.9l1.1,1.3
			C179.6,320.6,201.1,333.8,201.1,333.8L201.1,333.8L201.1,333.8z"/>
	</g>
	<path id="Coat3" d="M408.7,191.7c0,0-94.1,105.3-79.1,144.6c10.2,26.8-43.8-61.5-43.8-61.5S378,188.1,408.7,191.7z"/>
	<path d="M396.9,371.1c-0.9,0.4-1.8,0.7-2.8,0.9c-5.8,1.6-11.2,0.8-11.2,0.8l3.1,16.4c0,0-11.5,6.7-18.4,6.7
		c-3,0-6.8,6.1-10.1,13c-0.4,0.9-0.8,1.8-1.2,2.6c-1.4-1.5-3.9,2.3-6.6,3.7c-2.8,1.5-19.8-3.6-22.2-4.1
		c-2.4-0.5-10.8-15.9-13.5-17.5c-2.8-1.6-12.8-4-12.8-4L267,387l-7.8,0.1c-7.8,0.1-13.9,4.9-13.9,4.9l-4.3,1.7c-4.3,1.7,5.4,4.8,5,7
		c-0.4,2.3-6,4.9-6,4.9s3.2,2.2,5.8,4.6l-13.6,3.7l-13-10.5c0,0-3.4,10-12.3,15c-8.9,5.1-12.2-5.9-12.2-5.9l-11.3,6.7
		c-3.6-0.5-9.3,0.1-14.4-1.2c-7.7-2-0.3-3.5-5.7-8.8s42.7-63.7,42.7-63.7s-26.8-26.1-27.7-26.6s-17-28.6-17-28.6l3.5-3.1
		c6,6.2,16.8,15.4,32.2,20.9c24.7,8.8,47,8.8,62.2,4c12.1-3.8,32-10.8,44.7-17.7c0,0,14.1,6.5,19,7s21.1,27.1,26.3,28.8
		c5.2,1.7,13.1,8.6,16.3,10s15.4-3.5,15.4-0.7s12.2,14.5,13.7,15.7C395.8,356.4,396.6,366.8,396.9,371.1L396.9,371.1L396.9,371.1z"
		/>
	<path id="Coat" d="M404.9,191.6c-3.9-0.2-12.4,7.1-16.7,9.6c-4.4,2.5-21,15.7-25.8,19.7s-17.8,28-17.8,28
		s-4,15.1-8.8,20.9c-4.8,5.9-13.8,11.4-23.9,19.7c-2.1,1.7-4.8,3.4-8.1,5.2c-12.7,6.9-32.7,13.9-44.7,17.7
		c-15.1,4.8-37.4,4.8-62.2-3.9c-15.3-5.4-26.2-14.6-32.2-20.9c-3.7-3.8-5.5-6.5-5.5-6.5s4.3-2.1,6.4-4.8
		c2.1-2.7,11.9-22.1,15.1-24.5l3.2-2.4c0,0,21.2-12.2,27.1-12.8s27.3-15.2,27.3-15.2s15.1-5.3,16.5-9.8c1.3-4.5,24.7-31.4,30.8-29.3
		c6.1,2.1,15.2,18.8,15.2,18.8c1.2,1.4,6.5,7.5,10.3,14.2c0.1,0.2,0.2,0.4,0.4,0.6c8-6.8,24.5-20.4,28.1-22.6
		c5.1-3.1,23.1-9.1,32.9-8.8C379.7,184.9,395.2,188.8,404.9,191.6L404.9,191.6L404.9,191.6z"/>
	<path d="M213.5,440.7c0,0-21.3,8.5-21.2,10.7s2.4,4.1,7.5,3.5c0,0,0.8,4.1,11.4,1.5c0.2,0,0.4-0.1,0.6-0.1
		c11.1-2.9,34.9-0.4,34.9-0.4s10.8-6,3.2-15.1C249.9,440.7,230.9,430.4,213.5,440.7L213.5,440.7L213.5,440.7z"/>
	<path d="M199.8,454.9c0,0-4.9-4.9,9.8-7.2"/>
	<g id="Hands">
		<path d="M207.9,353.1l38.8-13l3.3,7.1l1.9-0.6c0,0-2.5-7.3-2.3-7.4c49.1-16,141-39.9,161.9-42.9l-2.4-11.4
			c-14.3-0.5-163.6,43.8-163.6,43.8l-3.6-7.1l-1.6,0.5l2.7,7.5l-39.6,13.5L207.9,353.1z"/>
		<g id="Layer_18">
			<path d="M285.7,268.1v39.2c0,0-10.8,2.1-12.2,2.2c-1.4,0-20.3,0.7-20.3,0.7l0.7-35.4"/>
		</g>
		<g id="Layer_17">
			<polyline points="255.8,310 255.8,313.3 281.8,312.4 281.6,308 			"/>
		</g>
		<g id="Layer_9">
			<path d="M210.4,354.6c0,0,2.4-0.3,4.5-2.9c0,0,5.5,0.7,6.5-0.1c1-0.9,7.9-2.9,8.8-2.5c0.9,0.3,2.1-3.3-0.1-3.3
				c-2.2-0.1-21.9,5.8-21.3,8.3"/>
		</g>
		<g id="Layer_8">
			<path d="M206.9,340.1l0.5,0.8c0,0,4.6-2.4,4.8,1.3c0.1,2,2.5,1.1,2.5,1.1s1.4-5.7-2.7-6.3c0,0,3.1-1.7,3.6,6.2
				c0,0,1.8,3.2,2.5-1.7c0.7-4.8-2.6-11.1-4.3-10.2c-1.5,0.1-4.5,3.6-4.5,3.6"/>
		</g>
		<g id="Layer_7">
			<path d="M214.8,331.4c0,0,2.2-1,2.6-0.5c0.5,0.5,5.3,4.7,5,8.2s-2.7,1.3-2.7,1.3s-0.5-3.2-2.9-5.1"/>
		</g>
		<g id="Layer_6">
			<path d="M217.1,330.8c0,0,2.1-3.4,4.2-1.3c1.3,1.3,3.8,8.4,2.9,8.6c-1,0.2-2-1.1-2.9-2.6
				C220.7,334.1,217.1,330.8,217.1,330.8z"/>
		</g>
		<g id="Layer_5">
			<path" d="M263.3,313.1c0,0-1.1,3.5-1.4,4.8c-1.8,0.9-5.3,7-5.3,7l4.1-1.3c0,0,7.9,0,5.1,8.8l-4.8,3.3l6.8,0.5
				c0,0,0.2-0.4,0.5-0.5c3.3-0.6,10.8-5,12.2-8.7c1.2-2.9-2.5-14.5-2.5-14.5L263.3,313.1L263.3,313.1L263.3,313.1z"/>
		</g>
		<g id="Layer_4">
			<polyline" points="268,335.6 270.2,329.1 269.5,324 			"/>
		</g>
		<g id="Layer_3">
			<polyline" points="272.4,334.1 273.8,328.2 273.1,322.6 			"/>
		</g>
		<g id="Layer_2-2">
			<polyline" points="277.2,331.2 277.2,326.5 276.5,321.4 			"/>
		</g>
		<polygon" points="208.3,344.2 210.4,350.2 213.8,345 		"/>
		<polygon" points="215.4,341.2 217.6,347.2 221,342 		"/>
		<polygon" points="222.7,339 224.8,345 228.2,339.7 		"/>
		<polygon" points="229.2,336.9 231.3,342.9 234.7,337.7 		"/>
		<polygon" points="235.3,334.7 237.5,340.7 240.8,335.5 		"/>
	</g>
	<path d="M205.5,447.6c0,0,0.7-6.5,7.2-6.7c0,0-1.8,5.9-2.4,6.7C209.6,448.4,205.5,447.6,205.5,447.6z"/>
	<path" d="M194.8,454.9v4.5c0,0,50.5,0.4,55.3-1.2s0-5.2,0-5.2"/>
	<g>
		<path" d="M395,456.6v4.6c0,0,31.1,1.1,34.9-2.3c3.7-3.4,1.8-22.9,7.5-28.6s8.2-13,2.8-15.9"/>
		<path d="M414.1,428.6c0,0,2.1,6.8-6.7,12.5c0,0-3.3,8.4-12.2,9.7c0,0-5.2,6.7,3.2,6.2c8.4-0.6,30.1,2.2,30.1-3
			s2.9-21.7,4.4-23.3c1.6-1.6,8.2-13.8,7.2-16.3c-1.1-2.5-9.7-5.9-9.7-5.9S415.9,419.1,414.1,428.6L414.1,428.6L414.1,428.6z"/>
	</g>
	<path d="M429.9,407.8l-9.7,11.1c0,0-3.2,4.8-5.8,5.7c-2.6,0.9-9-1.9-10.9-2.4s-1.7-3.1-1.9-4.4c-0.2-1.4-2.5-3-4.3-4.3
		c-1.8-1.4-1.7-5.1-2.3-5.1c-0.6,0-6.6,5.1-11.5,2.2c-4.9-3-9.8-0.8-12.2-1.7c-2.4-0.9-9,2.2-11.2,2.6c-1.1,0.2-2-1-2.7-2.5
		c3.3-6.8,7.1-13,10.1-13c6.9,0,18.4-6.7,18.4-6.7l-3.1-16.4c0,0,5.4,0.7,11.2-0.8c2.5,0.7,5.6,1.6,7.5,2.4
		c3.5,1.6,7.3,14.7,8.7,17.4s8.5,0.9,12.4,1.8C426.6,394.6,429.9,407.8,429.9,407.8L429.9,407.8L429.9,407.8z"/>
	<path d="M249.3,439.3l-0.7,1.7c-0.7,1.7-13.9-2.2-13.9-2.2s-8.4,4-12.3,3.3s-4.2-2.7-4.2-2.7s-2,0-1.1-2.8
		s-1.7-5.9-1.7-7.3s-4,0.5-6.6,0s-6.3-4.3-11.2-3.7c-4.9,0.6-7.3-3.1-8.7-6.3c-0.5-1.1-1.7-1.6-3.3-1.8l10.4-6.1
		c0,0,3,10.1,11.2,5.4s11.3-13.8,11.3-13.8l12,9.6l12.5-3.4c0.3,0.3,0.6,0.6,0.9,0.9c2.4,2.6,0.1,12.8,1.1,17.5c1,4.6,3.7,2.7,7,4.9
		C255.2,434.6,249.3,439.4,249.3,439.3L249.3,439.3L249.3,439.3z"/>
	<path id="Coat2"" d="M311.5,216.1c0,0,1.9,15.5-9.8,38.4c-7.9,15.6-59.7,43.4-59.7,43.4s26.5-61.4,14.7-69.9"/>
	<g id="Layer_25">
		<line x1="164.8" y1="287.5" x2="164.8" y2="287.5"/>
	</g>
	<g id="Layer_23">
		<line x1="405" y1="191.7" x2="405" y2="191.7"/>
	</g>
	<g id="Layer_22">
		<line x1="405" y1="191.7" x2="405" y2="191.7"/>
	</g>
	<g id="Layer_21">
		<path d="M174.1,388.9c-0.1,0.1-0.1,0.3-0.2,0.3C173.7,389.3,173.8,389.2,174.1,388.9z"/>
	</g>
	<g id="Left-Hand">
		<g id="Layer_19">
			<path d="M204.6,347.2c0,2.3,0,7.8-3,13.1c-2.8,5-5.5,9.4-5.5,9.4l-1.1,1.7c0,0.1-0.1,0.2-0.2,0.3
				c-1.5,0.2-3.2,0.3-5,0.5c-1.7,4.5-13.8,14.7-15.8,16.7c0.6-1.6,0.8-8.5,0.8-15.8c0-8-0.1-16.1,0-17.2
				c0.3-2.2,10.9-14.7,14.1-17.7c0.1-0.1,0.3-0.3,0.4-0.4c1.8-1.5,6.1-2.8,9.7-3c1.5-0.1,3.1-0.2,3.9,0.4c0.1,0.1,0.2,0.2,0.3,0.3
				c0.3,0.3,0.7,0.6,1,1c2.1,2.6-0.9,1.1-0.9,4.8v3L204.6,347.2z"/>
		</g>
		<g id="Layer_16">
			<path d="M205.4,334.3c0,0-0.6,0.5-1.4,1.3c-1.4,1.5-3.6,4.2-4,7.4c-0.6,4.3,0.1,11.3,0.8,16.8
				c0.1,0.8,0.2,1.6,0.3,2.3c0.8,5.7,3.3,7.3,1.1,7.7c-0.7,0.7-4.6,1.2-9.7,1.7c-1.9,0.2-4,0.3-6.1,0.5c-6.3,0.4-13.2,0.7-18.4,0.9
				c0-8.1-0.1-16.4,0-17.5c0.3-2.2,13.4-15,17.3-18c5.6-1,10.6-1.9,12.2-2.1c2.1-0.3,4-0.5,5.3-0.6
				C204.4,334.4,205.4,334.3,205.4,334.3L205.4,334.3L205.4,334.3z"/>
		</g>
		<g id="Layer_20">
			<path d="M189.1,372.2c1.7-0.3,6.2-0.9,7.7-1.2c-2.2,3.4-19.8,21.6-21.7,23.7c-2,2.1-5.6,8.1-7.7,11.9
				c-2.1,3.7-12.7,12.7-14.9,13.7s-6.5-3.1-11.3-5.7s-12.6-14.7-15.6-16.8c-2.9-2.1-11.7-11.7-10.2-16.3
				c1.5-4.6,16.2-15.5,17.5-15.9s0.4-0.2,1.4-0.9c1-0.7,2.7-8.3,2.7-8.3c4.4-13.2,14.8-13.5,14.8-13.5s13.4-4.1,18.9-4
				s9.7-4,15.4-7.9c4.2-2.9,15,2.2,16.8,3.2c0,0-6.8,0.1-14.8,2.7c-12.3,4-14.7,15.1-14.8,17.3c-0.1,1.1,0.7,9.4,1.2,17.5
				c0.5,7.3,0.8,14.5,0.3,16.1c-0.3,0.3-0.4,0.4-0.2,0.3c0.1,0,0.1-0.1,0.2-0.3c2.1-2.2,8.4-8.9,11.4-12.5L189.1,372.2z"/>
		</g>
		<g id="Layer_15">
			<path d="M204.9,334.8l4.4-0.5c0,0-3.6,6.9-3.5,9c0.2,2,0.2,8.2,2.1,9.8l1.9,1.6l-8.7,1c0,0-4.3-9.9,3.2-20.8"/>
		</g>
	</g>
	<g id="Layer_13">
		<path" d="M173.7,328.7c-3.1,1.9-7,3.2-7.8,4.6s0,2.1-2.2,3.1s-4.4,1.6-4.4,3.1c0,0.3,0,0.5-0.1,0.7
			c-0.1,0.7-1,0.9-1.3,0.4c-0.5-0.8-1.3-1.6-2.5-1.8c-2.7-0.6-4.9-1.2-8.8,1.3c-0.9,0.6-1.5,1-2.1,1.4l-1.8,1.2c0,0-1.7,2.4-5.5,2.4
			c-17,0-19.3-12.7-15.9-22.6s17.8-24.4,20.9-24c2.6,0.3,1.5-4.1,2.9-2.7l2.6,1.1l10.1-3.7l1.5-0.5v0.8c0,0,13,19.4,12.6,22.9
			c-0.1,0.7-0.6,1.3-1.5,1.9c0.4,0.5,0.8,1.1,1.1,1.7l0,0C173.9,323.6,175.9,327.4,173.7,328.7L173.7,328.7z"/>
	</g>
	<g id="Hair">
		<path id="Hair-2" d="M108.5,330c-0.1,5,9.3,7.5,14.3,9.9s3.9,6.5,3.9,6.5l3.6-1.7l0.7,1.2l3.3-2.8l0.5,0.9l3.8-1.9
			l-2.8-4.4l4.7,1.5l1.7-2.7l0.9-3.1l-14.2-6.9l8.8-1.1v-4l7.5-0.9l-1.1-3.6h1.8l-0.8-4.3h0.9l0.1-4.4l0.6-3.4l-5.8-0.5l6.6-2.7
			l-2.3-2.4l6.9,2.4l7.5-0.9l-3-7l9.8-7.6l-4.4-2.6l-4.7-1.8v-1.9l-2.8-2l-1.3-2.5l-1.8-4.9l-1.9,1.1l-3.6-3.5l-5.4-5.4l-3.6,5.1
			l-4-1.9l-2.4,4.7l-3.5-2.2l-0.5,0.9l-4.1-2.7l-0.4,1l-3.5-1.7c0,0-6.7,10.6-7.9,12.3c-1.2,1.7-10,6-10,6s-0.7,3.5-2,5
			s-3.9,7.7-4.2,10.3s-0.8,10.1,0,11.2c0.8,1.2-2.4,2.7-2.5,5c-0.1,2.2,0.1,7.8,1.7,8.7c1.6,0.9,1.3,3.9,0.6,4.3
			c-0.7,0.4,0,4.9,2,6.9s2.2,6.8,3.7,8.3s2.7,2.4,3.4,4.7c0.6,2.3,1.3,14.2,1.1,15.5c-0.3,1.3,3.5,1.2,3.5,1.2l-0.3,0.8l3.5,0.4
			l0.4-1.3l3,0.4l0.9-12.8c0,0,5.8,4.8,7.1,7.7l1.2,2.9l-0.1,0.4l3.9-1.8l0.2,0.4l3.6-1.4l3.7-1.2c0,0-1.4-3.6-2.1-3.6h-0.7l2.5-1.7
			l-0.7-0.7l4.3-1.3l4.3,5.2l2.5-5.4l3.6-4.1l3.7-2.8l-0.7-1l1.7-3l-0.7-1.1l0.6-1.6c0,0-3.7-0.3-7.7,2.5c-4,2.7-4.5,3.7-7.1,4
			c-2.5,0.3-3.8-0.3-5.3-1.3"/>
	</g>
	<g id="Layer_11">
		<path" d="M177.2,317.7c0,0-3.8,1.5-5.8,2.2c-0.4-0.6-0.7-1.1-1.1-1.7c0.9-0.6,1.4-1.2,1.5-1.9
			c0.4-3.6-12.6-22.9-12.6-22.9l0.3-0.9l-1.7,0.6l3.3-2.5L177.2,317.7L177.2,317.7L177.2,317.7z"/>
	</g>
	<g id="Lightining1">
		<g>
			<g>
				<g>
					<path d="M241.5,341.9c-1.6,1.4-3,2.7-4.2,3.9c-0.6,0.6-1.1,1.1-1.6,1.7l-0.7,0.8c-0.2,0.2-0.4,0.4-0.5,0.6
						c0,0.7,0,1.3,0,2s0,1.3,0,1.8c0,1.1,0.1,1.9,0.2,2.5c0.1,1.2,0.1,1.7-0.4,1.6c-0.6-0.1-1.3-0.2-1.8-1.3
						c-0.2-0.5-0.4-1.3-0.5-2.5c0-0.6-0.1-1.2,0-2c0-0.4,0-0.8,0.1-1.2v-0.3v-0.2V349l0.2-1.3c0.9-0.8,1.8-1.7,2.7-2.6
						c0.8-0.8,1.7-1.6,2.7-2.5c2.8-2.5,6.3-5.2,9.9-7.9c1.8-1.3,3.6-2.6,5.4-3.9c0.9-0.6,1.8-1.2,2.6-1.9l0.6-0.4l0.5-0.4
						c0.4-0.3,0.8-0.5,1.2-0.8c-1.7-3.1-3.3-6.1-4.5-8.2c-1.1-2.1-1.8-3.4-1.8-3.4s0.8,1.3,2,3.3c0.7,1,1.4,2.2,2.3,3.6
						c0.4,0.7,0.9,1.4,1.4,2.1c0.6,0.9,1.2,1.8,1.9,2.8c-2.9,2.3-6,4.8-9.1,7.3C247.1,337.2,244.1,339.6,241.5,341.9z"/>
				</g>
			</g>
		</g>
		<g>
			<g>
				<g>
					<path d="M233.4,327.2c-0.2,2.4-0.3,4.4-0.3,6.3s0,4,0,6c-1.7-1.2-3.3-2.2-4.4-2.9c-1.1-0.8-1.5-1.2-1.2-1.6
						c0.3-0.5,0.7-1,1.4-1.2s1.5-0.1,2.1,0c-0.1-0.4-0.1-0.7-0.2-1.1c0-0.1,0-0.2,0-0.3c0.1-0.7,0.1-1.5,0.2-2.3
						c0.2-1.9,0.4-3.9,0.7-6c0.1-0.5,0.2-1,0.2-1.6c0-0.3,0.1-0.5,0.1-0.8c0.1-0.5,0.1-0.9,0.2-1.4c0.2-1.6,0.5-3.4,0.7-5.2
						c1,0.7,2,1.5,3,2.2c0.5,0.3,0.9,0.7,1.4,1l0.7,0.5l0.3,0.2l0.2,0.2c1.1,0.9,2.2,1.8,3.3,2.8c2.1,1.8,4.1,3.5,5.8,5
						c3.4,3,5.6,5,5.6,5s-2.5-1.9-5.9-4.5c-1.8-1.4-3.9-2.9-6.1-4.6c-1.1-0.8-2.3-1.7-3.5-2.5s-2.3-1.7-3.4-2.5
						c-0.2,1.4-0.4,3-0.5,4.6C233.7,324.2,233.6,325.8,233.4,327.2z"/>
				</g>
			</g>
		</g>
		<g>
			<g>
				<g>
					<path d="M269.5,331.2c-17.4,12.8-19.4,18.1-20.2,17s-2.4-2.9,15-15.7c3.7-2.7,8-5.7,12.5-8.7
						c2.2-1.5,4.5-3,6.8-4.5c1.1-0.7,2.3-1.4,3.4-2.2l0.8-0.5l0.6-0.3l1.2-0.7c-0.4-0.4-0.8-0.9-1.2-1.3c-0.6-0.6-1.1-1.1-1.7-1.7
						c-1.2-1.2-2.3-2.3-3.4-3.4c-2.1-2.1-4-4.1-5.7-5.8c-3.2-3.3-5.2-5.5-5.2-5.5s2.1,2,5.5,5.2c1.7,1.6,3.7,3.5,5.9,5.6
						c1.1,1,2.3,2.1,3.5,3.2c1.4,1.2,2.8,2.5,4.2,3.8c-3.7,2.6-7.6,5.3-11.4,7.9C276.4,326.1,272.8,328.7,269.5,331.2z"/>
				</g>
			</g>
		</g>
		<g>
			<g>
				<g>
					<path d="M339.6,291.7c-15.2,15.4-16.4,20.9-17.4,19.9s-2.8-2.5,12.4-17.8c2.3-2.3,4.8-4.7,7.5-7.2
						c1.3-1.2,2.7-2.5,4.1-3.8c0.7-0.6,1.4-1.3,2.1-1.9c0.4-0.3,0.7-0.7,1.1-1c0.5-0.5,1.1-1,1.6-1.5c0.7,0.3,1.5,0.5,2.2,0.8
						l1.4,0.5c0.9,0.4,1.9,0.7,2.8,1.1c1.8,0.7,3.7,1.4,5.5,2.1c3.6,1.4,7,2.8,10.1,4c0.4-1,0.8-1.9,1.2-2.8c0.3-0.8,0.7-1.6,1-2.3
						c0.6-1.4,1.2-2.7,1.6-3.7c0.9-2,1.5-3.3,1.5-3.3s-0.5,1.2-1.3,3.3c-0.4,1.1-0.9,2.3-1.5,3.8c-0.3,0.7-0.6,1.5-0.9,2.3
						c-0.4,1.1-0.8,2.2-1.3,3.4c-1-0.3-2.1-0.7-3.2-1.1c-0.8-0.3-1.6-0.6-2.4-0.8c-1.7-0.6-3.4-1.2-5.2-1.8
						c-3.6-1.2-7.4-2.5-11.2-3.8c-2,2-4.1,4-6,5.9C343.4,287.9,341.4,289.8,339.6,291.7z"/>
				</g>
			</g>
		</g>
		<g>
			<g>
				<g>
					<path d="M402.1,281.3C390,295,389.6,300,388.5,299.1c-1.1-1-2.9-2.3,9.2-16c2.1-2.4,4.6-5.1,7.2-7.7
						c1.3-1.3,2.6-2.6,4-4c0.7-0.7,1.4-1.3,2-2c1-1,1.9-1.9,2.9-2.9c2.9,3.7,3.9,5.3,5.5,7.6c2.1,4.7,3.9,8.8,5.2,11.9
						c1.2,2.9,2,4.8,2,4.8s-0.9-1.8-2.3-4.7c-1.5-3-3.5-7-5.7-11.4c-1.5-2-3.1-4-4.7-6c-1,1-1.9,2-2.9,3.1s-2.1,2.2-3.1,3.3
						C405.9,277.1,403.9,279.2,402.1,281.3z"/>
				</g>
			</g>
		</g>
		<g>
			<g>
				<g>
					<path d="M389.6,275.6c-12.4,6.1-13.8,10.2-14.4,8.9c-0.6-1.3-1.8-3.3,10.6-9.4c2.7-1.3,5.8-2.7,9-4
						c1.6-0.6,3.3-1.3,4.9-1.9c0.8-0.3,1.6-0.6,2.4-0.9c0.4-0.1,0.9-0.3,1.2-0.4l0.9-0.3c0.1-0.4,0.2-0.7,0.3-1.2
						c0.1-0.5,0.2-1.1,0.3-1.6c0.2-1,0.4-2,0.6-3c0.4-1.9,0.8-3.6,1.1-5.1c0.6-2.8,1.1-4.7,1.1-4.7s-0.3,1.9-0.7,4.7
						c-0.2,1.5-0.5,3.2-0.7,5.1c-0.1,1-0.3,2-0.4,3c-0.1,1.1-0.3,2.3-0.4,3.5c-1.4,0.6-2.8,1.2-4.1,1.8c-1.3,0.6-2.7,1.2-4,1.8
						C394.6,273.1,392,274.4,389.6,275.6z"/>
				</g>
			</g>
		</g>
		<g>
			<g>
				<g>
					<path d="M374,296.2c14.2-2.8,16.8-6.4,17.1-4.9c0.3,1.4,0.8,3.6-13.4,6.4c-2.6,0.5-5.6,1-8.7,1.4
						c-1.6,0.2-3.1,0.4-4.7,0.5c-0.8,0.1-1.6,0.2-2.4,0.2c-0.4,0-0.8,0.1-1.2,0.1H360l-0.4,0.4L359,301l-1.2,1.5
						c-0.8,1-1.5,2-2.2,2.9c-1.4,1.8-2.8,3.5-3.9,5c-2.2,2.8-3.8,4.7-3.8,4.7s1.4-2,3.4-4.9c1-1.5,2.3-3.3,3.6-5.3
						c0.7-1,1.3-2,2-3.1s1.5-2.2,2.2-3.4c2.6-0.4,5.2-0.8,7.7-1.2C369.2,297,371.7,296.6,374,296.2z"/>
				</g>
			</g>
		</g>
	</g>
	<g id="Lightning2">
		<g>
			<g>
				<g>
					<path d="M359.1,262.7c-0.6-0.1-1.1-0.2-1.7-0.3c-9.6,4.6-10.6,8-11.2,6.7s-1.6-3.3,9.3-8.2c0.5-0.2,1-0.5,1.6-0.7
						c0.5,0.1,1,0.2,1.6,0.3c0.3,0.1,0.6,0.1,1,0.2c0.6,0.1,1.3,0.3,2,0.4c1.3,0.3,2.7,0.7,4.1,1c1.4,0.4,2.8,0.8,4.1,1.2
						c0.7,0.2,1.3,0.4,2,0.6l0.5,0.2c0.2,0,0.2,0.1,0.3,0.1l0.7,0.3l0.8-0.7l1-1c0.7-0.6,1.3-1.2,1.9-1.8c1.2-1.1,2.3-2.1,3.3-3
						c1.8-1.7,3.1-2.8,3.1-2.8s-1.1,1.2-2.8,3c-0.9,1-1.9,2.1-3,3.3c-0.6,0.6-1.2,1.3-1.8,1.9c-0.3,0.3-0.6,0.7-0.9,1
						c-0.4,0.4-0.7,0.8-1.1,1.3c-1.3-0.3-2.6-0.6-3.9-0.9s-2.5-0.5-3.7-0.8C363.9,263.6,361.4,263.1,359.1,262.7z"/>
				</g>
			</g>
		</g>
		<g>
			<g>
				<g>
					<path d="M394.7,316.6c-10.9,0-13.3,3-13.3,1.6s-0.1-3.7,10.8-3.7c1.9,0,4,0.1,6.1,0.3c1.1,0.1,2.2,0.2,3.3,0.3
						c0.5,0.1,1.1,0.1,1.7,0.2c0.8,0.1,1.6,0.1,2.4,0.2c0.2,0.7,0.5,1.5,0.7,2.2c0.1,0.5,0.3,1,0.4,1.5c0.2,1,0.5,1.9,0.7,2.9
						c0.4,1.9,0.8,3.6,1.2,5c0.6,2.9,1,4.8,1,4.8s-0.6-1.9-1.5-4.7c-0.5-1.4-1-3.1-1.6-4.9s-1.3-3.7-1.9-5.5c-0.8,0-1.6-0.1-2.4-0.1
						c-0.9,0-1.8-0.1-2.6-0.1C398,316.6,396.3,316.6,394.7,316.6z"/>
				</g>
			</g>
		</g>
		<g>
			<g>
				<g>
					<path d="M243.2,290.9c-3.1,11.1-0.8,14.4-2.2,14s-3.6-0.9-0.5-12c0.3-0.9,0.5-1.9,0.9-2.9c0.2-0.5,0.3-1,0.5-1.5
						c0.1-0.3,0.2-0.5,0.3-0.8c0.1-0.4,0.3-0.9,0.4-1.4c0.2-0.2,0.5-0.4,0.7-0.6l0.4-0.3l0.2-0.2c0.3-0.2,0.6-0.4,0.9-0.6
						c0.6-0.4,1.2-0.8,1.8-1.2c1.2-0.8,2.4-1.5,3.6-2.3c2.4-1.5,4.7-2.9,6.7-4c4.1-2.4,7-3.9,7-3.9s-10.9,7.3-19.6,14
						C243.8,288.7,243.5,289.8,243.2,290.9z"/>
				</g>
			</g>
		</g>
		<g>
			<g>
				<g>
					<path d="M316,274.3c-12.7,9.6-13.7,14.1-14.6,13c-0.9-1.2-2.3-2.9,10.4-12.5c1.1-0.8,2.2-1.6,3.4-2.5
						c0.6-0.4,1.2-0.8,1.8-1.3c0.8-0.6,0.7-0.4,0.9-0.6c0-0.1,0-0.2,0-0.3c-0.1-0.5-0.1-0.9-0.2-1.4c-0.1-1-0.2-2-0.3-3
						c-0.2-1.9-0.4-3.9-0.6-5.9c-0.2-1.9-0.3-3.8-0.5-5.7c-0.1-0.9-0.1-1.8-0.2-2.7s-0.1-1.7-0.2-2.4c2.7-1.2,5.1-2.2,6.9-3
						c1.7-0.7,2.7-1.1,2.7-1.1s-3.8,1.9-8.8,4.5c0.1,0.8,0.3,2.8,0.6,4.5c0.3,1.8,0.5,3.7,0.8,5.6c0.6,3.9,1.2,7.9,1.9,11.7
						C318.7,272.3,317.3,273.3,316,274.3z"/>
				</g>
			</g>
		</g>
	</g>
</g>
</svg>
