<?xml version="1.0" encoding="utf-8"?>
<!-- Generator: Adobe Illustrator 26.4.1, SVG Export Plug-In . SVG Version: 6.00 Build 0)  -->
<svg version="1.1" id="Main" xmlns="http://www.w3.org/2000/svg" xmlns:xlink="http://www.w3.org/1999/xlink" x="0px" y="0px"
	 viewBox="0 0 616.9 1114.1" style="enable-background:new 0 0 616.9 1114.1;" xml:space="preserve">
<style type="text/css">
	.st0{fill:#241B1B;stroke:#2B2120;stroke-miterlimit:10;}
	.st1{fill:#FFFFFF;stroke:#2B2120;stroke-miterlimit:10;}
	.st2{fill:#161A19;stroke:#2B2120;stroke-miterlimit:10;}
	.st3{fill:#C7A178;stroke:#2B2120;stroke-width:0.25;stroke-miterlimit:10;}
	.st4{fill:#FFDCAD;stroke:#2B2120;stroke-width:0.25;stroke-miterlimit:10;}
	.st5{fill:#2B2120;stroke:#2B2120;stroke-miterlimit:10;}
	.st6{opacity:0.1;fill:#FFD099;}
	.st7{opacity:0.1;fill:#8A7053;}
</style>
<g id="BackHair">
	<path class="st0" d="M353.8,848.1c0,4.2-0.4,8.2-1.4,12c0,0.1,0,0.2-0.1,0.3c-0.1,0.3-0.2,0.7-0.3,1c0,0,0,0,0,0
		c-0.3,0.9-0.5,1.8-0.9,2.7c-1.1,3.1-2.6,6.1-4.4,8.7c-0.6,0.9-1.2,1.7-1.9,2.5c-0.2,0.3-0.5,0.6-0.7,0.8c-0.5,0.5-1,1.1-1.5,1.6v0
		c-0.7,0.7-1.5,1.4-2.2,2c-0.5,0.4-0.9,0.8-1.4,1.1v0c-4.4,3.3-9.5,5.4-14.9,6.4c-2.9,0.5-5.9,0.8-8.9,0.7c-1.3,0-2.6-0.1-4-0.2
		c-7.4-0.7-15.1-3.1-22.6-7c-6.5-3.3-12.8-7.8-18.7-13.2c-2.8-2.6-5.6-5.5-8.2-8.6c-3.5-4.2-6.6-8.6-9.1-13.1
		c-13.3-23.1-14.2-48.6-1.7-63.7c0,0,0,0,0,0c1.3-1.6,2.8-3,4.4-4.4c4.1-3.4,8.9-5.8,14-7c2.1-0.5,4.3-0.9,6.6-1.1
		c4.8-0.4,9.8,0,14.9,1.1c0.3,0.1,0.7,0.2,1,0.2c3.3,0.8,6.6,1.9,10,3.3c2.1,0.9,4.1,1.9,6.2,2.9c1.7,0.9,3.4,1.9,5,2.9
		c7.5,4.7,14.6,10.9,20.9,18.5c11.1,13.3,17.6,28.5,19.3,42.5C353.7,843.5,353.8,845.8,353.8,848.1z"/>
	<path class="st0" d="M278.3,780.8c0,0-12.9,76.3,28.8,73.4c41.8-2.9,35.9,20.7,35.9,20.7s-8.8,117.6,20.6,132.4l11.8-2.9
		c0,0-20.6-17.6-5.9-29.4c14.7-11.8,14.7-11.8,14.7-11.8s-5.9,14.7-8.8,14.7c0,0,17.6,2.9,18.5-38.2c0,0,2.1-14.7-0.8-29.4
		c-2.4-12-35.3-44.1-35.3-44.1"/>
	<path class="st0" d="M293,719c0,0,38.2,120.6,120.6,120.6s26.5,120.6-8.8,88.2C369.4,895.5,267,733.7,267,733.7L293,719z"/>
	<path class="st0" d="M238,865.5l-0.3,10.8c-7.8,2.8-3.9-0.5-9.7,2.7c-0.7,0.4-1.3,0.7-1.9,1.1c-16.8,9.6-25.7,20.4-30.3,29.7
		c-0.8,1.5-27.5-12.5-28-11.1c-0.1,0.2-0.2,0.5-0.3,0.7c0,0.1-0.1,0.2-0.1,0.4c-0.1,0.2-0.2,0.5-0.2,0.7c0,0,0,0.1,0,0.1
		c-1.3,3.7-1.9,7.1-2.1,9.8c-0.4,4.5,0.1,7.3,0.1,7.3c-0.3-0.2-0.5-0.5-0.8-0.7c-2.3-2.2-4.2-4.5-5.8-6.8c-1-1.5-1.9-3-2.7-4.6
		c-0.4-0.8-0.8-1.6-1.1-2.5c-0.5-1.3-0.9-2.6-1.2-3.9c-5.1-20.3,11.5-41.2,26.7-55.4c11.5-10.7,22.1-17.6,22.1-17.6
		S302.7,842,238,865.5z"/>
	<path class="st0" d="M194.4,820.5c0,0-73.5,47.1-44.1,70.6c0,0-5.9-29.4,44.1-66.2S194.4,820.5,194.4,820.5z"/>
</g>
<g>
	<rect x="224.8" y="849.2" class="st1" width="45.9" height="90.4"/>
	<path class="st1" d="M377.8,965.9c0,0-1.5,127-8.4,145.2l-15.6,3.1C353.8,1114.1,325,981.6,377.8,965.9z"/>
	<path class="st1" d="M128.6,965.9c0,0,4.5,75.8,2.9,86.4c-1.6,10.7-2.9,61.8-2.9,61.8h32l-0.6-4.4l8.9-125.4L128.6,965.9z"/>
	<path class="st2" d="M385,958.6l-31.2,31.2v119.9H160l5.7-99.1l-49.3-33.9l46.1-88.6l59.9-33.8l15.3,29.3c4.5,8.6,16,10.4,22.9,3.5
		l34.3-32.8l59,25L385,958.6z"/>
</g>
<g id="Face">
	<path class="st3" d="M302.3,853.8c-0.3,0-0.7,0.1-1.1,0.2c-2.3,0.4-5,1.3-7.9,2.4c-1.8,0.7-3.6,1.4-5.5,2.2
		c-4.1,1.8-8.5,3.9-12.8,6c-3.5,1.7-6.9,3.5-10.1,5.1c-7.6,3.8-13.6,6.8-15.5,6.6c-5-0.4-22.1-25-22.1-25c0-3.8-4.9-9.6-8.4-13.3
		c25.4-11.3,32.7-22.2,34.1-25.5c1.5,5.2,4.4,13,10.2,20.4c4.4,5.6,10.3,11,18.5,15C287.4,850.8,294.2,852.9,302.3,853.8z"/>
	<path class="st4" d="M253.2,811.8c-0.1,0.1-0.3,0.1-0.4,0.2c0.1,0.2,0.1,0.3,0.1,0.5c-1.4,3.3-8.7,14.2-34.1,25.5
		c-12.1,3.7-24.1,4.4-29.8,4.4c-1.4,0-2.7-0.6-4.1-1.7c-1.2-0.9-2.4-2.3-3.6-3.9c-0.9-1.2-1.8-2.7-2.7-4.2
		c-7.4-13-13.2-34.4-13.2-34.4c5.9,0,11.8-5.7,11.8-5.7v-23.7c-0.1-1-0.2-2.1-0.3-3.1c0-0.4,0-0.8-0.1-1.2
		c-0.2-5.1,0.3-9.7,1.3-13.8c0,0,0,0,0,0c0.2-0.7,0.3-1.4,0.5-2.1c1.9-6.9,4.8-12.2,7.3-15.8c1.1-1.7,2.2-2.9,3-3.9
		c0.5-0.6,0.9-1,1.2-1.3c0.2-0.2,0.3-0.3,0.4-0.4l0.2,0.2l0.1,0.1l0.4,0.4l0.3,0.3c0.6,1.8,1.2,3.8,1.9,6c0,0.1,0,0.1,0.1,0.2
		c1.5,4.3,3.3,9.1,5.5,14.1c0,0,0,0,0,0.1c3.2,7.2,7.2,14.7,12.2,21.4c3.8,5.2,8.2,9.9,13.2,13.5c0.4,0.3,0.8,0.6,1.2,0.9
		c0,0,0,0,0.1,0c2.2,0.8,4.4,1.5,6.7,2.1c1.5,0.4,3.1,0.8,4.7,1.1c0.8,0.2,1.6,0.3,2.4,0.5c1.6,0.3,3.2,0.5,4.9,0.7l0.6,0.6
		c0.1-0.2,0.3-0.4,0.4-0.5c0.1-0.2,0.3-0.3,0.4-0.5c0.1-0.1,0.2-0.3,0.4-0.4c1.2-1.5,2.4-2.8,3.5-3.9l0.6-0.6c2.2-2.1,4-3.5,5.6-4.4
		c0,0,0,0,0,0c4.4-2.6,6.7-1.4,6.7-1.4c2,1.3,3.5,2.6,4.8,3.9c0.9,0.9,1.6,1.7,2.2,2.6c0.9,1.3,1.5,2.6,1.9,3.8
		C274.8,799,259.3,808.5,253.2,811.8z"/>
</g>
<path id="HairBase" class="st5" d="M318.9,744c0,22.7-21.6,41.8-50.7,47.1c-1-3.4-3.7-6.8-9-10.3c0,0-5.8-2.9-17.5,11.2
	c-0.3,0-0.7-0.1-1-0.1c-6.7-0.8-13-2.3-18.9-4.4c0,0,0,0-0.1,0c-19.2-12.8-35.2-37.1-39.7-51.9c-0.1-0.1,5-4.4,5-4.6l-0.5-0.3
	l-0.2-0.3c0,0,0,0-0.1,0.1l-6.8,5.4c-12,5.4-30.1,4.3-18.7-12.5c14.9-21.9,35.8-22.5,35.8-22.5l6-2.8c20.9-8.3,49.3-2.8,49.3-2.8
	C288.8,695.4,318.9,717.1,318.9,744z"/>
<g id="FrontHair">
	<path class="st5" d="M313.6,733.7c0,0,41.2,79.4,94.1,55.9c0,0,17.6-5.9,29.4,17.6c0,0-5.9-11.8-26.5-11.8s-47.1,11.8-85.3-35.3
		l-14.7-23.5L313.6,733.7z"/>
	<path class="st5" d="M313.6,739.6c0,0,35.3,64.7,50,61.8c14.7-2.9,26.5-8.8,82.4,11.8c0,0,35.3,8.8,11.8,55.9
		c0,0-8.8,32.4,17.6,26.5c0,0-8.8,17.6-26.5,8.8c0,0-5.9-11.8-5.9-20.6c0,0-1.8,19.6,0.6,23.1c0,0-27.1-8-6.5-43.5
		c0,0-11.8,11.6-20.6,8.6c0,0,29.4-17.6,17.6-29.4s-35.3-11.8-52.9,0s-70.6-11.2-70.6-90.9"/>
	<path class="st5" d="M345.4,906.2c-8.2,9.6,0.9,23.4,6.2,29.8c0,0,0,0,0,0c1.8,2.2,3.2,3.6,3.2,3.6c-0.9-0.2-1.8-0.4-2.7-0.7h0
		c-3.8-1-7-2-9.8-3.2c-22.9-9.3-14-22.6-14-22.6c-6.7,0-11.5-2.9-14.4-5.3c-2.2-1.8-3.3-3.5-3.3-3.5c1.2,0.5,2.3,0.9,3.4,1.2
		c12.2,3.3,17.2-4.1,17.2-4.1c0.9-6.5-2-10.9-7-14c-2.4-1.5-5.4-2.6-8.6-3.5c-1.2-0.3-2.3-0.6-3.5-0.9c-7.3-1.5-15.6-2-23.3-2.2
		c-3.7-0.1-7.3-0.1-10.5-0.1c-7.1,0-13.6-3.2-18.3-8.1c-6.7-6.9-10-17.2-7.2-26.8c0.9-3.2,2.6-6.4,5-9.3c0.2-0.2,0.3-0.4,0.5-0.7
		c5.9-7.9,8.8-26.4,10.2-45.3c0.5-6.7,0.8-13.5,1-19.9c0.5-16.1,0.1-29.6,0-33.2c0-0.6,0-0.9,0-0.9l1.8-5.3l7.1-21.1
		c0,0,3.3,4.7,6.8,13.3c3.3,8.3,6.6,20.3,7.2,35.4c0.1,3.8,0.1,7.9-0.2,12.1c0,0.4,0,0.8-0.1,1.2c-0.2,3.3-0.6,6.6-1.2,10.1
		c-0.5,3.2-1.1,6.4-1.9,9.7c-0.4,1.6-0.7,3.1-1.2,4.7c0,0,0,0,0,0c-1.6,6.1-3.8,12.5-6.5,19.2c-1.3,3.2-2.4,6.2-3.2,9.1v0
		c-3.2,10.8-3.3,19.2-1.3,25.8c1.3,4.2,3.4,7.7,6.1,10.6c7.5,7.8,19.4,11.2,30.6,12.5c1,0.1,2,0.2,2.9,0.3
		c8.5,0.8,16.4,0.6,21.2,0.5c0.9,0,1.8,0,2.5,0c1,0,1.9,0.1,2.9,0.2c0.3,0,0.6,0.1,1,0.1c0.4,0.1,0.7,0.1,1.1,0.2
		c13.6,2.7,27.6,15.3,7.2,25.8c-0.1,0.1-0.2,0.1-0.4,0.2C349,902.8,346.9,904.4,345.4,906.2C345.4,906.2,345.4,906.2,345.4,906.2z"
		/>
	<path class="st5" d="M301.8,763.1c0,0,44.1,105.5,72.1,89.5c27.9-16,86.8-18.9,60.3,66.4l-2.9,5.9c0,0,29.4,23.5-2.9,26.5
		c0,0-35.3,29.4-2.9,23.5c0,0-8.8,26.5-20.6,8.8c-11.8-17.6,17.6-41.2,17.6-41.2s-17.6,17.6-26.5,14.7c0,0,17.6-8.8,14.7-20.6
		c-2.9-11.8,29.9-52.8,6.1-60.2c0,0-9.1-19.2-53.2-7.4c0,0-83.2-64.8-87.2-94.2C272.4,745.5,301.8,763.1,301.8,763.1z"/>
</g>
<g id="FrontHair2">
	<path class="st5" d="M158.9,726.9c0,0-12,39.1,10.4,41.9c0,0-21.6-4.4-6.8-41L158.9,726.9z"/>
	<path class="st5" d="M160.5,731.6c0,0-12,39.1,10.4,41.9c0,0-21.6-4.4-6.8-41L160.5,731.6z"/>
	<path class="st5" d="M166.5,728.9c0,0-19.3,33.5,8.5,47.3c0,0-14-29-1.8-45.8"/>
	<path class="st5" d="M172.3,726.9c0,0-14.2,33.5,6.3,47.3c0,0-10.3-29-1.3-45.8"/>
	<path class="st5" d="M178.6,726.9c0,0-18.9,20.4,7.5,46.6c0,0-16.8-35.7,3.2-46.6C209.2,715.9,178.6,726.9,178.6,726.9z"/>
</g>
<path id="SideHair" class="st5" d="M186.6,730.4c0,0,13.8,60.9,57.8,61.3c0,0-50.6-6.6-60.4-60.4L186.6,730.4z"/>
<g id="Light">
	<path class="st6" d="M622.2,365.6v726.7c0,7.8-10.6,14.2-23.7,14.2H29c-13.1,0-23.7-6.4-23.7-14.2V365.6c0-7.8,10.6-14.2,23.7-14.2
		h569.5C611.6,351.4,622.2,357.7,622.2,365.6z"/>
</g>
<path class="st7" d="M248.3,814.9c0,0.2-0.1,0.4-0.2,0.7c-1.4,3.3-8.7,14.2-34.1,25.5c0,0,32.3-22.6,33.9-26
	C248.2,814.5,248.4,814.4,248.3,814.9z"/>
</svg>
