<?xml version="1.0" encoding="UTF-8"?>
<svg id="Layer_2" data-name="Layer 2" xmlns="http://www.w3.org/2000/svg" viewBox="0 0 1127 1127">
  <defs>
    <style>
      .cls-1 {
        fill: #b28285;
      }

      .cls-1, .cls-2, .cls-3 {
        stroke: #000;
        stroke-miterlimit: 10;
      }

      .cls-2 {
        fill: #a97881;
      }

      .cls-3 {
        fill: #9e7079;
      }
    </style>
  </defs>
  <g id="Layer_1-2" data-name="Layer 1">
    <g>
      <path class="cls-2" d="M1060.69,299.14c-101.07,82.59-248.22,162.81-439.69,164.86-262.25,2.81-443.06-142.79-520.89-220.33,7.71-11.15,15.81-22,24.28-32.54,8.34-10.39,17.04-20.47,26.1-30.23,32.63-35.22,69.72-66.26,110.37-92.22,41.69,56.53,128.73,148.58,267.14,172.32,139.81,23.98,284.64-29.89,384.84-139.03,60.67,48.06,111.2,108.36,147.85,177.17Z"/>
      <path class="cls-1" d="M260.86,88.68C348.26,32.85,452.1,.5,563.5,.5c131.98,0,253.35,45.41,349.34,121.47-100.2,109.14-245.03,163.01-384.84,139.03-138.41-23.74-225.45-115.79-267.14-172.32Z"/>
      <path class="cls-1" d="M1113.39,442.19c-76.89,39.47-162.93,74.72-258.39,101.81-362.11,102.74-675.34,35.73-852.86-23.82,7.78-102.23,42.86-196.82,97.97-276.51,77.83,77.54,258.64,223.14,520.89,220.33,191.47-2.05,338.62-82.27,439.69-164.86,23.7,44.46,41.6,92.48,52.7,143.05Z"/>
      <path class="cls-2" d="M1126.5,563.5c0,89.85-21.05,174.78-58.48,250.14-185.38,63.21-399.03,98.05-632.02,69.36-152.29-18.75-284.84-61.19-395.27-110.11h-.01C14.77,708.17,.5,637.5,.5,563.5c0-14.58,.55-29.02,1.64-43.32,177.52,59.55,490.75,126.56,852.86,23.82,95.46-27.09,181.5-62.34,258.39-101.81,8.59,39.06,13.11,79.66,13.11,121.31Z"/>
      <path class="cls-3" d="M1068.02,813.64c-19.34,38.93-43.05,75.3-70.49,108.47-159.06,30.17-409.33,46.15-587.53,30.89-111.66-9.56-212.22-30.42-300.06-55.91-28.03-38.03-51.38-79.71-69.21-124.2,110.43,48.92,242.98,91.36,395.27,110.11,232.99,28.69,446.64-6.15,632.02-69.36Z"/>
      <path class="cls-1" d="M997.53,922.11c-103.27,124.84-259.36,204.39-434.03,204.39-186.08,0-351.07-90.27-453.56-229.41,87.84,25.49,188.4,46.35,300.06,55.91,178.2,15.26,428.47-.72,587.53-30.89Z"/>
      <path class="cls-3" d="M1015,724c-42.34,26.67-97.5,33.91-139.69,26.96-142.83,48.18-300.12,102.75-469.41,85.17-141.07-14.64-263.85-47.79-366.14-86-12.02-25.27-21.34-51.71-27.64-79.05-6.32-27.34-9.62-55.59-9.62-84.49,0-11.38,.51-22.66,1.52-33.83,164.43,46.51,454.57,98.85,789.99,18.6,53.69-12.84,95.53-14.34,136.05-20.44,31.96-17.86,66.18-27.05,96.94-19.92,25.65,5.95,53.95,24.42,64,52,18.35,50.37-30.93,112.6-76,141Z"/>
      <path class="cls-2" d="M910,648c3.28-12.72,10.79-41.84,37-54,30.88-14.33,74.47,1.02,80,22,9.48,35.94-88.48,104.67-114,87-14.58-10.1-4.83-47.91-3-55Z"/>
      <path class="cls-3" d="M552,73c-6.96,21.83,9.2,34.71,0,53-11.42,22.7-51.39,32.81-66,20-11.33-9.94,1.16-26.16-7-61-7.92-33.81-24.85-40.57-21-53,10.65-34.37,152.96-24.46,155-7,1.24,10.56-50.04,13.6-61,48Z"/>
      <path class="cls-1" d="M268.93,228.35c-14.83,23.02-86.38,4.48-144.54-17.22,8.34-10.39,17.04-20.47,26.1-30.23,10.5-2.25,21.08-5.87,31.39-11.34,17.15-9.11,26.56-19.63,41.78-17.32,30.39,4.62,57.94,56.44,45.27,76.11Z"/>
      <ellipse class="cls-1" cx="220" cy="720.5" rx="96" ry="52.5"/>
      <circle class="cls-1" cx="186.5" cy="453.5" r="33.5"/>
      <circle class="cls-1" cx="709.5" cy="680.5" r="33.5"/>
    </g>
  </g>
</svg>