<?xml version="1.0" encoding="utf-8"?>
<!-- Generator: Adobe Illustrator 26.4.1, SVG Export Plug-In . SVG Version: 6.00 Build 0)  -->
<svg version="1.1" id="Layer_1" xmlns="http://www.w3.org/2000/svg" xmlns:xlink="http://www.w3.org/1999/xlink" x="0px" y="0px"
	 viewBox="0 0 528.4 700.5" style="enable-background:new 0 0 528.4 700.5;" xml:space="preserve">
<style type="text/css">
	.st0{fill:#FFFFFF;stroke:#6BC7ED;stroke-width:0.6;stroke-miterlimit:10;}
	.st1{fill:#FFFFFF;stroke:#FFE42A;stroke-width:0.6;stroke-miterlimit:10;}
	.st2{fill:#FFFFFF;stroke:#6BC7ED;stroke-miterlimit:10;}
	.st3{fill:#FFE42A;stroke:#FFE42A;stroke-miterlimit:10;}
	.st4{fill:none;stroke:#FFE42A;stroke-miterlimit:10;}
	.st5{fill:#FFFDD6;stroke:#FFE42A;stroke-miterlimit:10;}
	.st6{fill:#FFFFFF;stroke:#FFE42A;stroke-miterlimit:10;}
	.st7{opacity:0.2;fill:#FFFBB4;enable-background:new    ;}
	.st8{fill:#F7941D;stroke:#231F20;stroke-width:0.75;stroke-miterlimit:10;}
	.st9{fill:#F15A29;stroke:#231F20;stroke-miterlimit:10;}
	.st10{fill:#F19C7A;stroke:#231F20;stroke-width:0.25;stroke-miterlimit:10;}
	.st11{fill:#3C2415;stroke:#231F20;stroke-miterlimit:10;}
	.st12{fill:none;stroke:#231F20;stroke-miterlimit:10;}
	.st13{fill:#FFF0F0;stroke:#231F20;stroke-width:0.1;stroke-miterlimit:10;}
	.st14{fill:#FFBA00;stroke:#231F20;stroke-width:0.25;stroke-miterlimit:10;}
	.st15{fill:#FFFFFF;stroke:#231F20;stroke-miterlimit:10;}
	.st16{fill:#F4A87B;}
	.st17{fill:#E1B9A2;stroke:#231F20;stroke-width:9.000000e-02;stroke-miterlimit:10;}
	.st18{fill:#E6E7E8;stroke:#231F20;stroke-miterlimit:10;}
	.st19{fill:#F15A29;stroke:#231F20;stroke-width:0.25;stroke-miterlimit:10;}
</style>
<g id="Layer_1_00000119807395043595931440000001037807654117058495_">
	<g id="Dust">
		<g id="Thunder3">
			<g>
				<g>
					<g>
						<path class="st0" d="M305.5,436.4c-3.7-0.2-7.1,0.2-10,1c-2.9,0.7-5.5,1.6-7.7,2.5c-4.4,1.9-7.5,3.7-9.7,5.2
							c-4.4,3-5.5,4.3-5.8,3.8c-0.3-0.4-0.8-1,2-3.4c1.4-1.2,3.7-2.8,7.5-4.8c3.7-1.9,9.1-4.3,16.7-5.5c0.4-0.1,1-0.1,1.4-0.1
							l0.7-0.1h0.7c1,0,2-0.1,3.1-0.1c1,0.1,2,0.1,3.1,0.2c1,0.1,2.1,0.3,3.1,0.4c4.1,0.7,8.3,1.9,12.4,3.3c4.1,1.3,8.2,3,12.1,4.7
							c1.9,0.8,3.9,1.7,5.8,2.6c0.9,0.4,1.9,0.9,2.8,1.3c0.4,0.2,0.9,0.4,1.3,0.7c0.4,0.2,0.8,0.4,1.2,0.7
							c7.5-2.7,14.2-5.2,19.1-6.9c4.8-1.7,7.8-2.8,7.8-2.8s-2.9,1.1-7.7,3c-4.9,1.9-11.6,4.6-19.2,7.5c-0.8-0.4-1.6-0.8-2.5-1.2
							c-0.7-0.4-1.6-0.7-2.3-1.1c-1.6-0.7-3.2-1.4-4.9-2.2c-3.3-1.4-6.7-2.8-10.2-4c-0.9-0.3-1.7-0.6-2.6-0.9s-1.7-0.6-2.6-0.8
							s-1.7-0.5-2.6-0.7s-1.8-0.4-2.6-0.7C312.3,437.2,308.9,436.5,305.5,436.4z"/>
					</g>
				</g>
			</g>
			<g>
				<g>
					<g>
						<path class="st1" d="M324.9,428.7c-0.8,0.4-1.6,1-2.5,1.4c-5.9-2.5-11.1-4.6-15.9-6.5c-2.3-0.9-4.5-1.8-6.6-2.6
							c-1-0.4-2-0.7-3-1.1c-0.8-0.3-1.6-0.6-2.4-0.9c-0.8,1.9-1.6,3.7-2.3,5.2c-0.7,1.6-1.4,3.2-2,4.6c-1.2,2.7-2.1,4.9-2.8,6.4
							c-1.3,3.2-1.9,4.3-2.2,4.1c-0.4-0.2-0.9-0.4-0.1-3.1c0.4-1.3,1.2-3.4,2.4-6.4c0.6-1.5,1.4-3.2,2.3-5.2c0.4-1,1-2.1,1.5-3.2
							c0.3-0.6,0.5-1.2,0.8-1.8c0.4-1,1-2,1.5-3.1c3.1,1.3,6.6,2.7,10.5,4.3c3.5,1.4,7.3,3.1,11.7,4.9c2,0.9,4.1,1.7,6.3,2.7
							c3.1-1.7,6.4-3.6,9.7-5.5c3.6-1.9,7.2-4,10.9-6.1c3.7-2,7.4-4.1,11.1-6.1c3.7-1.9,7.3-4,10.8-5.9l0.1-0.2l0.1-0.3
							c0.1-0.2,0.2-0.5,0.3-0.7c0.2-0.5,0.4-1,0.7-1.4c0.5-1,1.1-1.9,1.8-2.7c0.7-0.8,1.4-1.6,2.2-2.2c0.8-0.7,1.7-1.2,2.7-1.6
							c1.9-0.8,4-1.1,6-1s3.9,0.7,5.7,1.3c3.5,1.4,6.6,3.4,9.2,5.5c1.3,1,2.6,2.1,3.7,3.1c1.2,1,2.2,2.1,3.3,3.1
							c4,4.2,6.7,8.2,8.2,11c0.7,1.4,1.2,2.6,1.6,3.4c0.3,0.8,0.4,1.2,0.4,1.2s-0.1-0.4-0.4-1.2c-0.3-0.8-0.8-1.9-1.6-3.4
							c-1.5-2.8-4.2-6.7-8.3-10.8c-1-1-2.1-2-3.3-3.1c-1.2-1-2.5-2-3.7-3.1c-2.7-2-5.7-4-9.1-5.3c-1.7-0.6-3.6-1.1-5.5-1.2
							s-3.8,0.2-5.6,1c-0.9,0.4-1.7,1-2.5,1.6c-0.7,0.6-1.5,1.3-2.1,2.2c-0.6,0.8-1.2,1.6-1.6,2.5c-0.2,0.4-0.4,0.9-0.7,1.4
							c-0.1,0.2-0.2,0.4-0.3,0.7c-0.1,0.2-0.2,0.5-0.3,0.8c-6.9,3.9-13.9,7.9-20.9,11.7C338.1,421.2,331.2,425.1,324.9,428.7z"/>
					</g>
				</g>
			</g>
			<g>
				<g>
					<g>
						<path class="st0" d="M350,445.1c-1.7-2.8-3.4-5.5-4.9-8c-0.7-1.2-1.5-2.4-2.2-3.5s-1.3-2.1-2-3.1c-2.2,1.6-4.2,3.1-6,4.5
							c-1.8,1.3-3.4,2.6-4.9,3.7c-2.9,2.2-5.1,4-6.7,5.3c-3.2,2.6-4.3,3.5-4.6,3.1c-0.3-0.4-0.7-0.9,1.8-3.3
							c1.3-1.2,3.3-2.9,6.4-5.3c1.6-1.2,3.4-2.6,5.5-4.2c1.1-0.8,2.2-1.6,3.5-2.5c0.6-0.4,1.3-0.9,1.9-1.4c1.1-0.8,2.3-1.6,3.4-2.5
							c1.6,2.8,3.5,5.8,5.5,9.1c1.4,2.4,2.9,4.9,4.4,7.4c0.7,1.3,1.5,2.6,2.3,3.9c0.4,0.7,0.7,1.3,1.2,2c0.3,0.4,0.2,0.4,0.3,0.4
							l0.1,0.2l0.3-0.1c0.4-0.3,0.9-0.6,1.3-0.9c1-0.7,2-1.3,3-1.9c2-1.3,4-2.6,6.1-4c4-2.6,8.2-5.2,12.3-7.9
							c8.1-5.2,15.9-10.1,22.5-14.2c7.1-0.5,13.2-2,17.3-3.8c2-0.9,3.6-1.8,4.6-2.5c0.5-0.4,0.8-0.7,1.1-0.9
							c0.2-0.2,0.4-0.3,0.4-0.3s-0.1,0.1-0.4,0.3c-0.2,0.2-0.6,0.5-1.1,0.9c-1,0.7-2.5,1.7-4.5,2.6s-4.6,1.8-7.5,2.5
							c-1.4,0.4-3,0.7-4.6,1c-0.8,0.1-1.6,0.3-2.5,0.4c-0.4,0.1-0.9,0.1-1.3,0.1c-0.4,0.1-1,0.1-1.2,0.1
							c-6.6,4.3-14.2,9.4-22.1,14.5c-8,5.3-16.4,10.8-24.1,16.1C353.2,450.3,351.6,447.6,350,445.1z"/>
					</g>
				</g>
			</g>
		</g>
		<g id="Thunder2">
			<g>
				<g>
					<g>
						<path class="st0" d="M196.6,442.5c-1.9-1.7-3.7-3.4-5.5-4.9c-0.9-0.7-1.8-1.5-2.7-2.1s-1.9-1.2-2.8-1.5c-1-0.4-2,0.2-2.8,0.6
							c-0.9,0.4-1.7,1-2.5,1.5c-1.6,1-3,2.1-4.3,3.1c-5.3,4-9,7.4-11.7,9.9c-5.5,5-7,6.7-7.3,6.3c-0.4-0.4-0.9-0.9,2.7-4.6
							c1.8-1.8,4.6-4.4,9.1-8.2c2.2-1.9,4.9-4,8.2-6.3c0.8-0.6,1.6-1.2,2.6-1.7c0.9-0.6,1.9-1.2,3.1-1.7l0.4-0.2l0.5-0.1
							c0.1-0.1,0.3-0.1,0.5-0.1c0.2-0.1,0.4-0.1,0.7-0.1c0.5-0.1,1,0,1.4,0.1s0.7,0.2,1.1,0.4c1.3,0.6,2.4,1.4,3.4,2.2
							c2.1,1.6,4,3.5,6.1,5.4c2,1.9,4,3.8,6.2,5.5c0.5,0.4,1.1,0.7,1.6,1c0.2,0.1,0.5,0.2,0.7,0.3c0.1,0,0.1,0.1,0.2,0
							c0.1,0,0.1-0.1,0.2-0.1l0.1-0.1l0.1-0.5c0.2-0.7,0.5-1.3,0.7-2.1c1-2.8,2.1-5.7,3.2-8.5c1.2-2.8,2.4-5.6,3.8-8.4
							c1.3-2.8,2.9-5.4,4.6-7.9c1.7-2.5,3.7-4.8,6.1-6.7c2.5-1.8,5.4-2.5,8.1-2.8c2.8-0.3,5.5-0.2,8-0.1s5,0.4,7.3,0.6
							c4.6,0.4,8.8,0.7,12.4,0.1c0.9-0.1,1.7-0.4,2.5-0.7c0.7-0.3,1.4-0.6,2-0.8c1.3-0.5,2.3-1,3.2-1.3c1.8-0.7,2.8-1.1,2.8-1.1
							s-0.8,0.4-2.3,1c-0.7,0.3-1.7,0.7-2.8,1.2c-0.5,0.2-1.1,0.5-1.7,0.7c-0.3,0.1-0.6,0.3-1,0.4s-0.7,0.3-1.1,0.4
							c-3.1,1-7,1-11.1,0.7c-4.1-0.2-8.7-0.7-13.5-0.7c-2.4,0-4.9,0.1-7.4,0.7c-1.2,0.3-2.5,0.7-3.6,1.3c-0.5,0.3-1.1,0.7-1.6,1
							c-0.5,0.4-1,0.9-1.5,1.3c-1.9,1.9-3.5,4.1-5,6.4c-1.4,2.3-2.8,4.9-4,7.3c-2.4,5.1-4.4,10.4-6.2,15.6c-0.2,0.7-0.4,1.3-0.7,1.9
							c-0.2,0.6-0.4,1.3-0.9,1.8c-0.6,0.4-1.3,0.3-1.9,0.1s-1.2-0.6-1.8-1C200.5,446,198.6,444.2,196.6,442.5z"/>
					</g>
				</g>
			</g>
			<g>
				<g>
					<g>
						<path class="st1" d="M226.9,434.7c-17.8,10-20.6,14.1-21.1,13.2c-0.5-1-1.5-2.3,16.2-12.3c0.9-0.5,1.9-1,2.8-1.6
							c1.1-0.6,2.2-1.2,3.4-1.8c0.5,0,1,0,1.6,0c0.4,0,0.7,0,1.2,0c0.8,0,1.6,0.1,2.4,0.1c1.6,0.1,3.2,0.1,4.9,0.1
							c1.6,0.1,3.3,0.1,4.9,0.2c0.8,0.1,1.6,0.1,2.5,0.1l1.2,0.1l0.8,0.1l0.4-0.5l0.6-0.9c0.4-0.6,0.7-1.2,1.2-1.8
							c0.7-1.1,1.5-2.3,2.2-3.4s1.4-2.2,2.2-3.2c0.4-0.5,0.7-1,1-1.5c0.1-0.2,0.3-0.4,0.4-0.7l0.2-0.3l0.1-0.1
							c0.1,0,0.1-0.1,0.1-0.1c0.7,0.5,1.1,0.8,1.9,1.3c0.7,0.4,1.4,0.7,2.1,1c1.3,0.6,2.5,1,3.7,1.2c1,0.2,1.9,0.4,2.5,0.4
							c0.3,0,0.5,0.1,0.7,0.1s0.2,0,0.2,0s-0.1,0-0.2,0s-0.4,0-0.7,0c-0.6,0-1.4-0.1-2.5-0.3c-1-0.2-2.3-0.5-3.7-1.1
							c-1.3-0.5-3.1-1.4-3.7-1.9c-0.1-0.1-0.1,0-0.1,0.1l-0.1,0.1l-0.1,0.2c-0.1,0.1-0.2,0.3-0.3,0.4c-0.3,0.5-0.6,1-0.9,1.5
							c-0.7,1-1.3,2.2-2,3.3c-1.4,2.3-2.9,4.8-4.4,7.3c-3.3-0.1-6.7-0.1-10-0.2s-6.5-0.1-9.7-0.1
							C228.1,434.1,227.5,434.4,226.9,434.7z"/>
					</g>
				</g>
			</g>
			<g>
				<g>
					<g>
						<path class="st1" d="M241.2,413.3c-2.2,1.7-4.3,3.2-6,4.6c-0.8,0.7-1.6,1.3-2.5,2c-0.7,0.7-1.6,1.3-2.2,1.9
							c-0.3-0.1-0.7-0.1-1-0.2s-0.5-0.1-0.8-0.1c-0.5-0.1-1-0.1-1.5-0.3c-0.9-0.1-1.8-0.3-2.5-0.4c-1.6-0.2-2.7-0.4-3.6-0.5
							c-1.8-0.2-2.4-0.4-2.2-0.7c0.1-0.4,0.2-1,1.8-1c0.7-0.1,1.9,0,3.5,0.2c0.8,0.1,1.8,0.3,2.9,0.5c0.6,0.1,1.2,0.2,1.8,0.4
							c0.3,0.1,0.7,0.1,1,0.2c0.2,0.1,0.2,0.1,0.2,0.1h0.1c0.1-0.1,0.1-0.1,0.1-0.1c0.2-0.2,0.5-0.4,0.7-0.6c0.5-0.4,1-0.8,1.6-1.3
							c1.2-0.9,2.5-1.9,3.8-2.9c2.7-2,5.8-4.3,9-6.5c1.6-1.1,3.2-2.2,4.9-3.4c1.7-1.2,3.4-2.4,5.2-3.6c1.2,0.1,1.6,0.1,2.3,0.2
							l2,0.2c1.3,0.1,2.6,0.2,3.9,0.4c2.5,0.2,5,0.5,7.4,0.7c4.6,0.5,8.8,1,11.7,1.3c0.2-0.1,0.4-0.2,0.7-0.4
							c0.1-0.1,0.3-0.1,0.4-0.2c0.3-0.1,0.6-0.3,0.8-0.4c0.5-0.2,1-0.4,1.3-0.7c0.7-0.4,1.1-0.5,1.1-0.5s-1.6,0.9-4.4,2.3
							c-3-0.2-7.1-0.5-11.8-0.9c-2.3-0.1-4.9-0.3-7.4-0.5c-2.5-0.1-5.2-0.4-7.9-0.5c-2.5,1.8-5,3.7-7.5,5.5
							C245.9,409.7,243.5,411.5,241.2,413.3z"/>
					</g>
				</g>
			</g>
		</g>
		<g id="Thunder1">
			<g>
				<g>
					<g>
						<path class="st0" d="M108.1,453.6c-4.5-0.1-8.5-1.3-11.9-2.9s-6.2-3.6-8.7-5.5c-2.4-1.9-4.5-3.9-6.2-5.7
							c-0.4-0.4-0.8-0.9-1.3-1.3c-0.4-0.4-0.7-0.8-1.1-1.2c-0.5-0.6-0.9-1-1.2-1.4c0,0,0-0.1-0.1-0.1v0.1l-0.1,0.1l-0.1,0.3
							c-0.1,0.2-0.1,0.4-0.1,0.5c-0.1,0.3-0.1,0.6-0.2,0.9c-0.3,1-0.6,2-0.8,2.8c-0.5,1.7-0.9,3.1-1.1,4c-0.6,2-0.9,2.7-1.2,2.6
							c-0.4-0.1-0.8-0.2-0.6-1.9c0.1-0.8,0.3-2.1,0.7-4c0.2-1,0.5-2,0.9-3.3c0.1-0.4,0.2-0.7,0.3-1c0.1-0.5,0.4-1.1,0.5-1.6
							c0.2-0.6,0.4-1.2,0.6-1.9c0.1-0.3,0.2-0.7,0.3-1l0.3-0.5c0.1-0.1,0.1-0.4,0.1-0.4c0.7,1,1.6,2.3,2.5,3.4
							c0.2,0.3,0.4,0.5,0.7,0.8l0.3,0.4l0.2,0.3c0.3,0.4,0.6,0.7,0.9,1c1.2,1.4,2.6,2.8,4.3,4.4c1.6,1.5,3.5,3.1,5.7,4.6
							s4.6,3,7.6,4c1.8,0.7,3.6,1.2,5.6,1.5c1.9,0.3,4,0.4,6,0.1s4.1-0.6,6-1.5c1.8-0.8,3.4-2.2,4.2-3.9c0.4-0.9,0.7-1.9,0.7-2.9
							s0.1-2.1-0.1-3.2c-0.3-2.2-0.9-4.3-1.8-6.5c-0.8-2.1-1.9-4.2-3-6.2c-0.5-1-1.1-2-1.7-3l-0.4-0.7l-0.3-0.4L114,423
							c-0.4-0.7-1-1.3-1.4-1.9V421c0,0,0.1,0,0.1-0.1l0.2-0.1l0.4-0.1l0.9-0.3c0.6-0.1,1.3-0.3,1.9-0.4c0.9-0.2,1.9-0.4,2.8-0.5
							c1.9-0.3,3.7-0.5,5.5-0.7c3.6-0.3,7.2-0.1,10.5,0.5c3.3,0.7,6.4,1.9,8.7,3.7c1.2,0.9,2.2,1.9,3.1,3c0.8,1.1,1.6,2.2,2,3.4
							c1,2.2,2.1,4.8,4.3,5.9c0.5,0.3,1.2,0.4,1.7,0.4c0.6,0,1.1-0.1,1.6-0.2c1-0.3,1.8-0.7,2.5-1.2c1.3-0.9,2.2-1.8,2.8-2.3
							c0.6-0.6,0.8-0.9,0.8-0.9s-0.3,0.3-0.8,0.9c-0.6,0.6-1.3,1.5-2.7,2.4c-0.7,0.4-1.4,1-2.5,1.3c-0.5,0.1-1,0.2-1.7,0.2
							c-0.6,0-1.3-0.1-1.8-0.4c-2.4-1.1-3.5-3.7-4.6-5.9c-0.5-1.1-1.3-2.2-2.1-3.3c-0.9-1-1.9-2-3.1-2.8c-2.3-1.7-5.3-2.8-8.5-3.5
							c-3.2-0.6-6.7-0.7-10.3-0.4c-1.8,0.1-3.6,0.4-5.4,0.7c-0.9,0.1-1.8,0.4-2.7,0.6l-1.2,0.3l-0.6,0.1l-0.3,0.1l-0.1,0.1l0,0
							l0.1,0.1c0.4,0.7,0.9,1.3,1.4,2s1,1.6,1.5,2.4c1,1.6,1.9,3.3,2.7,5c1.6,3.4,3,7,3.2,10.8c0.1,1.9-0.1,3.8-1,5.5
							c-0.8,1.6-2.2,3-3.7,4c-1.6,1-3.4,1.4-5.1,1.8C111.5,453.4,109.8,453.6,108.1,453.6z"/>
					</g>
				</g>
			</g>
			<g>
				<g>
					<g>
						<path class="st1" d="M109.9,447c-2.8-1.5-5.4-2.9-7.9-4.3c-2.4-1.3-4.6-2.5-6.8-3.6c-1.2,0.8-2.3,1.6-3.4,2.3
							c-1,0.7-2.1,1.5-3.1,2.2c-1.9,1.3-3.7,2.6-5.2,3.7c-3.1,2.2-5.4,4-7.1,5.2c-3.4,2.6-4.6,3.5-4.8,3.1c-0.3-0.4-0.7-0.9,2-3.3
							c1.3-1.2,3.5-2.8,6.8-5.2c1.6-1.2,3.6-2.5,5.9-4.1c1.2-0.8,2.4-1.6,3.7-2.5c1.6-1,3.3-2.2,5.1-3.4c2.4,1.3,5.1,2.8,7.9,4.3
							c4.8,2.6,10,5.6,15.5,8.7c2.7,1.6,5.5,3.1,8.2,4.7c1.3,0.8,2.8,1.6,4.2,2.4l1.9,1.1l0.9,0.6c1.2-8.2,2.5-16.4,3.6-24
							c0.6-4,1.2-7.8,1.7-11.4c0.3-1.8,0.5-3.4,0.8-5.1c0.1-0.7,0.2-1.4,0.3-2c0.1-0.5,0.1-1,0.3-1.6c0.5,0.6,1.1,1.1,1.6,1.6
							c0.7,0.7,1.3,1.3,1.9,1.9c1.3,1.3,2.3,2.3,3.2,3.2c1.8,1.8,2.8,2.8,2.8,2.8s-1-1-2.8-2.7c-0.9-0.9-2-1.9-3.3-3.1
							c-0.6-0.6-1.2-1.2-1.9-1.8c-0.4-0.4-0.8-0.8-1.3-1.2c-0.1,0.4-0.1,0.8-0.1,1.2c0,0.2-0.1,0.4-0.1,0.7
							c-0.1,0.4-0.1,0.7-0.1,1.1c-0.2,1.6-0.4,3.4-0.7,5.1c-0.4,3.6-1,7.4-1.5,11.4c-1,8.1-2.2,16.9-3.4,25.7
							c-4.3-2.4-8.6-4.8-12.8-7.1C117.9,451.4,113.8,449.2,109.9,447z"/>
					</g>
				</g>
			</g>
			<g>
				<g>
					<g>
						<path class="st0" d="M112.8,460.1c-2.8-1.3-5.2-2.5-7.6-3.5c-1.1-0.5-2.2-1-3.3-1.4c-0.5-0.2-1-0.4-1.5-0.7s-0.9-0.4-1.3-0.6
							c-1.3,0.7-2.6,1.3-3.8,1.9c-1.1,0.6-2.2,1.1-3.1,1.6c-1.9,1-3.3,1.8-4.3,2.4c-2.1,1.2-2.8,1.6-3,1.2c-0.1-0.4-0.4-1,1.2-2.2
							c0.8-0.6,2.1-1.4,4.1-2.5c1-0.5,2.2-1.1,3.6-1.9c0.7-0.4,1.5-0.7,2.2-1.1c0.4-0.2,0.8-0.4,1.3-0.6c0.7-0.3,1.3-0.6,2-0.9
							c1.4,0.7,2.9,1.3,4.5,2.1c1.4,0.7,2.9,1.3,4.5,2.2c1,0.5,2,1,3.1,1.5c0.5,0.2,1,0.5,1.6,0.8c0.2,0.1,0.4,0.2,0.7,0.3l0.1,0.1
							c2.3-1.6,4.8-3.3,7.3-5c2.9-1.9,5.8-3.9,8.8-5.9l1.3,0.4l0.8,0.3l1.6,0.5c1,0.4,2.1,0.7,3.1,1.1c2.1,0.7,4.1,1.4,6.1,2.2
							c4,1.4,7.8,2.8,11.2,4c3.7-2.5,7-4.7,9.2-6.2s3.5-2.3,3.5-2.3s-5.2,3.7-12.6,9.1c-3.5-1.1-7.4-2.4-11.5-3.7
							c-4-1.3-8.3-2.6-12.6-4c-5.5,3.8-11.2,7.9-16.2,11.4C113.4,460.5,113.1,460.3,112.8,460.1z"/>
					</g>
				</g>
			</g>
		</g>
		<g id="Dashes">
			<g id="Dash_00000150086131436228174350000006293844567770581146_">
				<polyline class="st2" points="457.2,379.1 27.6,379.8 27.6,376.9 457.2,376.3 				"/>
			</g>
			<g id="Zenitsu_00000087372654778646639810000010669524695751504280_">
				<path class="st3" d="M121.7,363.9c-0.8-0.4-1.4-0.8-1.9-1.3C120.6,363.1,121.2,363.5,121.7,363.9z"/>
				<g id="Layer_28_00000125586387867570205460000012715128697373327776_">
					<path class="st3" d="M153.4,362c0,0.1,0,0.1,0,0.2c0,0.2,0,0.4-0.1,0.5l0,0v-0.1C153.2,362.4,153.4,362.2,153.4,362L153.4,362z
						"/>
					<path class="st3" d="M159.1,358.9c-0.1,0.5-0.3,0.7-1.6,1.2c-1.7,0.5-3.4,0.9-4,1.6c0.6-0.7,2.3-1.1,4-1.6
						C158.6,359.7,158.9,359.3,159.1,358.9z"/>
					<path class="st3" d="M175.8,361.9c-1.7,1.1-3.9,2.5-6.1,4.2C171.1,364.5,173.1,363.1,175.8,361.9z"/>
					<path class="st3" d="M187.6,359.5c-0.8,0.1-1.8,0.2-3,0.4c0.8-0.2,1.8-0.5,2.7-0.5C187.4,359.4,187.5,359.5,187.6,359.5z"/>
				</g>
				<path class="st3" d="M195.1,359.7c-0.1,0.1-0.1,0.1-0.2,0.2C194.9,359.8,194.9,359.8,195.1,359.7
					C195,359.7,195,359.7,195.1,359.7z"/>
				<path class="st3" d="M197.7,369.2l-1.4-2.3c0.5-0.4,0.8-0.6,0.9-0.7C197.3,367.2,197.4,368.3,197.7,369.2z"/>
				<path class="st3" d="M200.3,372.1l-0.5-0.1c0-0.1,0-0.1,0-0.2L200.3,372.1z"/>
				<path class="st3" d="M208.6,363.5c-0.3,1.7-1,1.9-1.5,1.7l-1-2L208.6,363.5z"/>
				<path class="st3" d="M209.3,361l-0.7,0.2c-0.1-0.5-0.3-1-0.5-1.4C208.6,360.2,209,360.6,209.3,361z"/>
				<path class="st3" d="M212.7,361.9c-0.3,2.3-2.5,0.9-2.5,0.9s-0.2-0.8-0.8-1.7l3-0.7C212.5,360.8,212.7,361.4,212.7,361.9z"/>
				<path class="st3" d="M211.6,359.4c0.1,0.1,0.1,0.2,0.2,0.3C211.7,359.7,211.6,359.6,211.6,359.4L211.6,359.4z"/>
				<path class="st3" d="M212.3,360.3h-0.1c-0.1-0.3-0.3-0.5-0.5-0.7C211.9,359.8,212.1,360.1,212.3,360.3z"/>
				<path class="st3" d="M220.7,358.3c-0.1,0-0.1,0-0.2,0H220.7L220.7,358.3z"/>
				<path class="st3" d="M241.5,357c-0.1-0.1-0.4-0.2-0.7-0.4h0.1C241.1,356.8,241.3,356.9,241.5,357z"/>
				<path class="st3" d="M240.4,367l-0.5,0.1c-1.2,0.9-1.7,1.3-1.9,1c-0.3-0.3-0.8-0.7,0-1.7c0.3-0.4,0.8-0.8,1.5-1.4
					c0.3,0.8,0.6,1.4,0.8,1.8l0,0C240.4,366.9,240.4,367,240.4,367z"/>
				<path class="st3" d="M417.4,412.8L417.4,412.8L417.4,412.8c-1.1-1.7-9.2-4-9.2-4s-1.5,0.8-3.6,2.1l3.1-2.5c0,0-3.1-8.9-6.9-9.5
					c-3.7-0.6-10.3,0.6-11.7-1.2c-1.3-1.8-4.9-10.7-8.2-11.7c-1.8-0.5-4.7-1.2-7.1-1.6c-4.9,0.9-9.6,0.6-10.4,0.5v-0.1
					c0,0,5.1,0.5,10.5-0.5c1-0.2,1.8-0.4,2.6-0.6c-0.3-2.9-1-9.9-2.1-10.8c-1.4-0.8-12.9-8.8-12.9-10.7c0-1.9-11.5,1.4-14.5,0.5
					s-10.4-5.6-15.3-6.8c-2.5-0.6-7.9-5.8-13.1-10.7c5.1-1,10.2-1.9,15.1-2.9c-1.6,1.7-2.9,3-3.1,3.3c0.3-0.3,1.7-1.4,3.5-3.1
					c0.1-0.1,0.2-0.2,0.3-0.3c25.6-4.7,47.3-8.4,56-9.3l-2.3-7.7c-1.8,0-5.6,0.5-10.9,1.3c1.2-1.1,2.7-2.3,4.3-3.7
					c1.7-1.4,3.6-2.8,5.4-4.2c1-0.7,1.9-1.5,2.9-2.3s1.8-1.4,2.7-2.1c1.5,1.4,3,2.7,4.4,4.1c2.1,3,4,5.7,5.4,7.7
					c1,1.6,1.8,2.7,2.1,3.1c-0.2-0.4-0.9-1.5-1.8-3.2c-1.2-2.1-2.9-4.9-4.9-8c-1.5-1.5-2.5-2.6-5.2-5.2l-2.7,2
					c-0.6,0.5-1.2,0.9-1.9,1.4l-3.8,2.7c-2.5,1.8-4.8,3.6-6.7,5.2c-1.4,1.1-2.5,2.1-3.6,3c-13.8,2.3-35.2,6.4-57.2,10.8
					c1-2,2.2-4,3.5-6c0.8-0.6,1.8-1.3,2.7-2c1.7-1.3,3.6-2.5,5.4-3.9c1.8-1.3,3.8-2.6,5.6-4c3.6,0.9,7.1,1.7,10.5,2.5
					c1.7,0.5,3.3,0.8,4.9,1.3c0.7,0.1,1.5,0.4,2.3,0.5c1,0.3,2.1,0.5,3,0.7c0.5-0.8,0.8-1.5,1.2-2.3c0.1-0.2,0.2-0.4,0.3-0.5
					c-0.1-0.4,0.1-0.7,0.7-1.3c0.5-0.9,1-1.7,1.3-2.3c0.5-1,0.9-1.6,1.1-2c-0.2,0.4-0.6,1.1-1.3,2c-0.4,0.7-0.9,1.5-1.5,2.5
					c-0.3,0.5-0.6,1-1,1.5c-0.4,0.6-0.8,1.2-1.1,1.9c-2.9-0.8-6.1-1.7-9.5-2.7c-1.7-0.5-3.4-0.9-5.2-1.4c-0.8-0.3-1.8-0.5-2.7-0.7
					l-1.3-0.4c-0.6-0.2-1.4-0.4-2.1-0.5c-0.5,0.4-1,0.6-1.5,1c-0.4,0.2-0.6,0.5-1,0.7c-0.6,0.4-1.3,0.9-1.9,1.3
					c-1.3,0.9-2.7,1.7-3.8,2.5c-0.9,0.6-1.8,1.2-2.6,1.7c3.8-5.4,8.3-11.1,13.2-16.6l0,0c1-0.5,2.3-0.9,3.8-1.4
					c0.6,0.1,1,0.2,1.6,0.2c2.1,0.3,4.5,0.6,6.7,0.9c1.1,0.2,2.3,0.4,3.5,0.5c1.2,0.2,2.5,0.5,3.6,0.6c0.4-0.4,0.6-0.6,1-0.9
					c0.3-0.2,0.6-0.5,0.8-0.7c0.6-0.5,1.1-0.9,1.7-1.3c1-0.8,1.9-1.5,2.8-2.3c1.3-1,2.2-1.7,2.5-1.9c-0.3,0.2-1.4,0.8-2.8,1.8
					c-1,0.6-1.9,1.3-3.1,2c-0.6,0.4-1.1,0.8-1.8,1.2l-1,0.7l-0.8,0.5l-0.6-0.2c-0.1,0-0.1-0.1-0.3-0.1l-0.5-0.1
					c-0.6-0.2-1.2-0.3-1.9-0.5c-1.2-0.3-2.5-0.5-3.8-0.8c-1.3-0.2-2.6-0.5-3.8-0.7c-0.6-0.1-1.3-0.2-1.9-0.3c-0.4-0.1-0.6-0.1-1-0.1
					c-0.6-0.1-1-0.2-1.5-0.2c-0.5,0.1-0.8,0.3-1.2,0.4c21.9-24.3,49.8-46.7,49.8-46.7c-1.6-0.1-3.4-0.1-5.3,0.2
					c0.6-0.2,1.2-0.2,1.7-0.2c-9.1-1.9-23.7-4.5-30.4-4.8c-9.2-0.2-26.1,3.9-30.9,6c-3.4,1.5-18.9,10.7-26.4,15.3
					c-0.2-0.2-0.3-0.3-0.4-0.5c-3.6-4.5-8.6-8.7-9.7-9.6c0,0-8.6-11.3-14.3-12.7c-5.8-1.4-27.8,16.8-28.9,19.8
					c-1.3,3.1-15.5,6.6-15.5,6.6s-20.1,9.9-25.7,10.3c-5.6,0.5-25.5,8.7-25.5,8.7l-3,1.6c-3,1.6-12.2,14.7-14.2,16.5
					c-1.9,1.8-6,3.3-6,3.3s0.5,0.5,1.3,1.3l-3-0.8v-1.3l-2.6-1.4l-1.2-1.7l-1.7-3.3l-1.8,0.7l-3.4-2.3l-5.1-3.6l-3.4,3.4l-3.8-1.3
					l-2.3,3.2l-3.3-1.4l-0.5,0.6l-3.8-1.8l-0.4,0.7l-3.3-1.2c0,0-6.3,7.1-7.4,8.3c-1.1,1.2-9.4,4.1-9.4,4.1s-0.6,2.3-1.9,3.3
					c-1.2,1-3.7,5.2-4,7c-0.3,1.7-0.8,6.8,0,7.6c0.8,0.8-2.3,1.8-2.3,3.3c-0.1,1.4,0.1,5.2,1.6,5.9c1.5,0.6,1.2,2.6,0.6,2.9
					s0,3.3,1.9,4.7c1.9,1.4,2.1,4.6,3.4,5.6c1.4,1,2.5,1.6,3.2,3.2c0.6,1.5,1.2,9.6,1,10.5c-0.3,0.9,3.3,0.8,3.3,0.8l-0.3,0.5
					l3.3,0.3l0.4-0.9l2.9,0.3l0.8-8.7c0,0,5.5,3.3,6.7,5.2l1.1,2l-0.1,0.3l3.6-1.2l0.2,0.3l3.4-0.9l3.5-0.8c0,0-1.3-2.4-2-2.4h-0.6
					l2.3-1.2l-0.6-0.5l4-0.9l0.3,0.2c-0.6,0.7-1,1.6-1.5,2.5c0,0-1.6,5.2-2.5,5.6c-1,0.5-0.1,0.4-1.3,0.6
					c-1.2,0.3-15.1,7.7-16.5,10.8c-1.4,3.1,6.9,9.6,9.6,11c2.9,1.4,10.1,9.6,14.7,11.4s8.6,4.5,10.6,3.9c1.6-0.5,7.4-4,11.1-6.8
					c3.1,3-2.3,3.9,4.4,5.2c4.8,0.9,10.1,0.5,13.6,0.8l2.6-1.1c1.2,0.2,2.2,0.5,2.6,1.2c1.3,2.2,3.6,4.7,8.2,4.2s8.1,2.2,10.5,2.5
					c2.5,0.4,6.2-0.9,6.2,0s2.5,3.1,1.6,5c-0.3,0.8-0.2,1.3,0.1,1.5c-1.2,0.4-2.3,0.7-3.4,1.3c0,0-0.3,0.1-0.8,0.3
					c-0.3,0.6-1.7,4-2.2,4.4c-0.3,0.2-1.1,0.3-2,0.3l0,0c-1.2-0.1-2.5-0.3-2.5-0.3s0.3-1.6,1.9-3c-5.9,1.8-14.3,4.6-14.3,5.5
					c0.1,1.1,1.2,2,3.6,2.3l3.2-0.1c0.1,0.1,0.1,0.1,0.1,0.1c-1.4,0.1-2.5,0.1-3.4,0h-1.3v3.1c0,0,47.5,0.3,52-0.8
					c4.2-1,0.5-3.3,0.1-3.5c2.2-1.8,4-4.7-0.3-8.3c0,0-0.3-0.2-1-0.4l0.4-0.6c0,0.1,5.5-3.2,2.5-4.6c-3.1-1.4-5.6-0.2-6.6-3.3
					c-0.9-3,1-9.3-0.7-11.5l1.4-0.3c-2.5-1.6-5.5-3.1-5.5-3.1s5.3-1.8,5.6-3.3c0.4-1.4-8.8-3.6-4.7-4.7l4-1.2c0,0,5.8-3.3,13-3.3
					l7.3-0.1l32.2,1.8c0,0,9.4,1.6,12.1,2.7c2.5,1.1,10.4,11.5,12.7,11.8c2.3,0.4,18.2,3.8,20.9,2.8c2.5-1,4.9-3.5,6.2-2.5
					c0.3-0.5,0.7-1.1,1-1.6c0.6,1,1.5,1.8,2.5,1.6c2.1-0.3,8.2-2.3,10.5-1.7c2.3,0.6,6.9-0.9,11.5,1.2c4.6,2,10.3-1.5,10.8-1.5
					s0.5,2.5,2.1,3.4c1.7,0.9,3.8,2,4,2.9s0,2.6,1.8,3s7.8,2.3,10.3,1.6c0.5-0.1,1-0.4,1.6-0.6c-0.9,1.1-1.6,2.3-1.8,3.3
					c0,0,1.9,4.6-6.3,8.5c0,0-3.1,5.7-11.5,6.6c0,0-3.2,3-0.2,4v3.1c0,0,29.3,0.7,32.8-1.5c3.5-2.3,1.7-15.5,7.1-19.3
					C420.2,419.7,422.5,414.8,417.4,412.8z M158.2,326.9l0.3-0.2l0.1,0.1L158.2,326.9l-1,0.6L158.2,326.9z M119.7,362.7
					c0.9,0.4,1.6,0.8,1.9,1.3C121,363.5,120.3,363.2,119.7,362.7z M153.4,362.2c0,0.2,0,0.4-0.1,0.5l0,0v-0.1
					C153.2,362.5,153.4,362.3,153.4,362.2s0-0.2,0-0.2S153.4,362.1,153.4,362.2z M157.4,360.1c-1.7,0.5-3.4,0.9-4,1.6
					C154.1,360.9,155.8,360.6,157.4,360.1c1.1-0.5,1.4-0.8,1.6-1.2C158.9,359.3,158.7,359.7,157.4,360.1z M167,395.8
					c-0.2,0.1-0.1,0,0.2-0.2C167.2,395.6,167.2,395.8,167,395.8z M167.7,395c-0.2,0.1-0.1,0,0.2-0.2C167.8,395,167.8,395,167.7,395z
					 M169.8,366.1c1.4-1.4,3.4-3,6.1-4.2C174.1,363,171.9,364.4,169.8,366.1z M187.4,359.3c0.1,0.1,0.2,0.1,0.3,0.2
					c-0.8,0.1-1.8,0.2-3,0.4C185.5,359.7,186.4,359.5,187.4,359.3z M187,383.7L187,383.7c0.3-0.1,0.6-0.1,1-0.1
					C187.6,383.6,187.3,383.6,187,383.7z M188.6,383.5c-0.2,0-0.4,0-0.6,0C188.3,383.5,188.4,383.5,188.6,383.5L188.6,383.5z
					 M195,359.7L195,359.7c0,0.1-0.1,0.1-0.1,0.2C194.9,359.8,194.9,359.8,195,359.7z M191,359.1c0.1-0.1,0.3-0.2,0.4-0.2
					c0.6,0,1.2,0,1.8,0C192.5,359,191.8,359.1,191,359.1z M196.3,367.1c-0.1,0.1-0.3,0.2-0.4,0.4l-1.2-2v-1c0.1,0,0.1,0.1,0.2,0.1
					c1.3,0.9,2.1,1.4,2.3,1.6c0.1,0,0.1,0,0.1,0s0,0-0.1,0c0.1,0.9,0.2,2,0.5,3L196.3,367.1z M199.9,372c0-0.1,0-0.1,0-0.2l0.5,0.3
					L199.9,372z M264,352.8c-0.1,0-0.2,0.1-0.3,0.1l-0.1-1.4c0.1,0,0.1,0,0.1-0.1l0,0L264,352.8z M240.8,356.6
					c0.3,0.2,0.5,0.4,0.6,0.5C241.3,356.9,241.1,356.8,240.8,356.6L240.8,356.6z M245.7,352.4c-0.3,0-0.5,0.1-0.7,0.2
					c-0.1-0.1-0.1-0.2-0.2-0.3c0,0,0.1-0.2,0.4-0.5c0.1,0.1,0.2,0.2,0.3,0.3l3.2-0.7c0,0,0.6,0,1.4,0.2
					C248.5,351.9,247,352.1,245.7,352.4z M266.9,339c-0.2,0-0.3,0.1-0.5,0.2c-0.1-0.1-0.1-0.1-0.2-0.1c0.2,0,0.3-0.1,0.5-0.2
					C266.8,338.9,266.8,338.9,266.9,339z M257,341.5c-0.7,0.2-1.4,0.4-2.1,0.5c-0.3,0-0.5,0-0.8,0c0.6-0.2,1.3-0.3,1.9-0.5H257z
					 M236.9,323.6c0.6-0.3,1.3-0.5,1.9-0.9c1.2-0.5,2.3-1.1,3.4-1.5s2-0.8,2.9-1.2c3.8-1.6,6.6-2.6,6.6-2.6s-4.3,2.1-9.5,4.7
					c-2,1-4.2,2.2-6.2,3.3C236.3,324.8,236.5,324.1,236.9,323.6z M222.5,345.7L222.5,345.7c0.1-0.1,0.1,0,0.2,0
					c0.1,0.1,0.3,0.2,0.5,0.3c-0.2,0-0.5,0-0.6,0C222.5,345.9,222.5,345.8,222.5,345.7z M220.7,358.2
					C220.7,358.3,220.7,358.3,220.7,358.2c-0.1,0.1-0.1,0.1-0.2,0.1L220.7,358.2z M211.7,359.7c-0.1,0-0.1-0.1-0.1-0.2l-0.1-0.1
					C211.6,359.5,211.7,359.6,211.7,359.7z M207.1,365.3l-1-2l2.5,0.3C208.2,365.3,207.6,365.5,207.1,365.3z M212.7,361.9
					c-0.3,2.3-2.5,0.9-2.5,0.9s-0.2-0.8-0.8-1.7l-0.7,0.2c-0.1-0.5-0.3-1-0.5-1.4c0.5,0.5,1,0.9,1.2,1.3l3-0.7
					c-0.1-0.3-0.3-0.5-0.5-0.7c0.2,0.3,0.4,0.5,0.6,0.6h-0.1C212.5,360.8,212.7,361.4,212.7,361.9z M239.9,367.1
					c-1.2,0.9-1.7,1.3-1.9,1c-0.3-0.3-0.8-0.7,0-1.7c0.3-0.4,0.8-0.8,1.5-1.4c0.3,0.8,0.6,1.4,0.8,1.8l0,0c0.1,0.1,0.1,0.2,0.1,0.2
					L239.9,367.1z M260.3,350.7l0.4,2.3c-0.2,0.1-0.4,0.2-0.6,0.4L260.3,350.7z M264.2,356.6L264.2,356.6v-0.3h0.1L264.2,356.6
					L264.2,356.6z M311.6,338.9C311.6,338.9,311.5,338.9,311.6,338.9L311.6,338.9L311.6,338.9z"/>
				<path class="st3" d="M260.7,353.1c-0.2,0.1-0.4,0.2-0.6,0.4l0.2-2.6L260.7,353.1z"/>
				<path class="st3" d="M266.9,339c-0.2,0-0.3,0.1-0.5,0.2c-0.1-0.1-0.1-0.1-0.2-0.1c0.2,0,0.3-0.1,0.5-0.2
					C266.8,338.9,266.8,338.9,266.9,339z"/>
				<path class="st3" d="M263.8,351.5l0.3,1.3c-0.1,0-0.2,0.1-0.3,0.1l-0.1-1.4C263.7,351.6,263.7,351.5,263.8,351.5L263.8,351.5z"
					/>
				<polygon class="st3" points="264.2,356.2 264.2,356.6 264.2,356.4 264.1,356.2 				"/>
				<path class="st3" d="M222.7,345.7c0.1,0.1,0.3,0.2,0.5,0.3c-0.2,0-0.5,0-0.6,0C222.6,345.9,222.6,345.8,222.7,345.7
					C222.6,345.7,222.6,345.7,222.7,345.7z"/>
				<path class="st3" d="M248.7,351.4c0,0,0.6,0,1.4,0.2c-1.6,0.4-3,0.6-4.3,0.9c-0.3,0-0.5,0.1-0.7,0.2c-0.1-0.1-0.1-0.2-0.2-0.3
					c0,0,0.1-0.2,0.4-0.5c0.1,0.1,0.2,0.2,0.3,0.3L248.7,351.4z"/>
				<path class="st3" d="M257,341.5c-0.7,0.2-1.4,0.4-2.1,0.5c-0.3,0-0.5,0-0.8,0c0.6-0.2,1.3-0.3,1.9-0.5H257z"/>
				<path class="st3" d="M356.7,323c-0.1,0.1-0.1,0.1-0.1,0.2c-0.2,0.4-0.4,0.7-0.6,1.1"/>
				<path class="st3" d="M158.5,326.8l-0.3,0.2c-0.1,0-0.1,0-0.1,0L158.5,326.8L158.5,326.8z"/>
				<path class="st3" d="M251.7,317.4c0,0-4.3,2.1-9.5,4.7c-2,1-4.2,2.2-6.2,3.3c0.3-0.5,0.6-1.2,0.9-1.8c0.6-0.3,1.3-0.5,1.9-0.9
					c1.2-0.5,2.3-1.1,3.4-1.5c1-0.5,2-0.8,2.9-1.2C248.9,318.3,251.7,317.4,251.7,317.4z"/>
				<path class="st3" d="M222.7,345.7c0.1,0.1,0.3,0.2,0.5,0.3c-0.2,0-0.5,0-0.6,0C222.6,345.9,222.6,345.8,222.7,345.7L222.7,345.7
					C222.6,345.7,222.6,345.7,222.7,345.7z"/>
				<path class="st3" d="M257,341.5c-0.7,0.2-1.4,0.4-2.1,0.5c-0.3,0-0.5,0-0.8,0c0.6-0.2,1.3-0.3,1.9-0.5H257z"/>
				<path class="st3" d="M266.9,339c-0.2,0-0.3,0.1-0.5,0.2c-0.1-0.1-0.1-0.1-0.2-0.1c0.2,0,0.3-0.1,0.5-0.2
					C266.8,338.9,266.8,338.9,266.9,339z"/>
				<path class="st3" d="M191.2,440.1c0.1,0.1,0.1,0.1,0.1,0.1c-1.4,0.1-2.5,0.1-3.4,0L191.2,440.1z"/>
				<path class="st3" d="M203.5,430.9c-0.3,0.6-1.7,4-2.2,4.4c-0.3,0.2-1.1,0.3-2,0.3l0,0c-1.2-0.1-2.5-0.3-2.5-0.3s0.3-1.6,1.9-3
					C200.7,431.6,202.5,431.1,203.5,430.9z"/>
				<path class="st3" d="M200.6,435.3c-0.5,0.1-0.9,0.1-1.3,0.2"/>
				<g id="Hands_00000054984366889571953430000004249169121546645943_">
					<path class="st3" d="M197.7,369.2l-1.4-2.3l-1.5-2.4h0.1c1.3,0.9,2.1,1.4,2.3,1.6c0.1,0,0.1,0,0.1,0s0,0-0.1,0
						C197.3,367.2,197.4,368.3,197.7,369.2z"/>
					<path class="st3" d="M208.6,363.5c-0.3,1.7-1,1.9-1.5,1.7l-1-2L208.6,363.5z"/>
					<path class="st3" d="M212.7,361.9c-0.3,2.3-2.5,0.9-2.5,0.9s-0.2-0.8-0.8-1.7l3-0.7C212.5,360.8,212.7,361.4,212.7,361.9z"/>
					<path class="st3" d="M220.7,358.3c-0.1,0-0.1,0-0.2,0H220.7L220.7,358.3z"/>
					<path class="st3" d="M240.4,367l-0.5,0.1l-1.3,0.3l-0.6-1c0.3-0.4,0.8-0.8,1.5-1.4c0.3,0.8,0.6,1.4,0.8,1.8l0,0
						C240.4,366.9,240.4,367,240.4,367z"/>
					<path class="st3" d="M241.5,357c-0.1-0.1-0.4-0.2-0.7-0.4h0.1C241.1,356.8,241.3,356.9,241.5,357z"/>
					<path class="st3" d="M260.7,353.1c-0.2,0.1-0.4,0.2-0.6,0.4l0.2-2.6L260.7,353.1z"/>
					<path class="st3" d="M264,352.8c-0.1,0-0.2,0.1-0.3,0.1l-0.1-1.4c0.1,0,0.1,0,0.1-0.1l0,0L264,352.8z"/>
					<path class="st3" d="M311.7,338.9C311.6,338.9,311.6,338.9,311.7,338.9c-0.1,0.1-0.1,0-0.1,0S311.6,338.9,311.7,338.9z"/>
					<path class="st3" d="M208.6,363.5c-0.3,1.7-1,1.9-1.5,1.7l-1-2L208.6,363.5z"/>
					<g id="Layer_18_00000044864243520021898880000010576957414157649082_">
						<path class="st3" d="M251.7,317.4c0,0-4.3,2.1-9.5,4.7v-0.9c1-0.5,2-0.8,2.9-1.2C248.9,318.3,251.7,317.4,251.7,317.4z"/>
						<path class="st3" d="M266.9,339c-0.2,0-0.3,0.1-0.5,0.2c-0.1-0.1-0.1-0.1-0.2-0.1c0.2,0,0.3-0.1,0.5-0.2
							C266.8,338.9,266.8,338.9,266.9,339z"/>
						<path class="st3" d="M257,341.5c-0.7,0.2-1.4,0.4-2.1,0.5c-0.3,0-0.5,0-0.8,0c0.6-0.2,1.3-0.3,1.9-0.5H257z"/>
					</g>
					<g id="Layer_17_00000132807041646734359450000014547843484088298132_">
						<path class="st3" d="M257,341.5c-0.7,0.2-1.4,0.4-2.1,0.5c-0.3,0-0.5,0-0.8,0c0.6-0.2,1.3-0.3,1.9-0.5H257z"/>
					</g>
					<g id="Layer_9_00000015341792099306316230000005372048248522427826_">
						<path class="st3" d="M200.3,372.1l-0.5-0.1c0-0.1,0-0.1,0-0.2L200.3,372.1z"/>
					</g>
					<g id="Layer_8_00000160181233494090515400000016631553188091565226_">
						<path class="st3" d="M208.6,363.5c-0.3,1.7-1,1.9-1.5,1.7l-1-2L208.6,363.5z"/>
					</g>
					<g id="Layer_7_00000051374887597411561950000016123093698105490093_">
						<path class="st3" d="M211.7,359.7c-0.1,0-0.1-0.1-0.1-0.2l-0.1-0.1C211.6,359.5,211.7,359.6,211.7,359.7z"/>
						<path class="st3" d="M212.7,361.9c-0.3,2.3-2.5,0.9-2.5,0.9s-0.2-0.8-0.8-1.7l3-0.7C212.5,360.8,212.7,361.4,212.7,361.9z"/>
					</g>
					<g id="Layer_6_00000178921133197014696120000000625571322552672926_">
						<path class="st3" d="M211.7,359.7c-0.1,0-0.1-0.1-0.1-0.2l-0.1-0.1C211.6,359.5,211.7,359.6,211.7,359.7z"/>
					</g>
					<g id="Layer_5_00000146484741919673062150000016110339527988658590_">
						<path class="st3" d="M260.7,353.1c-0.2,0.1-0.4,0.2-0.6,0.4l0.2-2.6L260.7,353.1z"/>
						<path class="st3" d="M245.4,352.1l-0.6,0.2c0,0,0.1-0.2,0.4-0.5C245.2,352,245.4,352.1,245.4,352.1z"/>
						<path class="st3" d="M263.8,351.5l0.3,1.3c-0.1,0-0.2,0.1-0.3,0.1l-0.1-1.4C263.7,351.6,263.7,351.5,263.8,351.5L263.8,351.5z
							"/>
						<path class="st3" d="M264.2,356.2v0.2l0,0V356.2L264.2,356.2z"/>
					</g>
					<g id="Layer_3_00000146483343048663977520000005207310273728554909_">
						<path class="st3" d="M260.7,353.1c-0.2,0.1-0.4,0.2-0.6,0.4l0.2-2.6L260.7,353.1z"/>
					</g>
					<g id="Layer_2-2_00000044884820685316049200000006997886730204934273_">
						<path class="st3" d="M263.8,351.5l0.3,1.3c-0.1,0-0.2,0.1-0.3,0.1l-0.1-1.4C263.7,351.6,263.7,351.5,263.8,351.5L263.8,351.5z
							"/>
						<polygon class="st3" points="264.2,356.2 264.2,356.6 264.2,356.4 264.1,356.2 						"/>
					</g>
				</g>
				<path class="st3" d="M203.5,430.7L203.5,430.7c-0.3,0.7-1.8,4.1-2.3,4.5c-0.3,0.2-1.1,0.3-2,0.3l0,0c-1.2-0.1-2.5-0.3-2.5-0.3
					s0.3-1.6,1.9-3C199.6,431.5,201.2,430.8,203.5,430.7z"/>
				<path class="st3" d="M191.4,440.2c-1.4,0.1-2.5,0.1-3.4,0l3.2-0.1C191.4,440.2,191.4,440.2,191.4,440.2z"/>
				<path class="st3" d="M251.7,317.4c0,0-4.3,2.1-9.5,4.7c-2,1-4.2,2.2-6.2,3.3c0.3-0.5,0.6-1.2,0.9-1.8c0.6-0.3,1.3-0.5,1.9-0.9
					c1.2-0.5,2.3-1.1,3.4-1.5c1-0.5,2-0.8,2.9-1.2C248.9,318.3,251.7,317.4,251.7,317.4z"/>
				<g id="Layer_25_00000173123206283001273420000004624582671980941472_">
					<line class="st4" x1="158.5" y1="327" x2="158.5" y2="327"/>
				</g>
				<g id="Layer_23_00000128474409528389791190000015020478531045943437_">
					<line class="st4" x1="384.3" y1="262.2" x2="384.3" y2="262.2"/>
				</g>
				<g id="Layer_22_00000121959196996921723850000010308205191047615914_">
					<line class="st4" x1="384.3" y1="262.2" x2="384.3" y2="262.2"/>
				</g>
				<g id="Layer_21_00000114072789949611163460000015087037416796016259_">
					<path class="st3" d="M167.2,395.5c-0.1,0.1-0.1,0.2-0.2,0.2C166.8,395.8,167,395.8,167.2,395.5z"/>
				</g>
				<g id="Left-Hand_00000114073756121359830980000011170902615080338356_">
					<g id="Layer_19_00000120546790249156311080000000301427444072855710_">
						<path class="st3" d="M167.9,394.8c-0.1,0.1-0.1,0.2-0.2,0.2C167.5,395.1,167.6,395,167.9,394.8z"/>
						<path class="st3" d="M187.6,359.5c-0.8,0.1-1.8,0.2-3,0.4c0.8-0.2,1.8-0.5,2.7-0.5C187.4,359.4,187.5,359.5,187.6,359.5z"/>
						<path class="st3" d="M193.2,359c-0.6,0-1.4,0.1-2.1,0.2c0.1-0.1,0.3-0.2,0.4-0.2C192.1,358.9,192.7,358.9,193.2,359z"/>
						<path class="st3" d="M195.1,359.7c-0.1,0.1-0.1,0.1-0.2,0.2C194.9,359.8,194.9,359.8,195.1,359.7
							C195,359.7,195,359.7,195.1,359.7z"/>
					</g>
					<g id="Layer_16_00000000927946162375964420000015950121436483992226_">
						<path class="st3" d="M188.6,383.4C188.6,383.5,188.6,383.5,188.6,383.4c-0.2,0-0.4,0.1-0.6,0.1
							C188.3,383.5,188.4,383.5,188.6,383.4z"/>
						<path class="st3" d="M195.1,359.7c-0.1,0.1-0.1,0.1-0.2,0.2C194.9,359.8,194.9,359.8,195.1,359.7
							C195,359.7,195,359.7,195.1,359.7z"/>
					</g>
					<g id="Layer_20_00000057146569070561310580000011123857026320370346_">
						<path class="st3" d="M167.2,395.5c-0.1,0.1-0.1,0.2-0.2,0.2C166.8,395.8,167,395.8,167.2,395.5z"/>
						<path class="st3" d="M188.6,383.4C188.6,383.5,188.6,383.5,188.6,383.4c-0.2,0-0.4,0.1-0.6,0.1
							C188.3,383.5,188.4,383.5,188.6,383.4z"/>
					</g>
					<g id="Layer_15_00000169522737482655940260000002359638432761866427_">
						<path class="st3" d="M195.1,359.7c-0.1,0.1-0.1,0.1-0.2,0.2C194.9,359.8,194.9,359.8,195.1,359.7
							C195,359.7,195,359.7,195.1,359.7z"/>
						<path class="st3" d="M197.7,369.2l-1.4-2.3c-0.1,0.1-0.3,0.2-0.4,0.4l-1.2-2v-0.9c0.1,0,0.1,0.1,0.2,0.1
							c1.3,0.9,2.1,1.4,2.3,1.6v0.1C197.3,367.2,197.4,368.3,197.7,369.2z"/>
						<path class="st3" d="M200.3,372.1l-0.5-0.1c0-0.1,0-0.1,0-0.2L200.3,372.1z"/>
					</g>
				</g>
				<g id="Layer_13_00000065045848211206680500000017656830193784708774_">
					<path class="st3" d="M121.7,363.9c-0.8-0.4-1.4-0.8-1.9-1.3C120.6,363.1,121.2,363.5,121.7,363.9z"/>
					<path class="st3" d="M153.4,362c0,0.1,0,0.1,0,0.2c0,0.2,0,0.4-0.1,0.5l0,0v-0.1C153.2,362.4,153.4,362.2,153.4,362L153.4,362z
						"/>
					<path class="st3" d="M159.1,358.9c-0.1,0.5-0.3,0.7-1.6,1.2c-1.7,0.5-3.4,0.9-4,1.6c0.6-0.7,2.3-1.1,4-1.6
						C158.6,359.7,158.9,359.3,159.1,358.9z"/>
				</g>
				<g id="Hair_00000090290711236686102510000011112883247128450960_">
					<path class="st3" d="M121.7,363.9c-0.8-0.4-1.4-0.8-1.9-1.3C120.6,363.1,121.2,363.5,121.7,363.9z"/>
					<polygon class="st3" points="158.5,326.8 158.3,327 157.2,327.6 158.2,326.9 					"/>
				</g>
				<g id="Lightining1_00000062885727457099445080000011605642286629633923_">
					<g>
						<g>
							<g>
								<path class="st3" d="M241.5,357c-0.1-0.1-0.4-0.2-0.7-0.4h0.1C241.1,356.8,241.3,356.9,241.5,357z"/>
								<path class="st3" d="M245.7,352.4c-0.3,0-0.5,0.1-0.7,0.2c-0.1-0.1-0.1-0.2-0.2-0.3c0,0,0.1-0.2,0.4-0.5
									c0.1,0.1,0.2,0.2,0.3,0.3l0,0C245.6,352.2,245.6,352.3,245.7,352.4z"/>
							</g>
						</g>
					</g>
					<g>
						<g>
							<g>
								<path class="st3" d="M223.2,346c-0.2,0-0.5,0-0.6,0c0-0.1,0-0.2,0.1-0.2v-0.1c0.1,0,0.1,0.1,0.2,0.1
									C222.8,345.8,223,345.9,223.2,346z"/>
								<path class="st3" d="M241.5,357c-0.1-0.1-0.4-0.2-0.7-0.4h0.1C241.1,356.8,241.3,356.9,241.5,357z"/>
							</g>
						</g>
					</g>
					<g>
						<g>
							<g>
								<path class="st3" d="M240.3,366.8L240.3,366.8c-0.1,0.1-0.3,0.2-0.4,0.3c-1.2,0.9-1.7,1.3-1.9,1c-0.3-0.3-0.8-0.7,0-1.7
									c0.3-0.4,0.8-0.8,1.5-1.4C239.8,365.7,240.1,366.4,240.3,366.8z"/>
								<path class="st3" d="M266.9,339c-0.2,0-0.3,0.1-0.5,0.2c-0.1-0.1-0.1-0.1-0.2-0.1c0.2,0,0.3-0.1,0.5-0.2
									C266.8,338.9,266.8,338.9,266.9,339z"/>
								<path class="st3" d="M264,352.8c-0.1,0-0.2,0.1-0.3,0.1l-0.1-1.4c0.1,0,0.1,0,0.1-0.1l0,0L264,352.8z"/>
							</g>
						</g>
					</g>
					<g>
						<g>
							<g>
								<path class="st3" d="M311.7,338.9C311.6,338.9,311.6,338.9,311.7,338.9c-0.1,0.1-0.1,0-0.1,0S311.6,338.9,311.7,338.9z"/>
								<path class="st3" d="M356.7,323c-0.1,0.1-0.1,0.1-0.1,0.2c-0.2,0.4-0.4,0.7-0.6,1.1C356,323.9,356.1,323.5,356.7,323z"/>
							</g>
						</g>
					</g>
					<g>
						<g>
							<g>
								<path class="st3" d="M356.7,323c-0.1,0.1-0.1,0.1-0.1,0.2c-0.2,0.4-0.4,0.7-0.6,1.1C356,323.9,356.1,323.5,356.7,323z"/>
							</g>
						</g>
					</g>
				</g>
				<g id="Lightning2_00000140714386667861158420000008288468614449847731_">
					<g>
						<g>
							<g>
								<path class="st3" d="M251.7,317.4c0,0-4.3,2.1-9.5,4.7c-2,1-4.2,2.2-6.2,3.3c0.3-0.5,0.6-1.2,0.9-1.8
									c0.6-0.3,1.3-0.5,1.9-0.9c1.2-0.5,2.3-1.1,3.4-1.5c1-0.5,2-0.8,2.9-1.2C248.9,318.3,251.7,317.4,251.7,317.4z"/>
							</g>
						</g>
					</g>
				</g>
			</g>
			<g id="Zenitsu_00000099626416459563480710000005312992039939446698_">
				<path class="st5" d="M125.1,361.6c-0.6-0.4-1.2-0.6-1.7-1.1C124.2,360.9,124.7,361.3,125.1,361.6z"/>
				<g id="Layer_28_00000144296354494079628340000006365150677187871909_">
					<path class="st5" d="M152.1,359.9c0,0.1,0,0.1,0,0.2c0,0.2,0,0.3-0.1,0.4l0,0v-0.1C152.1,360.3,152.1,360.1,152.1,359.9
						C152.1,360,152.1,360,152.1,359.9z"/>
					<path class="st5" d="M157.1,357.3c-0.1,0.4-0.3,0.6-1.4,1c-1.4,0.5-2.9,0.8-3.4,1.4c0.5-0.6,1.9-0.9,3.4-1.4
						C156.6,357.9,156.9,357.7,157.1,357.3z"/>
					<path class="st5" d="M171.3,359.9c-1.4,0.9-3.3,2.2-5.2,3.5C167.4,362.2,169,360.9,171.3,359.9z"/>
					<path class="st5" d="M181.4,357.8c-0.7,0.1-1.6,0.2-2.5,0.4c0.7-0.2,1.5-0.4,2.3-0.5C181.3,357.8,181.3,357.8,181.4,357.8z"/>
				</g>
				<path class="st5" d="M187.7,358c-0.1,0-0.1,0.1-0.1,0.1C187.6,358.1,187.7,358.1,187.7,358L187.7,358z"/>
				<path class="st5" d="M190,366.2l-1.2-1.9c0.4-0.4,0.6-0.5,0.8-0.6C189.6,364.4,189.8,365.3,190,366.2z"/>
				<path class="st5" d="M192.2,368.6l-0.4-0.1c0-0.1,0-0.1,0-0.1L192.2,368.6z"/>
				<path class="st5" d="M199.3,361.3c-0.3,1.4-0.8,1.6-1.3,1.4l-0.8-1.7L199.3,361.3z"/>
				<path class="st5" d="M199.9,359.2l-0.6,0.2c-0.1-0.5-0.3-0.8-0.5-1.3C199.3,358.4,199.6,358.8,199.9,359.2z"/>
				<path class="st5" d="M202.8,359.9c-0.3,2-2.1,0.7-2.1,0.7s-0.1-0.7-0.7-1.4l2.5-0.6C202.7,359,202.8,359.5,202.8,359.9z"/>
				<path class="st5" d="M201.8,357.8c0.1,0.1,0.1,0.2,0.2,0.2C202,357.9,202,357.8,201.8,357.8
					C201.9,357.8,201.8,357.8,201.8,357.8z"/>
				<path class="st5" d="M202.5,358.5h-0.1c-0.1-0.2-0.3-0.4-0.4-0.5C202.1,358.1,202.3,358.4,202.5,358.5z"/>
				<path class="st5" d="M209.7,356.8c-0.1,0-0.1,0-0.2,0H209.7L209.7,356.8z"/>
				<path class="st5" d="M227.4,355.8c-0.1-0.1-0.3-0.2-0.6-0.4h0.1C227.1,355.5,227.3,355.7,227.4,355.8z"/>
				<path class="st5" d="M226.4,364.2l-0.4,0.1c-1,0.8-1.4,1.1-1.7,0.8s-0.6-0.6,0-1.4c0.3-0.3,0.6-0.7,1.3-1.2
					c0.3,0.6,0.6,1.3,0.7,1.5l0,0C226.4,364.2,226.4,364.2,226.4,364.2z"/>
				<path class="st5" d="M377.6,403.4L377.6,403.4C377.5,403.4,377.5,403.4,377.6,403.4c-1-1.4-7.9-3.4-7.9-3.4s-1.3,0.7-3,1.8
					l2.7-2.2c0,0-2.7-7.6-5.8-8.1c-3.1-0.5-8.8,0.5-9.9-1s-4.2-9.1-6.9-10c-1.6-0.5-4-1-6-1.4c-4.2,0.8-8.2,0.5-8.9,0.5v-0.1
					c0,0,4.3,0.5,9-0.5c0.8-0.1,1.5-0.3,2.3-0.5c-0.3-2.4-0.9-8.5-1.8-9.1c-1.2-0.7-11-7.4-11-9s-9.8,1.2-12.3,0.4
					c-2.6-0.8-8.9-4.8-13.1-5.8c-2.2-0.5-6.7-5-11.2-9.1c4.3-0.8,8.7-1.6,12.9-2.4c-1.4,1.4-2.5,2.5-2.7,2.7c0.3-0.3,1.4-1.3,3-2.6
					c0.1-0.1,0.1-0.1,0.2-0.2c21.8-4.1,40.4-7.1,47.8-8l-1.9-6.6c-1.5,0-4.7,0.4-9.3,1.1c1-0.9,2.3-2,3.7-3.2c1.4-1.2,3-2.4,4.6-3.6
					c0.8-0.6,1.7-1.3,2.5-1.9s1.5-1.2,2.3-1.8c1.3,1.2,2.6,2.3,3.8,3.4c1.8,2.5,3.4,4.9,4.5,6.6c0.9,1.4,1.6,2.3,1.8,2.6
					c-0.2-0.3-0.8-1.3-1.6-2.6c-1-1.8-2.5-4.2-4.2-6.9c-1.3-1.4-2.1-2.3-4.4-4.4l-2.3,1.7c-0.5,0.4-1,0.7-1.6,1.2l-3.2,2.3
					c-2.1,1.5-4.1,3.1-5.8,4.4c-1.2,1-2.2,1.8-3,2.5c-11.8,1.9-30.1,5.4-48.9,9.2c0.9-1.6,1.9-3.3,3-5.2c0.7-0.5,1.5-1.1,2.3-1.7
					c1.4-1.1,3-2.2,4.6-3.3c1.5-1.1,3.2-2.3,4.8-3.4c3,0.7,6.1,1.5,9,2.2c1.4,0.4,2.8,0.7,4.2,1.1c0.6,0.1,1.3,0.3,1.9,0.5
					c0.9,0.2,1.8,0.5,2.6,0.6c0.4-0.7,0.7-1.4,1-2c0.1-0.2,0.1-0.3,0.2-0.5c0-0.3,0.1-0.6,0.6-1.1c0.5-0.8,0.8-1.4,1.1-2
					c0.5-0.8,0.8-1.4,0.9-1.7c-0.2,0.3-0.6,0.9-1.1,1.7c-0.3,0.5-0.8,1.4-1.3,2.2c-0.3,0.4-0.6,0.9-0.8,1.4c-0.3,0.5-0.6,1.1-1,1.6
					c-2.5-0.7-5.2-1.5-8.1-2.3c-1.4-0.4-3-0.8-4.4-1.2c-0.7-0.3-1.5-0.4-2.3-0.6l-1.1-0.3c-0.6-0.2-1.2-0.3-1.8-0.5
					c-0.4,0.3-0.9,0.5-1.3,0.9c-0.3,0.2-0.6,0.4-0.9,0.5c-0.6,0.4-1.1,0.7-1.7,1.1c-1.1,0.7-2.3,1.5-3.3,2.2c-0.8,0.5-1.5,1-2.2,1.4
					c3.2-4.7,7.1-9.5,11.3-14.2l0,0c0.9-0.4,1.9-0.8,3.2-1.2c0.5,0.1,0.9,0.1,1.4,0.2c1.8,0.3,3.8,0.5,5.8,0.7c1,0.2,1.9,0.3,3,0.5
					c1,0.2,2.1,0.4,3.1,0.5c0.3-0.3,0.6-0.5,0.9-0.7s0.5-0.4,0.7-0.5c0.5-0.4,1-0.7,1.4-1.1c0.9-0.7,1.7-1.4,2.4-1.9
					c1.1-0.8,1.9-1.4,2.1-1.6c-0.3,0.2-1.2,0.7-2.4,1.5c-0.8,0.5-1.7,1.1-2.7,1.7c-0.5,0.4-1,0.7-1.5,1l-0.8,0.5l-0.6,0.4l-0.6-0.2
					c-0.1,0-0.1-0.1-0.3-0.1l-0.4-0.1c-0.6-0.1-1-0.3-1.6-0.4c-1-0.3-2.1-0.5-3.3-0.7c-1.1-0.2-2.3-0.4-3.3-0.5
					c-0.6-0.1-1.1-0.2-1.6-0.3c-0.3-0.1-0.6-0.1-0.8-0.1c-0.5-0.1-0.9-0.1-1.3-0.2c-0.4,0.1-0.7,0.2-1,0.4
					c18.8-20.8,42.4-39.9,42.4-39.9c-1.4-0.1-2.9-0.1-4.5,0.1c0.5-0.1,1-0.2,1.4-0.2c-7.8-1.6-20.2-3.9-26-4.1
					c-7.9-0.2-22.3,3.3-26.4,5.1c-2.9,1.3-16.2,9.1-22.5,13c-0.1-0.1-0.3-0.3-0.3-0.4c-3-3.9-7.3-7.4-8.2-8.2c0,0-7.3-9.7-12.2-10.8
					c-4.9-1.2-23.7,14.3-24.7,16.9c-1.1,2.6-13.2,5.7-13.2,5.7s-17.2,8.4-21.9,8.8s-21.7,7.4-21.7,7.4l-2.6,1.4
					c-2.6,1.4-10.4,12.6-12.1,14.1c-1.7,1.5-5.1,2.8-5.1,2.8s0.4,0.4,1.1,1.1l-2.6-0.7v-1.1l-2.3-1.2l-1-1.4l-1.4-2.8l-1.5,0.6
					l-2.9-2l-4.3-3.1l-2.9,3l-3.2-1.1l-1.9,2.7l-2.8-1.3l-0.4,0.5L123,318l-0.3,0.5l-2.8-1c0,0-5.4,6.1-6.4,7.1s-8,3.4-8,3.4
					s-0.6,2-1.6,2.9s-3.1,4.4-3.4,6c-0.3,1.5-0.6,5.8,0,6.5s-1.9,1.5-2,2.9c-0.1,1.3,0.1,4.5,1.4,5.1c1.3,0.5,1,2.3,0.5,2.4
					c-0.6,0.2,0,2.8,1.6,4s1.8,3.9,3,4.8s2.1,1.4,2.7,2.7c0.5,1.4,1,8.2,0.9,8.9c-0.3,0.7,2.8,0.7,2.8,0.7l-0.3,0.5l2.8,0.3l0.3-0.7
					l2.4,0.2l0.7-7.4c0,0,4.7,2.8,5.7,4.4l1,1.7l-0.1,0.3l3.1-1.1l0.1,0.3l2.9-0.8l3-0.7c0,0-1.1-2.1-1.7-2.1h-0.6l2-1l-0.6-0.4
					l3.4-0.7l0.2,0.2c-0.5,0.6-0.9,1.4-1.2,2.2c0,0-1.4,4.3-2.1,4.8c-0.8,0.4-0.1,0.3-1.1,0.5c-1,0.3-12.8,6.5-14,9.2
					c-1.2,2.6,5.8,8.2,8.2,9.4c2.4,1.2,8.7,8.2,12.5,9.7s7.3,3.9,9.1,3.3c1.3-0.5,6.3-3.3,9.5-5.8c2.7,2.5-1.9,3.3,3.8,4.4
					c4.1,0.7,8.7,0.4,11.5,0.7l2.2-0.9c1.1,0.2,1.9,0.5,2.2,1c1.1,1.8,3,4,7,3.6s6.9,1.8,9,2.2c2.1,0.3,5.3-0.8,5.3,0
					s2.1,2.6,1.4,4.2c-0.3,0.7-0.2,1.1,0,1.3c-1,0.3-1.9,0.6-2.9,1.1c0,0-0.3,0.1-0.6,0.2c-0.2,0.5-1.4,3.3-1.9,3.8
					c-0.3,0.2-1,0.2-1.7,0.2l0,0c-1,0-2.1-0.2-2.1-0.2s0.2-1.4,1.6-2.5c-5.1,1.5-12.3,3.9-12.2,4.7c0.1,0.9,1,1.7,3.1,2l2.8-0.1
					c0.1,0.1,0.1,0.1,0.1,0.1c-1.2,0.1-2.1,0.1-2.9,0h-1.1v2.6c0,0,40.6,0.3,44.4-0.7c3.6-0.9,0.5-2.7,0.1-3c1.9-1.5,3.4-4-0.2-7
					c0,0-0.3-0.1-0.8-0.3l0.3-0.5c0,0.1,4.7-2.7,2.1-3.9c-2.7-1.3-4.8-0.2-5.6-2.8c-0.8-2.5,0.8-8-0.6-9.8l1.2-0.3
					c-2.1-1.4-4.7-2.6-4.7-2.6s4.5-1.5,4.8-2.8s-7.5-3.1-4-4.1l3.4-1c0,0,4.9-2.8,11.2-2.8l6.3-0.1l27.4,1.5c0,0,8,1.4,10.3,2.3
					c2.1,0.9,8.9,9.9,10.8,10.1s15.6,3.3,17.8,2.3c2.1-0.8,4.2-3,5.3-2.2c0.3-0.5,0.6-0.9,0.9-1.4c0.6,0.8,1.3,1.5,2.1,1.4
					c1.8-0.3,7.1-2,9-1.5s5.8-0.7,9.8,1s8.8-1.3,9.2-1.3s0.4,2.2,1.8,3c1.4,0.7,3.3,1.7,3.4,2.4c0.1,0.7,0,2.3,1.5,2.5
					c1.5,0.3,6.7,1.9,8.8,1.4c0.5-0.1,0.9-0.3,1.3-0.5c-0.8,1-1.3,1.9-1.6,2.9c0,0,1.7,3.9-5.4,7.2c0,0-2.7,4.9-9.8,5.6
					c0,0-2.7,2.5-0.1,3.3v2.6c0,0,25,0.6,28-1.4s1.4-13.2,6-16.5C379.9,409.3,381.9,405,377.6,403.4z M156.3,330.1l0.2-0.1l0.1,0.1
					H156.3l-0.8,0.5L156.3,330.1z M123.4,360.6c0.8,0.4,1.3,0.7,1.7,1.1C124.5,361.3,124,361,123.4,360.6z M152.1,360.1
					c0,0.2,0,0.3-0.1,0.4l0,0v-0.1C152.1,360.4,152.1,360.2,152.1,360.1s0-0.1,0-0.2C152.1,360,152.1,360.1,152.1,360.1z
					 M155.7,358.3c-1.4,0.5-2.9,0.8-3.4,1.4C152.8,359.1,154.3,358.7,155.7,358.3c1-0.4,1.2-0.6,1.4-1
					C156.9,357.7,156.7,357.9,155.7,358.3z M163.9,388.8c-0.1,0.1-0.1,0,0.1-0.2C163.9,388.7,163.9,388.8,163.9,388.8z M164.4,388.2
					c-0.1,0.1-0.1,0,0.1-0.2C164.5,388.1,164.5,388.2,164.4,388.2z M166.1,363.4c1.2-1.3,2.9-2.5,5.2-3.5
					C169.9,360.8,168,362.1,166.1,363.4z M181.2,357.7c0.1,0.1,0.1,0.1,0.2,0.2c-0.7,0.1-1.6,0.2-2.5,0.4
					C179.6,357.9,180.3,357.8,181.2,357.7z M180.9,378.4L180.9,378.4c0.3-0.1,0.5-0.1,0.8-0.1C181.4,378.4,181.1,378.4,180.9,378.4z
					 M182.2,378.4c-0.1,0-0.3,0-0.5,0C181.9,378.4,182.1,378.4,182.2,378.4C182.2,378.3,182.2,378.4,182.2,378.4z M187.7,358
					L187.7,358c0,0.1-0.1,0.1-0.1,0.2C187.6,358.1,187.7,358.1,187.7,358z M184.3,357.6c0.1-0.1,0.3-0.1,0.3-0.2c0.5,0,1,0,1.5,0
					C185.6,357.4,185,357.5,184.3,357.6z M188.8,364.3c-0.1,0.1-0.2,0.2-0.3,0.3l-1-1.7V362c0.1,0,0.1,0.1,0.1,0.1
					c1.1,0.7,1.8,1.3,1.9,1.4h0.1l0,0c0.1,0.8,0.2,1.7,0.5,2.5L188.8,364.3z M191.8,368.5C191.8,368.4,191.8,368.4,191.8,368.5
					l0.4,0.1L191.8,368.5z M246.7,352.1c-0.1,0-0.1,0.1-0.2,0.1l-0.1-1.2c0,0,0.1,0,0.1-0.1l0,0L246.7,352.1z M226.8,355.3
					c0.3,0.2,0.5,0.3,0.6,0.4C227.3,355.7,227.1,355.6,226.8,355.3C226.8,355.4,226.8,355.4,226.8,355.3z M231,351.8
					c-0.2,0-0.4,0.1-0.6,0.1c-0.1-0.1-0.1-0.2-0.2-0.3c0,0,0.1-0.2,0.3-0.4c0.1,0.1,0.1,0.2,0.3,0.3l2.7-0.6c0,0,0.5,0,1.2,0.1
					C233.4,351.3,232.1,351.6,231,351.8z M249.1,340.3c-0.1,0-0.3,0.1-0.5,0.1c-0.1,0-0.1-0.1-0.1-0.1c0.1,0,0.3-0.1,0.5-0.1
					C248.9,340.2,249,340.2,249.1,340.3z M240.6,342.5c-0.6,0.2-1.2,0.3-1.8,0.5c-0.2,0-0.5,0-0.6,0c0.5-0.2,1.1-0.3,1.7-0.5H240.6z
					 M223.4,327.1c0.5-0.3,1.1-0.5,1.6-0.7c1-0.5,1.9-0.9,2.9-1.3c0.8-0.4,1.7-0.7,2.5-1c3.3-1.4,5.6-2.3,5.6-2.3s-3.6,1.7-8.1,4.1
					c-1.7,0.9-3.5,1.8-5.3,2.8C222.9,328.2,223.2,327.7,223.4,327.1z M211.2,346.1L211.2,346.1c0.1-0.1,0.1,0,0.2,0
					c0.1,0.1,0.3,0.1,0.4,0.2c-0.2,0-0.4,0-0.6,0C211.2,346.3,211.2,346.2,211.2,346.1z M209.7,356.8L209.7,356.8
					c0,0.1-0.1,0.1-0.1,0H209.7z M202,357.9c-0.1,0-0.1-0.1-0.1-0.1l-0.1-0.1C201.9,357.8,202,357.8,202,357.9z M198,362.8l-0.8-1.7
					l2.1,0.2C199,362.8,198.4,363,198,362.8z M202.8,359.9c-0.3,2-2.1,0.7-2.1,0.7s-0.1-0.7-0.7-1.4l-0.6,0.2
					c-0.1-0.5-0.3-0.8-0.5-1.3c0.5,0.4,0.8,0.7,1,1.1l2.5-0.6c-0.1-0.2-0.3-0.4-0.4-0.5c0.1,0.2,0.3,0.4,0.5,0.5h-0.1
					C202.7,359,202.8,359.5,202.8,359.9z M226,364.3c-1,0.8-1.4,1.1-1.7,0.8c-0.3-0.3-0.6-0.6,0-1.4c0.3-0.3,0.6-0.7,1.3-1.2
					c0.3,0.6,0.6,1.3,0.7,1.5l0,0c0.1,0.1,0.1,0.2,0.1,0.2L226,364.3z M243.5,350.3l0.3,2c-0.2,0.1-0.3,0.2-0.5,0.3L243.5,350.3z
					 M246.7,355.3L246.7,355.3V355l0,0V355.3z M287.2,340.2L287.2,340.2C287.2,340.2,287.3,340.2,287.2,340.2
					C287.3,340.2,287.3,340.2,287.2,340.2z"/>
				<path class="st5" d="M243.8,352.3c-0.2,0.1-0.3,0.2-0.5,0.3l0.2-2.3L243.8,352.3z"/>
				<path class="st5" d="M249.1,340.3c-0.1,0-0.3,0.1-0.5,0.1c-0.1,0-0.1-0.1-0.1-0.1c0.1,0,0.3-0.1,0.5-0.1
					C248.9,340.2,249,340.2,249.1,340.3z"/>
				<path class="st5" d="M246.5,351.1l0.2,1.1c-0.1,0-0.1,0.1-0.2,0.1l-0.1-1.2C246.3,351.1,246.4,351.1,246.5,351.1L246.5,351.1z"
					/>
				<polygon class="st5" points="246.7,355 246.7,355.3 246.7,355.2 				"/>
				<path class="st5" d="M211.4,346.1c0.1,0.1,0.3,0.1,0.4,0.2c-0.2,0-0.4,0-0.6,0c0-0.1,0-0.1,0-0.2
					C211.2,346.1,211.3,346.1,211.4,346.1z"/>
				<path class="st5" d="M233.5,351c0,0,0.5,0,1.2,0.1c-1.3,0.3-2.5,0.5-3.7,0.8c-0.2,0-0.4,0.1-0.6,0.1c-0.1-0.1-0.1-0.2-0.2-0.3
					c0,0,0.1-0.2,0.3-0.4c0.1,0.1,0.1,0.2,0.3,0.3L233.5,351z"/>
				<path class="st5" d="M240.6,342.5c-0.6,0.2-1.2,0.3-1.8,0.5c-0.2,0-0.5,0-0.6,0c0.5-0.2,1.1-0.3,1.7-0.5H240.6z"/>
				<path class="st5" d="M325.7,326.7c0,0.1-0.1,0.1-0.1,0.2c-0.1,0.3-0.3,0.6-0.5,0.9"/>
				<path class="st5" d="M156.6,330l-0.2,0.1h-0.1L156.6,330L156.6,330z"/>
				<path class="st5" d="M236.1,321.9c0,0-3.6,1.7-8.1,4.1c-1.7,0.9-3.5,1.8-5.3,2.8c0.3-0.5,0.5-1,0.8-1.5c0.5-0.3,1.1-0.5,1.6-0.7
					c1-0.5,1.9-0.9,2.9-1.3c0.8-0.4,1.7-0.7,2.5-1C233.7,322.7,236.1,321.9,236.1,321.9z"/>
				<path class="st5" d="M211.4,346.1c0.1,0.1,0.3,0.1,0.4,0.2c-0.2,0-0.4,0-0.6,0c0-0.1,0-0.1,0-0.2V346
					C211.2,346.1,211.3,346.1,211.4,346.1z"/>
				<path class="st5" d="M240.6,342.5c-0.6,0.2-1.2,0.3-1.8,0.5c-0.2,0-0.5,0-0.6,0c0.5-0.2,1.1-0.3,1.7-0.5H240.6z"/>
				<path class="st5" d="M249.1,340.3c-0.1,0-0.3,0.1-0.5,0.1c-0.1,0-0.1-0.1-0.1-0.1c0.1,0,0.3-0.1,0.5-0.1
					C248.9,340.2,249,340.2,249.1,340.3z"/>
				<path class="st5" d="M184.5,426.6c0.1,0.1,0.1,0.1,0.1,0.1c-1.2,0.1-2.1,0.1-2.9,0L184.5,426.6z"/>
				<path class="st5" d="M194.9,418.8c-0.2,0.5-1.4,3.3-1.9,3.8c-0.3,0.2-1,0.2-1.7,0.2l0,0c-1,0-2.1-0.2-2.1-0.2s0.2-1.4,1.6-2.5
					C192.6,419.4,194.1,418.9,194.9,418.8z"/>
				<path class="st5" d="M192.5,422.6c-0.4,0.1-0.8,0.1-1.1,0.2"/>
				<g id="Hands_00000106138468013512148590000017008393258908991410_">
					<path class="st5" d="M190,366.2l-1.2-1.9l-1.3-2.1h0.1c1.1,0.7,1.8,1.3,1.9,1.4h0.1l0,0C189.6,364.4,189.8,365.3,190,366.2z"/>
					<path class="st5" d="M199.3,361.3c-0.3,1.4-0.8,1.6-1.3,1.4l-0.8-1.7L199.3,361.3z"/>
					<path class="st5" d="M202.8,359.9c-0.3,2-2.1,0.7-2.1,0.7s-0.1-0.7-0.7-1.4l2.5-0.6C202.7,359,202.8,359.5,202.8,359.9z"/>
					<path class="st5" d="M209.7,356.8c-0.1,0-0.1,0-0.2,0H209.7L209.7,356.8z"/>
					<path class="st5" d="M226.4,364.2l-0.4,0.1l-1.1,0.3l-0.5-0.8c0.3-0.3,0.6-0.7,1.3-1.2C226,363.2,226.3,363.8,226.4,364.2
						L226.4,364.2L226.4,364.2z"/>
					<path class="st5" d="M227.4,355.8c-0.1-0.1-0.3-0.2-0.6-0.4h0.1C227.1,355.5,227.3,355.7,227.4,355.8z"/>
					<path class="st5" d="M243.8,352.3c-0.2,0.1-0.3,0.2-0.5,0.3l0.2-2.3L243.8,352.3z"/>
					<path class="st5" d="M246.7,352.1c-0.1,0-0.1,0.1-0.2,0.1l-0.1-1.2c0,0,0.1,0,0.1-0.1l0,0L246.7,352.1z"/>
					<path class="st5" d="M287.3,340.2L287.3,340.2C287.2,340.3,287.2,340.2,287.3,340.2L287.3,340.2z"/>
					<path class="st5" d="M199.3,361.3c-0.3,1.4-0.8,1.6-1.3,1.4l-0.8-1.7L199.3,361.3z"/>
					<g id="Layer_18_00000159427942488857205820000011254853715293071767_">
						<path class="st5" d="M236.1,321.9c0,0-3.6,1.7-8.1,4.1v-0.7c0.8-0.4,1.7-0.7,2.5-1C233.7,322.7,236.1,321.9,236.1,321.9z"/>
						<path class="st5" d="M249.1,340.3c-0.1,0-0.3,0.1-0.5,0.1c-0.1,0-0.1-0.1-0.1-0.1c0.1,0,0.3-0.1,0.5-0.1
							C248.9,340.2,249,340.2,249.1,340.3z"/>
						<path class="st5" d="M240.6,342.5c-0.6,0.2-1.2,0.3-1.8,0.5c-0.2,0-0.5,0-0.6,0c0.5-0.2,1.1-0.3,1.7-0.5H240.6z"/>
					</g>
					<g id="Layer_17_00000134249553258348582500000012482847689634405253_">
						<path class="st5" d="M240.6,342.5c-0.6,0.2-1.2,0.3-1.8,0.5c-0.2,0-0.5,0-0.6,0c0.5-0.2,1.1-0.3,1.7-0.5H240.6z"/>
					</g>
					<g id="Layer_9_00000093869174503278939750000000966742607899590544_">
						<path class="st5" d="M192.2,368.6l-0.4-0.1c0-0.1,0-0.1,0-0.1L192.2,368.6z"/>
					</g>
					<g id="Layer_8_00000107568601205041004540000016349885726778335363_">
						<path class="st5" d="M199.3,361.3c-0.3,1.4-0.8,1.6-1.3,1.4l-0.8-1.7L199.3,361.3z"/>
					</g>
					<g id="Layer_7_00000065797193890638751920000011122248776829765816_">
						<path class="st5" d="M202,357.9c-0.1,0-0.1-0.1-0.1-0.1l-0.1-0.1C201.9,357.8,202,357.8,202,357.9z"/>
						<path class="st5" d="M202.8,359.9c-0.3,2-2.1,0.7-2.1,0.7s-0.1-0.7-0.7-1.4l2.5-0.6C202.7,359,202.8,359.5,202.8,359.9z"/>
					</g>
					<g id="Layer_6_00000084494615750200115380000004840209423822782651_">
						<path class="st5" d="M202,357.9c-0.1,0-0.1-0.1-0.1-0.1l-0.1-0.1C201.9,357.8,202,357.8,202,357.9z"/>
					</g>
					<g id="Layer_5_00000077311242135366529240000014106057759370795679_">
						<path class="st5" d="M243.8,352.3c-0.2,0.1-0.3,0.2-0.5,0.3l0.2-2.3L243.8,352.3z"/>
						<path class="st5" d="M230.8,351.6l-0.5,0.1c0,0,0.1-0.2,0.3-0.4C230.6,351.4,230.7,351.5,230.8,351.6z"/>
						<path class="st5" d="M246.5,351.1l0.2,1.1c-0.1,0-0.1,0.1-0.2,0.1l-0.1-1.2C246.3,351.1,246.4,351.1,246.5,351.1L246.5,351.1z
							"/>
						<path class="st5" d="M246.7,355v0.2l0,0V355L246.7,355z"/>
					</g>
					<g id="Layer_3_00000146463652874024636360000013331624234951247028_">
						<path class="st5" d="M243.8,352.3c-0.2,0.1-0.3,0.2-0.5,0.3l0.2-2.3L243.8,352.3z"/>
					</g>
					<g id="Layer_2-2_00000112595774473405805990000015971271110781750150_">
						<path class="st5" d="M246.5,351.1l0.2,1.1c-0.1,0-0.1,0.1-0.2,0.1l-0.1-1.2C246.3,351.1,246.4,351.1,246.5,351.1L246.5,351.1z
							"/>
						<polygon class="st5" points="246.7,355 246.7,355.3 246.7,355.2 						"/>
					</g>
				</g>
				<path class="st5" d="M195,418.7C195,418.7,194.9,418.7,195,418.7c-0.3,0.6-1.5,3.4-1.9,3.9c-0.3,0.2-1,0.2-1.7,0.2l0,0
					c-1,0-2.1-0.2-2.1-0.2s0.2-1.4,1.6-2.5C191.6,419.3,193,418.7,195,418.7z"/>
				<path class="st5" d="M184.6,426.7c-1.2,0.1-2.1,0.1-2.9,0l2.8-0.1C184.6,426.7,184.6,426.7,184.6,426.7z"/>
				<path class="st5" d="M236.1,321.9c0,0-3.6,1.7-8.1,4.1c-1.7,0.9-3.5,1.8-5.3,2.8c0.3-0.5,0.5-1,0.8-1.5c0.5-0.3,1.1-0.5,1.6-0.7
					c1-0.5,1.9-0.9,2.9-1.3c0.8-0.4,1.7-0.7,2.5-1C233.7,322.7,236.1,321.9,236.1,321.9z"/>
				<g id="Layer_25_00000023240137891291516250000013489361440894532024_">
					<line class="st4" x1="156.5" y1="330.1" x2="156.5" y2="330.1"/>
				</g>
				<g id="Layer_23_00000164490984340239394810000014473959055616616890_">
					<line class="st4" x1="349.3" y1="274.8" x2="349.3" y2="274.8"/>
				</g>
				<g id="Layer_22_00000149368528500287575810000010613112569813657273_">
					<line class="st4" x1="349.3" y1="274.8" x2="349.3" y2="274.8"/>
				</g>
				<g id="Layer_21_00000128445567348867976480000003833275117433526688_">
					<path class="st5" d="M164,388.7c-0.1,0.1-0.1,0.2-0.1,0.2C163.7,388.8,163.7,388.8,164,388.7z"/>
				</g>
				<g id="Left-Hand_00000039823575744104908560000005456515183960994179_">
					<g id="Layer_19_00000173858432700894681100000012329656285942883972_">
						<path class="st5" d="M164.6,388c-0.1,0.1-0.1,0.2-0.1,0.2C164.3,388.2,164.3,388.2,164.6,388z"/>
						<path class="st5" d="M181.4,357.8c-0.7,0.1-1.6,0.2-2.5,0.4c0.7-0.2,1.5-0.4,2.3-0.5C181.3,357.8,181.3,357.8,181.4,357.8z"/>
						<path class="st5" d="M186.2,357.4c-0.5,0-1.2,0.1-1.8,0.2c0.1-0.1,0.3-0.1,0.3-0.2C185.2,357.4,185.7,357.3,186.2,357.4z"/>
						<path class="st5" d="M187.7,358c-0.1,0-0.1,0.1-0.1,0.1C187.6,358.1,187.7,358.1,187.7,358L187.7,358z"/>
					</g>
					<g id="Layer_16_00000161605051547097813830000014463802040348668320_">
						<path class="st5" d="M182.2,378.3C182.2,378.3,182.2,378.4,182.2,378.3c-0.2,0-0.3,0.1-0.5,0.1
							C181.9,378.4,182.1,378.4,182.2,378.3z"/>
						<path class="st5" d="M187.7,358c-0.1,0-0.1,0.1-0.1,0.1C187.6,358.1,187.7,358.1,187.7,358L187.7,358z"/>
					</g>
					<g id="Layer_20_00000009584709690172887300000012447867798982425003_">
						<path class="st5" d="M164,388.7c-0.1,0.1-0.1,0.2-0.1,0.2C163.7,388.8,163.7,388.8,164,388.7z"/>
						<path class="st5" d="M182.2,378.3C182.2,378.3,182.2,378.4,182.2,378.3c-0.2,0-0.3,0.1-0.5,0.1
							C181.9,378.4,182.1,378.4,182.2,378.3z"/>
					</g>
					<g id="Layer_15_00000156559762569619179720000013907496509859173538_">
						<path class="st5" d="M187.7,358c-0.1,0-0.1,0.1-0.1,0.1C187.6,358.1,187.7,358.1,187.7,358L187.7,358z"/>
						<path class="st5" d="M190,366.2l-1.2-1.9c-0.1,0.1-0.2,0.2-0.3,0.3l-1-1.7V362c0.1,0,0.1,0.1,0.1,0.1c1.1,0.7,1.8,1.3,1.9,1.4
							v0.1C189.6,364.4,189.8,365.3,190,366.2z"/>
						<path class="st5" d="M192.2,368.6l-0.4-0.1c0-0.1,0-0.1,0-0.1L192.2,368.6z"/>
					</g>
				</g>
				<g id="Layer_13_00000053509390034617902730000003639712367026086309_">
					<path class="st5" d="M125.1,361.6c-0.6-0.4-1.2-0.6-1.7-1.1C124.2,360.9,124.7,361.3,125.1,361.6z"/>
					<path class="st5" d="M152.1,359.9c0,0.1,0,0.1,0,0.2c0,0.2,0,0.3-0.1,0.4l0,0v-0.1C152.1,360.3,152.1,360.1,152.1,359.9
						C152.1,360,152.1,360,152.1,359.9z"/>
					<path class="st5" d="M157.1,357.3c-0.1,0.4-0.3,0.6-1.4,1c-1.4,0.5-2.9,0.8-3.4,1.4c0.5-0.6,1.9-0.9,3.4-1.4
						C156.6,357.9,156.9,357.7,157.1,357.3z"/>
				</g>
				<g id="Hair_00000137129235733979882130000003947678614761634486_">
					<path class="st5" d="M125.1,361.6c-0.6-0.4-1.2-0.6-1.7-1.1C124.2,360.9,124.7,361.3,125.1,361.6z"/>
					<polygon class="st5" points="156.6,330 156.4,330.1 155.5,330.6 156.3,330.1 156.5,329.9 					"/>
				</g>
				<g id="Lightining1_00000035514228506984845380000004996344378584731776_">
					<g>
						<g>
							<g>
								<path class="st5" d="M227.4,355.8c-0.1-0.1-0.3-0.2-0.6-0.4h0.1C227.1,355.5,227.3,355.7,227.4,355.8z"/>
								<path class="st5" d="M231,351.8c-0.2,0-0.4,0.1-0.6,0.1c-0.1-0.1-0.1-0.2-0.2-0.3c0,0,0.1-0.2,0.3-0.4
									c0.1,0.1,0.1,0.2,0.3,0.3l0,0C230.8,351.7,231,351.8,231,351.8z"/>
							</g>
						</g>
					</g>
					<g>
						<g>
							<g>
								<path class="st5" d="M211.7,346.3c-0.2,0-0.4,0-0.6,0c0-0.1,0-0.1,0-0.2V346c0.1,0,0.1,0.1,0.1,0.1
									C211.5,346.2,211.6,346.3,211.7,346.3z"/>
								<path class="st5" d="M227.4,355.8c-0.1-0.1-0.3-0.2-0.6-0.4h0.1C227.1,355.5,227.3,355.7,227.4,355.8z"/>
							</g>
						</g>
					</g>
					<g>
						<g>
							<g>
								<path class="st5" d="M226.3,364.1L226.3,364.1c-0.1,0.1-0.3,0.2-0.3,0.3c-1,0.8-1.4,1.1-1.7,0.8s-0.6-0.6,0-1.4
									c0.3-0.3,0.6-0.7,1.3-1.2C226,363.2,226.2,363.8,226.3,364.1z"/>
								<path class="st5" d="M249.1,340.3c-0.1,0-0.3,0.1-0.5,0.1c-0.1,0-0.1-0.1-0.1-0.1c0.1,0,0.3-0.1,0.5-0.1
									C248.9,340.2,249,340.2,249.1,340.3z"/>
								<path class="st5" d="M246.7,352.1c-0.1,0-0.1,0.1-0.2,0.1l-0.1-1.2c0,0,0.1,0,0.1-0.1l0,0L246.7,352.1z"/>
							</g>
						</g>
					</g>
					<g>
						<g>
							<g>
								<path class="st5" d="M287.3,340.2L287.3,340.2C287.2,340.3,287.2,340.2,287.3,340.2L287.3,340.2z"/>
								<path class="st5" d="M325.7,326.7c0,0.1-0.1,0.1-0.1,0.2c-0.1,0.3-0.3,0.6-0.5,0.9C325.1,327.5,325.2,327.1,325.7,326.7z"/>
							</g>
						</g>
					</g>
					<g>
						<g>
							<g>
								<path class="st5" d="M325.7,326.7c0,0.1-0.1,0.1-0.1,0.2c-0.1,0.3-0.3,0.6-0.5,0.9C325.1,327.5,325.2,327.1,325.7,326.7z"/>
							</g>
						</g>
					</g>
				</g>
				<g id="Lightning2_00000049183874666185861520000000973543137270868124_">
					<g>
						<g>
							<g>
								<path class="st5" d="M236.1,321.9c0,0-3.6,1.7-8.1,4.1c-1.7,0.9-3.5,1.8-5.3,2.8c0.3-0.5,0.5-1,0.8-1.5
									c0.5-0.3,1.1-0.5,1.6-0.7c1-0.5,1.9-0.9,2.9-1.3c0.8-0.4,1.7-0.7,2.5-1C233.7,322.7,236.1,321.9,236.1,321.9z"/>
							</g>
						</g>
					</g>
				</g>
			</g>
			<g id="Dash_00000069372677588777280360000015807886233089085367_">
				<polyline class="st6" points="470,384 40.4,384.7 40.4,381.8 470,381.1 				"/>
			</g>
			<g id="Dash_00000072242403170361160580000003563757879207292071_">
				<polyline class="st2" points="457.1,351.4 27.5,352.1 27.5,349.2 457.1,348.6 				"/>
			</g>
		</g>
		<g id="Smokes">
			<path id="fbvireb" class="st7" d="M224.9,456.9c-5.3-11.3-1-24.5,8.7-29.8c8-4.4,18.6-3,26,3.8c-8.2-9.9-9.3-23.9-2.8-34.9
				c6.2-10.5,18.3-16.3,30.6-14.5c-15-12.6-19.3-34-10.3-51c9.2-17.6,30.1-26.3,49.2-20.3c-2.5-15.7,2.6-31.2,13.7-38.8
				c17.7-12.3,46.8,7.9,57.5,17.5c49.5,44.6,17.8,158.7,14.3,168.9C350.6,460.1,286,454.6,224.9,456.9z"/>
			<path id="shsym" class="st7" d="M181,464.8c-4.6-8-0.9-17.4,7.4-21.1c6.8-3.1,15.9-2.1,22.1,2.7c-7-7-7.9-17-2.4-24.7
				c5.3-7.5,15.7-11.5,26.1-10.3c-12.8-8.9-16.5-24.1-8.8-36.2c7.9-12.5,25.7-18.6,42.1-14.4c-2.2-11.1,2.2-22.1,11.7-27.5
				c15.1-8.7,40,5.6,49.1,12.4c42.3,31.6,15.2,112.6,12.2,119.8C288.3,467.1,233.2,463.2,181,464.8z"/>
			<path id="fgjsns" class="st7" d="M245.7,452.6c-4.6-11.8-0.9-25.6,7.4-31.2c6.8-4.6,15.9-3.1,22.1,4c-7-10.4-7.9-25-2.4-36.4
				c5.3-11,15.7-17.1,26.1-15.2c-12.8-13.1-16.5-35.5-8.8-53.4c7.9-18.4,25.7-27.5,42.1-21.2c-2.2-16.5,2.2-32.7,11.7-40.7
				c15.1-12.8,40,8.3,49.1,18.3c42.3,46.6,15.2,166.1,12.2,176.7C353.1,456,297.9,450.2,245.7,452.6z"/>
			<path id="ugu" class="st7" d="M62.6,459.1c61.8-18.9,110.9-27.6,115.7-33.1c4-4.6,9.4-3.1,13,4c-4.1-10.4-4.6-25-1.4-36.4
				c3.1-11,9.2-17.1,15.3-15.2c-7.6-13.1-9.7-35.5-5.2-53.4c4.6-18.4,15.1-27.5,24.8-21.2c-1.3-16.5,1.3-32.7,6.9-40.7
				c8.9-12.8,23.5,8.3,28.9,18.3c24.8,46.6,9,166.1,7.2,176.7C237.1,460.5,87.7,463.3,62.6,459.1z"/>
		</g>
	</g>
	<g id="Zenitsu">
		<ellipse class="st8" cx="156.9" cy="341.2" rx="23.5" ry="24.5"/>
		<g id="Layer_28">
			<path class="st9" d="M211.8,353.6c0,0-27.5,21.5-40.5,8.1c-0.8-0.8-1.4-1.6-1.9-2.4c0.4-0.2,0.9-0.6,1.6-1c2.9-1.9,4.6-1.4,6.6-1
				c0.9,0.2,1.5,0.7,1.9,1.3c0.3,0.4,1,0.2,1-0.3c0-0.1,0.1-0.4,0.1-0.5c0.1-1.1,1.7-1.6,3.3-2.3c1.6-0.7,1.1-1.3,1.6-2.3
				s3.5-2,5.8-3.4c1.6-1,0.1-3.9-1.6-6.7c0.3-0.1,0.4-0.1,0.4-0.1l4-1.4l0.8,1C195.7,343.8,211.8,353.6,211.8,353.6L211.8,353.6
				L211.8,353.6z"/>
		</g>
		<path id="Coat3" class="st10" d="M367.1,247.3c0,0-70.4,78.8-59.2,108.2c7.6,20.1-32.8-46-32.8-46S344.1,244.6,367.1,247.3z"/>
		<path class="st11" d="M358.3,381.5c-0.7,0.3-1.3,0.5-2.1,0.7c-4.3,1.2-8.4,0.6-8.4,0.6l2.3,12.3c0,0-8.6,5-13.8,5
			c-2.2,0-5.1,4.6-7.6,9.7c-0.3,0.7-0.6,1.3-0.9,1.9c-1-1.1-2.9,1.7-4.9,2.8c-2.1,1.1-14.8-2.7-16.6-3.1s-8.1-11.9-10.1-13.1
			c-2.1-1.2-9.6-3-9.6-3l-25.6-1.9l-5.8,0.1c-5.8,0.1-10.4,3.7-10.4,3.7l-3.2,1.3c-3.2,1.3,4,3.6,3.7,5.2c-0.3,1.7-4.5,3.7-4.5,3.7
			s2.4,1.6,4.3,3.4l-10.2,2.8l-9.7-7.9c0,0-2.5,7.5-9.2,11.2c-6.7,3.8-9.1-4.4-9.1-4.4l-8.5,5c-2.7-0.4-7,0.1-10.8-0.9
			c-5.8-1.5-0.2-2.6-4.3-6.6c-4-4,31.9-47.7,31.9-47.7s-20.1-19.5-20.7-19.9S182,321.1,182,321.1l2.6-2.3
			c4.5,4.6,12.6,11.5,24.1,15.6c18.5,6.6,35.2,6.6,46.5,3c9.1-2.8,23.9-8.1,33.4-13.2c0,0,10.5,4.9,14.2,5.2
			c3.7,0.4,15.8,20.3,19.7,21.5c3.9,1.3,9.8,6.4,12.2,7.5c2.4,1,11.5-2.6,11.5-0.5s9.1,10.8,10.3,11.7
			C357.4,370.5,358,378.3,358.3,381.5L358.3,381.5L358.3,381.5z"/>
		<path id="Coat" class="st9" d="M364.2,247.2c-2.9-0.1-9.3,5.3-12.5,7.2c-3.3,1.9-15.7,11.7-19.3,14.7c-3.6,3-13.3,21-13.3,21
			s-3,11.3-6.6,15.6c-3.6,4.4-10.3,8.5-17.9,14.7c-1.6,1.3-3.6,2.5-6.1,3.9c-9.5,5.2-24.5,10.4-33.4,13.2c-11.3,3.6-28,3.6-46.5-2.9
			c-11.4-4-19.6-10.9-24.1-15.6c-2.8-2.8-4.1-4.9-4.1-4.9s3.2-1.6,4.8-3.6s8.9-16.5,11.3-18.3l2.4-1.8c0,0,15.9-9.1,20.3-9.6
			c4.4-0.4,20.4-11.4,20.4-11.4s11.3-4,12.3-7.3c1-3.4,18.5-23.5,23-21.9c4.6,1.6,11.4,14.1,11.4,14.1c0.9,1,4.9,5.6,7.7,10.6
			c0.1,0.1,0.1,0.3,0.3,0.4c6-5.1,18.3-15.3,21-16.9c3.8-2.3,17.3-6.8,24.6-6.6C345.4,242.2,357,245.1,364.2,247.2L364.2,247.2
			L364.2,247.2z"/>
		<path class="st11" d="M221,433.6c0,0-15.9,6.4-15.9,8c0.1,1.6,1.8,3.1,5.6,2.6c0,0,0.6,3.1,8.5,1.1c0.1,0,0.3-0.1,0.4-0.1
			c8.3-2.2,26.1-0.3,26.1-0.3s8.1-4.5,2.4-11.3C248.3,433.6,234.1,425.9,221,433.6L221,433.6L221,433.6z"/>
		<path class="st12" d="M210.8,444.2c0,0-3.7-3.7,7.3-5.4"/>
		<g id="Hands">
			<path class="st13" d="M216.8,368.1l29-9.7l2.5,5.3l1.4-0.4c0,0-1.9-5.5-1.7-5.5c36.7-12,105.5-29.9,121.1-32.1l-1.8-8.5
				c-10.7-0.4-122.4,32.8-122.4,32.8l-2.7-5.3l-1.2,0.4l2,5.6l-29.6,10.1L216.8,368.1z"/>
			<polygon class="st14" points="217.1,361.4 218.7,365.9 221.3,362 			"/>
			<polygon class="st14" points="222.5,359.2 224.1,363.7 226.6,359.8 			"/>
			<polygon class="st14" points="227.9,357.5 229.5,362 232,358 			"/>
			<polygon class="st14" points="232.8,356 234.3,360.4 236.9,356.6 			"/>
			<polygon class="st14" points="237.3,354.3 239,358.8 241.5,354.9 			"/>
			<g id="Layer_18">
				<path class="st11" d="M275.1,304.5v29.3c0,0-8.1,1.6-9.1,1.6s-15.2,0.5-15.2,0.5l0.5-26.5"/>
			</g>
			<g id="Layer_17">
				<polyline class="st15" points="252.7,335.8 252.7,338.3 272.1,337.6 272,334.3 				"/>
			</g>
			<g id="Layer_9">
				<path class="st16" d="M218.7,369.2c0,0,1.8-0.2,3.4-2.2c0,0,4.1,0.5,4.9-0.1c0.7-0.7,5.9-2.2,6.6-1.9c0.7,0.2,1.6-2.5-0.1-2.5
					c-1.6-0.1-16.4,4.3-15.9,6.2"/>
			</g>
			<g id="Layer_8">
				<path class="st16" d="M216.1,358.3l0.4,0.6c0,0,3.4-1.8,3.6,1c0.1,1.5,1.9,0.8,1.9,0.8s1-4.3-2-4.7c0,0,2.3-1.3,2.7,4.6
					c0,0,1.3,2.4,1.9-1.3c0.5-3.6-1.9-8.3-3.2-7.6c-1.1,0.1-3.4,2.7-3.4,2.7"/>
			</g>
			<g id="Layer_7">
				<path class="st16" d="M222,351.8c0,0,1.6-0.7,1.9-0.4c0.4,0.4,4,3.5,3.7,6.1c-0.2,2.6-2,1-2,1s-0.4-2.4-2.2-3.8"/>
			</g>
			<g id="Layer_6">
				<path class="st16" d="M223.7,351.4c0,0,1.6-2.5,3.1-1c1,1,2.8,6.3,2.2,6.4c-0.7,0.1-1.5-0.8-2.2-1.9
					C226.4,353.9,223.7,351.4,223.7,351.4z"/>
			</g>
			<g id="Layer_5">
				<path class="st16" d="M258.3,338.1c0,0-0.8,2.6-1,3.6c-1.3,0.7-4,5.2-4,5.2l3.1-1c0,0,5.9,0,3.8,6.6l-3.6,2.5l5.1,0.4
					c0,0,0.1-0.3,0.4-0.4c2.5-0.4,8.1-3.7,9.1-6.5c0.9-2.2-1.9-10.8-1.9-10.8L258.3,338.1L258.3,338.1L258.3,338.1z"/>
			</g>
			<g id="Layer_4">
				<polyline class="st17" points="261.8,355 263.5,350.1 262.9,346.3 				"/>
			</g>
			<g id="Layer_3">
				<polyline class="st17" points="265.1,353.9 266.1,349.4 265.6,345.3 				"/>
			</g>
			<g id="Layer_2-2">
				<polyline class="st17" points="268.7,351.7 268.7,348.2 268.2,344.4 				"/>
			</g>
		</g>
		<path class="st18" d="M207,444.2v3.4c0,0,37.8,0.3,41.4-0.9s0-3.9,0-3.9"/>
		<g>
			<path class="st18" d="M356.8,445.5v3.4c0,0,23.3,0.8,26.1-1.7c2.8-2.5,1.3-17.1,5.6-21.4s6.1-9.7,2.1-11.9"/>
			<path class="st11" d="M371.1,424.6c0,0,1.6,5.1-5,9.4c0,0-2.5,6.3-9.1,7.3c0,0-3.9,5,2.4,4.6s22.5,1.6,22.5-2.2
				s2.2-16.2,3.3-17.4c1.2-1.2,6.1-10.3,5.4-12.2c-0.8-1.9-7.3-4.4-7.3-4.4S372.5,417.5,371.1,424.6L371.1,424.6L371.1,424.6z"/>
		</g>
		<path class="st9" d="M382.9,409l-7.3,8.3c0,0-2.4,3.6-4.3,4.3c-1.9,0.7-6.7-1.4-8.2-1.8s-1.3-2.3-1.4-3.3s-1.9-2.2-3.2-3.2
			c-1.3-1-1.3-3.8-1.7-3.8c-0.4,0-4.9,3.8-8.6,1.6c-3.7-2.2-7.3-0.6-9.1-1.3c-1.8-0.7-6.7,1.6-8.4,1.9c-0.8,0.1-1.5-0.7-2-1.9
			c2.5-5.1,5.3-9.7,7.6-9.7c5.2,0,13.8-5,13.8-5l-2.3-12.3c0,0,4,0.5,8.4-0.6c1.9,0.5,4.2,1.2,5.6,1.8c2.6,1.2,5.5,11,6.5,13
			s6.4,0.7,9.3,1.3C380.5,399.1,382.9,409,382.9,409L382.9,409L382.9,409z"/>
		<path class="st9" d="M247.8,432.6l-0.5,1.3c-0.5,1.3-10.4-1.6-10.4-1.6s-6.3,3-9.2,2.5s-3.1-2-3.1-2s-1.5,0-0.8-2.1
			s-1.3-4.4-1.3-5.5c0-1-3,0.4-4.9,0s-4.7-3.2-8.4-2.8s-5.5-2.3-6.5-4.7c-0.4-0.8-1.3-1.2-2.5-1.3l7.8-4.6c0,0,2.2,7.6,8.4,4
			c6.1-3.5,8.5-10.3,8.5-10.3l9,7.2l9.4-2.5c0.2,0.2,0.4,0.4,0.7,0.7c1.8,1.9,0.1,9.6,0.8,13.1c0.7,3.4,2.8,2,5.2,3.7
			C252.2,429.1,247.8,432.6,247.8,432.6L247.8,432.6L247.8,432.6z"/>
		<path id="Coat2" class="st19" d="M294.4,265.6c0,0,1.4,11.6-7.3,28.7c-5.9,11.7-44.7,32.5-44.7,32.5s19.8-45.9,11-52.3"/>
		<g id="Left-Hand">
			<g id="Layer_19">
				<path class="st9" d="M214.4,363.7c0,1.7,0,5.8-2.2,9.8c-2.1,3.7-4.1,7-4.1,7l-0.8,1.3c0,0.1-0.1,0.1-0.1,0.2
					c-1.1,0.1-2.4,0.2-3.7,0.4c-1.3,3.4-10.3,11-11.8,12.5c0.4-1.2,0.6-6.4,0.6-11.8c0-6-0.1-12,0-12.9c0.2-1.6,8.2-11,10.5-13.2
					c0.1-0.1,0.2-0.2,0.3-0.3c1.3-1.1,4.6-2.1,7.3-2.2c1.1-0.1,2.3-0.1,2.9,0.3c0.1,0.1,0.1,0.1,0.2,0.2c0.2,0.2,0.5,0.4,0.7,0.7
					c1.6,1.9-0.7,0.8-0.7,3.6v2.2L214.4,363.7z"/>
			</g>
			<g id="Layer_16">
				<path class="st11" d="M215,354c0,0-0.4,0.4-1,1c-1,1.1-2.7,3.1-3,5.5c-0.4,3.2,0.1,8.5,0.6,12.6c0.1,0.6,0.1,1.2,0.2,1.7
					c0.6,4.3,2.5,5.5,0.8,5.8c-0.5,0.5-3.4,0.9-7.3,1.3c-1.4,0.1-3,0.2-4.6,0.4c-4.7,0.3-9.9,0.5-13.8,0.7c0-6.1-0.1-12.3,0-13.1
					c0.2-1.6,10-11.2,12.9-13.5c4.2-0.7,7.9-1.4,9.1-1.6c1.6-0.2,3-0.4,4-0.4C214.2,354.1,215,354,215,354L215,354L215,354z"/>
			</g>
			<g id="Layer_20">
				<path class="st9" d="M202.8,382.4c1.3-0.2,4.6-0.7,5.8-0.9c-1.6,2.5-14.8,16.2-16.2,17.7c-1.5,1.6-4.2,6.1-5.8,8.9
					s-9.5,9.5-11.1,10.3c-1.6,0.7-4.9-2.3-8.5-4.3s-9.4-11-11.7-12.6c-2.2-1.6-8.8-8.8-7.6-12.2c1.1-3.4,12.1-11.6,13.1-11.9
					s0.3-0.1,1-0.7c0.7-0.5,2-6.2,2-6.2c3.3-9.9,11.1-10.1,11.1-10.1s10-3.1,14.1-3s7.3-3,11.5-5.9c3.1-2.2,11.2,1.6,12.6,2.4
					c0,0-5.1,0.1-11.1,2c-9.2,3-11,11.3-11.1,12.9c-0.1,0.8,0.5,7,0.9,13.1c0.4,5.5,0.6,10.8,0.2,12c-0.2,0.2-0.3,0.3-0.1,0.2
					c0.1,0,0.1-0.1,0.1-0.2c1.6-1.6,6.3-6.7,8.5-9.4L202.8,382.4z"/>
			</g>
			<g id="Layer_15">
				<path class="st15" d="M214.6,354.4l3.3-0.4c0,0-2.7,5.2-2.6,6.7c0.1,1.5,0.1,6.1,1.6,7.3l1.4,1.2l-6.5,0.7c0,0-3.2-7.4,2.4-15.6
					"/>
			</g>
		</g>
		<g id="Layer_13">
			<path class="st16" d="M189.7,343.2c1.2,2,2.3,4,2.3,5.3c0,0.6-0.2,1-0.7,1.3c-2.3,1.4-5.2,2.4-5.8,3.4s0,1.6-1.6,2.3
				c-1.6,0.7-3.3,1.2-3.3,2.3c0,0.2,0,0.4-0.1,0.5c-0.1,0.5-0.7,0.7-1,0.3c-0.4-0.6-1-1.2-1.9-1.3c-2-0.4-3.7-0.9-6.6,1
				c-0.7,0.4-1.1,0.7-1.6,1l-1.3,0.9c0,0-1.3,1.8-4.1,1.8c-12.7,0-14.4-9.5-11.9-16.9c2.5-7.4,13.3-18.3,15.6-18
				c1.9,0.2,1.1-3.1,2.2-2l1.9,0.8l7.6-2.8l1.1-0.3v0.5c0,0,0,0,0,0l0.2-0.6l-0.2,0.1v-0.1l-1.1,0.4l2.5-1.9l12,20.4
				C193.9,341.6,191.2,342.7,189.7,343.2C189.6,343.2,189.6,343.1,189.7,343.2c-0.2-0.5-0.5-0.9-0.8-1.3c0.7-0.4,1-0.9,1.1-1.4
				c0,0,0-0.1,0-0.2c0,0,0,0.1,0,0.1c-0.1,0.5-0.4,1-1.1,1.4c0,0,0,0,0,0.1c0,0,0,0,0,0C189.1,342.4,189.3,342.8,189.7,343.2
				C189.6,343.2,189.6,343.2,189.7,343.2z"/>
			<polygon class="st16" points="179.4,323.1 180.5,322.7 180.5,322.8 			"/>
			<path class="st16" d="M189.7,343.2C189.6,343.2,189.6,343.2,189.7,343.2c-0.4-0.4-0.6-0.8-0.9-1.3c0,0,0,0,0,0
				C189.1,342.2,189.4,342.6,189.7,343.2C189.6,343.1,189.6,343.2,189.7,343.2z"/>
		</g>
		<g id="Hair">
			<path id="Hair-2" class="st8" d="M142.5,350.8c-0.1,3.7,7,5.6,10.7,7.4s2.9,4.9,2.9,4.9l2.7-1.3l0.5,0.9l2.5-2.1l0.4,0.7l2.8-1.4
				l-2.1-3.3l3.5,1.1l1.3-2l0.7-2.3l-10.6-5.2l6.6-0.8v-3l5.6-0.7l-0.8-2.7h1.3l-0.6-3.2h0.7l0.1-3.3l0.4-2.5l-4.3-0.4l4.9-2
				l-1.7-1.8l5.2,1.8l5.6-0.7l-2.2-5.2l7.3-5.7l-3.3-1.9l-3.5-1.3v-1.4l-2.1-1.5l-1-1.9l-1.3-3.7l-1.4,0.8l-2.7-2.6l-4-4l-2.7,3.8
				l-3-1.4l-1.8,3.5l-2.6-1.6l-0.4,0.7l-3.1-2l-0.3,0.7l-2.6-1.3c0,0-5,7.9-5.9,9.2c-0.9,1.3-7.5,4.5-7.5,4.5s-0.5,2.6-1.5,3.7
				s-2.9,5.8-3.1,7.7c-0.2,1.9-0.6,7.6,0,8.4c0.6,0.9-1.8,2-1.9,3.7c-0.1,1.6,0.1,5.8,1.3,6.5s1,2.9,0.4,3.2c-0.5,0.3,0,3.7,1.5,5.2
				s1.6,5.1,2.8,6.2c1.1,1.1,2,1.8,2.5,3.5c0.4,1.7,1,10.6,0.8,11.6s2.6,0.9,2.6,0.9l-0.2,0.6l2.6,0.3l0.3-1l2.2,0.3l0.7-9.6
				c0,0,4.3,3.6,5.3,5.8l0.9,2.2l-0.1,0.3l2.9-1.3l0.1,0.3l2.7-1l2.8-0.9c0,0-1-2.7-1.6-2.7h-0.5l1.9-1.3l-0.5-0.5l3.2-1l3.2,3.9
				l1.9-4l2.7-3.1l2.8-2.1l-0.5-0.7l1.3-2.2l-0.5-0.8l0.4-1.2c0,0-2.8-0.2-5.8,1.9c-3,2-3.4,2.8-5.3,3c-1.9,0.2-2.8-0.2-4-1"/>
		</g>
		<g id="Lightining1">
			<g>
				<g>
					<g>
						<path class="st0" d="M242,359.7c-1.2,1-2.2,2-3.1,2.9c-0.4,0.4-0.8,0.8-1.2,1.3l-0.5,0.6c-0.1,0.1-0.3,0.3-0.4,0.4
							c0,0.5,0,1,0,1.5s0,1,0,1.3c0,0.8,0.1,1.4,0.1,1.9c0.1,0.9,0.1,1.3-0.3,1.2c-0.4-0.1-1-0.1-1.3-1c-0.1-0.4-0.3-1-0.4-1.9
							c0-0.4-0.1-0.9,0-1.5c0-0.3,0-0.6,0.1-0.9v-0.2v-0.1V365l0.1-1c0.7-0.6,1.3-1.3,2-1.9c0.6-0.6,1.3-1.2,2-1.9
							c2.1-1.9,4.7-3.9,7.4-5.9c1.3-1,2.7-1.9,4-2.9c0.7-0.4,1.3-0.9,1.9-1.4l0.4-0.3l0.4-0.3c0.3-0.2,0.6-0.4,0.9-0.6
							c-1.3-2.3-2.5-4.6-3.4-6.1c-0.8-1.6-1.3-2.5-1.3-2.5s0.6,1,1.5,2.5c0.5,0.7,1,1.6,1.7,2.7c0.3,0.5,0.7,1,1,1.6
							c0.4,0.7,0.9,1.3,1.4,2.1c-2.2,1.7-4.5,3.6-6.8,5.5C246.2,356.2,243.9,358,242,359.7z"/>
					</g>
				</g>
			</g>
			<g>
				<g>
					<g>
						<path class="st0" d="M235.9,348.7c-0.1,1.8-0.2,3.3-0.2,4.7s0,3,0,4.5c-1.3-0.9-2.5-1.6-3.3-2.2s-1.1-0.9-0.9-1.2
							c0.2-0.4,0.5-0.7,1-0.9c0.5-0.1,1.1-0.1,1.6,0c-0.1-0.3-0.1-0.5-0.1-0.8c0-0.1,0-0.1,0-0.2c0.1-0.5,0.1-1.1,0.1-1.7
							c0.1-1.4,0.3-2.9,0.5-4.5c0.1-0.4,0.1-0.7,0.1-1.2c0-0.2,0.1-0.4,0.1-0.6c0.1-0.4,0.1-0.7,0.1-1c0.1-1.2,0.4-2.5,0.5-3.9
							c0.7,0.5,1.5,1.1,2.2,1.6c0.4,0.2,0.7,0.5,1,0.7l0.5,0.4l0.2,0.1l0.1,0.1c0.8,0.7,1.6,1.3,2.5,2.1c1.6,1.3,3.1,2.6,4.3,3.7
							c2.5,2.2,4.2,3.7,4.2,3.7s-1.9-1.4-4.4-3.4c-1.3-1-2.9-2.2-4.6-3.4c-0.8-0.6-1.7-1.3-2.6-1.9c-0.9-0.6-1.7-1.3-2.5-1.9
							c-0.1,1-0.3,2.2-0.4,3.4C236.1,346.5,236.1,347.6,235.9,348.7z"/>
					</g>
				</g>
			</g>
			<g>
				<g>
					<g>
						<path class="st1" d="M262.9,351.7c-13,9.6-14.5,13.5-15.1,12.7s-1.8-2.2,11.2-11.7c2.8-2,6-4.3,9.4-6.5
							c1.6-1.1,3.4-2.2,5.1-3.4c0.8-0.5,1.7-1,2.5-1.6l0.6-0.4l0.4-0.2l0.9-0.5c-0.3-0.3-0.6-0.7-0.9-1c-0.4-0.4-0.8-0.8-1.3-1.3
							c-0.9-0.9-1.7-1.7-2.5-2.5c-1.6-1.6-3-3.1-4.3-4.3c-2.4-2.5-3.9-4.1-3.9-4.1s1.6,1.5,4.1,3.9c1.3,1.2,2.8,2.6,4.4,4.2
							c0.8,0.7,1.7,1.6,2.6,2.4c1,0.9,2.1,1.9,3.1,2.8c-2.8,1.9-5.7,4-8.5,5.9C268.1,347.9,265.4,349.8,262.9,351.7z"/>
					</g>
				</g>
			</g>
			<g>
				<g>
					<g>
						<path class="st0" d="M315.4,322.1c-11.4,11.5-12.3,15.6-13,14.9s-2.1-1.9,9.3-13.3c1.7-1.7,3.6-3.5,5.6-5.4
							c1-0.9,2-1.9,3.1-2.8c0.5-0.4,1-1,1.6-1.4c0.3-0.2,0.5-0.5,0.8-0.7c0.4-0.4,0.8-0.7,1.2-1.1c0.5,0.2,1.1,0.4,1.6,0.6l1,0.4
							c0.7,0.3,1.4,0.5,2.1,0.8c1.3,0.5,2.8,1,4.1,1.6c2.7,1,5.2,2.1,7.6,3c0.3-0.7,0.6-1.4,0.9-2.1c0.2-0.6,0.5-1.2,0.7-1.7
							c0.4-1,0.9-2,1.2-2.8c0.7-1.5,1.1-2.5,1.1-2.5s-0.4,0.9-1,2.5c-0.3,0.8-0.7,1.7-1.1,2.8c-0.2,0.5-0.4,1.1-0.7,1.7
							c-0.3,0.8-0.6,1.6-1,2.5c-0.7-0.2-1.6-0.5-2.4-0.8c-0.6-0.2-1.2-0.4-1.8-0.6c-1.3-0.4-2.5-0.9-3.9-1.3
							c-2.7-0.9-5.5-1.9-8.4-2.8c-1.5,1.5-3.1,3-4.5,4.4C318.2,319.3,316.7,320.7,315.4,322.1z"/>
					</g>
				</g>
			</g>
			<g>
				<g>
					<g>
						<path class="st0" d="M362.1,314.4c-9.1,10.3-9.4,14-10.2,13.3c-0.8-0.7-2.2-1.7,6.9-12c1.6-1.8,3.4-3.8,5.4-5.8
							c1-1,1.9-1.9,3-3c0.5-0.5,1-1,1.5-1.5c0.7-0.7,1.4-1.4,2.2-2.2c2.2,2.8,2.9,4,4.1,5.7c1.6,3.5,2.9,6.6,3.9,8.9
							c0.9,2.2,1.5,3.6,1.5,3.6s-0.7-1.3-1.7-3.5c-1.1-2.2-2.6-5.2-4.3-8.5c-1.1-1.5-2.3-3-3.5-4.5c-0.7,0.7-1.4,1.5-2.2,2.3
							c-0.7,0.8-1.6,1.6-2.3,2.5C365,311.2,363.5,312.8,362.1,314.4z"/>
					</g>
				</g>
			</g>
			<g>
				<g>
					<g>
						<path class="st1" d="M352.8,310.1c-9.3,4.6-10.3,7.6-10.8,6.7c-0.4-1-1.3-2.5,7.9-7c2-1,4.3-2,6.7-3c1.2-0.4,2.5-1,3.7-1.4
							c0.6-0.2,1.2-0.4,1.8-0.7c0.3-0.1,0.7-0.2,0.9-0.3l0.7-0.2c0.1-0.3,0.1-0.5,0.2-0.9s0.1-0.8,0.2-1.2c0.1-0.7,0.3-1.5,0.4-2.2
							c0.3-1.4,0.6-2.7,0.8-3.8c0.4-2.1,0.8-3.5,0.8-3.5s-0.2,1.4-0.5,3.5c-0.1,1.1-0.4,2.4-0.5,3.8c-0.1,0.7-0.2,1.5-0.3,2.2
							c-0.1,0.8-0.2,1.7-0.3,2.6c-1,0.4-2.1,0.9-3.1,1.3s-2,0.9-3,1.3C356.5,308.2,354.6,309.2,352.8,310.1z"/>
					</g>
				</g>
			</g>
			<g>
				<g>
					<g>
						<path class="st1" d="M341.1,325.5c10.6-2.1,12.6-4.8,12.8-3.7c0.2,1,0.6,2.7-10,4.8c-1.9,0.4-4.2,0.7-6.5,1
							c-1.2,0.1-2.3,0.3-3.5,0.4c-0.6,0.1-1.2,0.1-1.8,0.1c-0.3,0-0.6,0.1-0.9,0.1h-0.5l-0.3,0.3L330,329l-0.9,1.1
							c-0.6,0.7-1.1,1.5-1.6,2.2c-1,1.3-2.1,2.6-2.9,3.7c-1.6,2.1-2.8,3.5-2.8,3.5s1-1.5,2.5-3.7c0.7-1.1,1.7-2.5,2.7-4
							c0.5-0.7,1-1.5,1.5-2.3s1.1-1.6,1.6-2.5c1.9-0.3,3.9-0.6,5.8-0.9C337.5,326.1,339.4,325.8,341.1,325.5z"/>
					</g>
				</g>
			</g>
		</g>
		<g id="Lightning2">
			<g>
				<g>
					<g>
						<path class="st1" d="M330,300.4c-0.4-0.1-0.8-0.1-1.3-0.2c-7.2,3.4-7.9,6-8.4,5c-0.4-1-1.2-2.5,7-6.1c0.4-0.1,0.7-0.4,1.2-0.5
							c0.4,0.1,0.7,0.1,1.2,0.2c0.2,0.1,0.4,0.1,0.7,0.1c0.4,0.1,1,0.2,1.5,0.3c1,0.2,2,0.5,3.1,0.7c1,0.3,2.1,0.6,3.1,0.9
							c0.5,0.1,1,0.3,1.5,0.4l0.4,0.1c0.1,0,0.1,0.1,0.2,0.1l0.5,0.2l0.6-0.5l0.7-0.7c0.5-0.4,1-0.9,1.4-1.3
							c0.9-0.8,1.7-1.6,2.5-2.2c1.3-1.3,2.3-2.1,2.3-2.1s-0.8,0.9-2.1,2.2c-0.7,0.7-1.4,1.6-2.2,2.5c-0.4,0.4-0.9,1-1.3,1.4
							c-0.2,0.2-0.4,0.5-0.7,0.7c-0.3,0.3-0.5,0.6-0.8,1c-1-0.2-1.9-0.4-2.9-0.7c-1-0.2-1.9-0.4-2.8-0.6
							C333.6,301.1,331.7,300.7,330,300.4z"/>
					</g>
				</g>
			</g>
			<g>
				<g>
					<g>
						<path class="st0" d="M356.6,340.8c-8.2,0-10,2.2-10,1.2s-0.1-2.8,8.1-2.8c1.4,0,3,0.1,4.6,0.2c0.8,0.1,1.6,0.1,2.5,0.2
							c0.4,0.1,0.8,0.1,1.3,0.1c0.6,0.1,1.2,0.1,1.8,0.1c0.1,0.5,0.4,1.1,0.5,1.6c0.1,0.4,0.2,0.7,0.3,1.1c0.1,0.7,0.4,1.4,0.5,2.2
							c0.3,1.4,0.6,2.7,0.9,3.7c0.4,2.2,0.7,3.6,0.7,3.6s-0.4-1.4-1.1-3.5c-0.4-1-0.7-2.3-1.2-3.7s-1-2.8-1.4-4.1
							c-0.6,0-1.2-0.1-1.8-0.1c-0.7,0-1.3-0.1-1.9-0.1C359.1,340.8,357.8,340.8,356.6,340.8z"/>
					</g>
				</g>
			</g>
			<g>
				<g>
					<g>
						<path class="st1" d="M243.3,321.5c-2.3,8.3-0.6,10.8-1.6,10.5s-2.7-0.7-0.4-9c0.2-0.7,0.4-1.4,0.7-2.2
							c0.1-0.4,0.2-0.7,0.4-1.1c0.1-0.2,0.1-0.4,0.2-0.6c0.1-0.3,0.2-0.7,0.3-1c0.1-0.1,0.4-0.3,0.5-0.4l0.3-0.2l0.1-0.1
							c0.2-0.1,0.4-0.3,0.7-0.4c0.4-0.3,0.9-0.6,1.3-0.9c0.9-0.6,1.8-1.1,2.7-1.7c1.8-1.1,3.5-2.2,5-3c3.1-1.8,5.2-2.9,5.2-2.9
							S250.5,314,244,319C243.7,319.9,243.5,320.7,243.3,321.5z"/>
					</g>
				</g>
			</g>
			<g>
				<g>
					<g>
						<path class="st0" d="M297.7,309.1c-9.5,7.2-10.3,10.5-10.9,9.7c-0.7-0.9-1.7-2.2,7.8-9.4c0.8-0.6,1.6-1.2,2.5-1.9
							c0.4-0.3,0.9-0.6,1.3-1c0.6-0.4,0.5-0.3,0.7-0.4c0-0.1,0-0.1,0-0.2c-0.1-0.4-0.1-0.7-0.1-1c-0.1-0.7-0.1-1.5-0.2-2.2
							c-0.1-1.4-0.3-2.9-0.4-4.4c-0.1-1.4-0.2-2.8-0.4-4.3c-0.1-0.7-0.1-1.3-0.1-2c-0.1-0.7-0.1-1.3-0.1-1.8c2-0.9,3.8-1.6,5.2-2.2
							c1.3-0.5,2-0.8,2-0.8s-2.8,1.4-6.6,3.4c0.1,0.6,0.2,2.1,0.4,3.4c0.2,1.3,0.4,2.8,0.6,4.2c0.4,2.9,0.9,5.9,1.4,8.8
							C299.7,307.6,298.7,308.4,297.7,309.1z"/>
					</g>
				</g>
			</g>
		</g>
	</g>
</g>
</svg>
